<svg width="23" height="17" viewBox="0 0 23 17" fill="none" xmlns="http://www.w3.org/2000/svg">
<path d="M22.6535 7.76352L15.3618 0.471852C15.1653 0.282104 14.9022 0.177109 14.6291 0.179483C14.356 0.181856 14.0947 0.291407 13.9016 0.484541C13.7084 0.677674 13.5989 0.938937 13.5965 1.21206C13.5941 1.48518 13.6991 1.74831 13.8889 1.94477L19.4024 7.45831H1.08366C0.807392 7.45831 0.54244 7.56806 0.347089 7.76341C0.151739 7.95876 0.0419922 8.22371 0.0419922 8.49998C0.0419922 8.77625 0.151739 9.0412 0.347089 9.23655C0.54244 9.4319 0.807392 9.54165 1.08366 9.54165H19.4024L13.8889 15.0552C13.7894 15.1513 13.71 15.2662 13.6554 15.3933C13.6008 15.5204 13.5721 15.6571 13.5709 15.7954C13.5697 15.9337 13.5961 16.0709 13.6484 16.1989C13.7008 16.3269 13.7782 16.4432 13.876 16.541C13.9738 16.6388 14.0901 16.7162 14.2181 16.7685C14.3461 16.8209 14.4833 16.8473 14.6216 16.8461C14.7599 16.8449 14.8966 16.8161 15.0237 16.7615C15.1508 16.707 15.2657 16.6276 15.3618 16.5281L22.6535 9.23644C22.8487 9.0411 22.9584 8.77619 22.9584 8.49998C22.9584 8.22377 22.8487 7.95886 22.6535 7.76352Z" fill="#102C46"/>
</svg>
