<?xml version="1.0" encoding="UTF-8"?>
<svg version="1.1" xmlns="http://www.w3.org/2000/svg" width="855" height="292">
<path d="M0 0 C49.83 0 99.66 0 151 0 C164.33333333 31.11111111 164.33333333 31.11111111 170.16015625 45.48828125 C171.7250663 49.34741921 173.3446701 53.17881789 175 57 C175.54527344 56.33355469 176.09054687 55.66710938 176.65234375 54.98046875 C178.25253326 53.02468157 179.85280017 51.06895771 181.453125 49.11328125 C183.00595111 47.21544754 184.55798871 45.31698049 186.109375 43.41796875 C191.33311788 37.02575707 196.57816433 30.65133394 201.82885742 24.28125 C205.88070999 19.36417242 209.91788171 14.43566967 213.9375 9.4921875 C214.618125 8.66976563 215.29875 7.84734375 216 7 C216.46276809 6.13538855 216.46276809 6.13538855 216.93488503 5.2533102 C218.41572178 2.88906747 219.6684061 1.56400504 222 0 C227.47232909 -1.0567506 232.92368327 -0.8848234 238.47021484 -0.79467773 C240.16565875 -0.79270226 241.86110864 -0.79381343 243.55654907 -0.79777527 C248.15161495 -0.79978204 252.74539926 -0.75865655 257.34016752 -0.70975757 C262.14473168 -0.66596941 266.94932592 -0.66188418 271.75405884 -0.65357971 C280.8489625 -0.63183129 289.94327648 -0.57439955 299.03792059 -0.50413328 C309.39328109 -0.42586499 319.74866989 -0.38739707 330.10425258 -0.35226524 C351.40316405 -0.27911626 372.70154487 -0.15600819 394 0 C393.53470746 2.65770395 393.06841033 5.31522543 392.6015625 7.97265625 C392.40735718 9.08284119 392.40735718 9.08284119 392.20922852 10.2154541 C388.58281381 30.83437238 388.58281381 30.83437238 387 34 C369.18 34 351.36 34 333 34 C332.67 37.3 332.34 40.6 332 44 C331.54078452 46.55052372 331.03675811 49.09345498 330.48461914 51.62548828 C330.33454123 52.32126228 330.18446333 53.01703629 330.02983761 53.73389435 C329.53677001 56.01385506 329.03595979 58.29203974 328.53515625 60.5703125 C328.18184003 62.19783156 327.82906936 63.82546914 327.47680664 65.45321655 C326.7304342 68.89762338 325.98084913 72.34130748 325.22854614 75.78442383 C323.47077795 83.82996026 321.72843415 91.87884152 319.98544121 99.92758942 C319.5991054 101.71119999 319.21255553 103.49476422 318.82579231 105.27828217 C315.06841982 122.60567 311.42638691 139.95499211 307.86938477 157.32470703 C307.684646 158.22226715 307.49990723 159.11982727 307.30957031 160.04458618 C306.97631984 161.66450852 306.64525651 163.28488352 306.31713867 164.90585327 C306.09840088 165.96855942 306.09840088 165.96855942 305.87524414 167.05273438 C305.75331192 167.65162476 305.6313797 168.25051514 305.50575256 168.86755371 C304.77729519 171.93900867 303.86720047 174.96479835 303 178 C291.12 178 279.24 178 267 178 C265.61269662 175.22539324 266.31947301 173.82339048 267.01171875 170.80859375 C267.26864502 169.66648438 267.52557129 168.524375 267.7902832 167.34765625 C267.93503082 166.71746582 268.07977844 166.08727539 268.22891235 165.43798828 C269.05220958 161.84653423 269.84904458 158.24918038 270.6484375 154.65234375 C270.82967667 153.83885468 271.01091583 153.0253656 271.19764709 152.18722534 C273.83305388 140.31232906 276.3125433 128.40397488 278.8125 116.5 C279.32881087 114.0464583 279.84516847 111.59292644 280.36157227 109.1394043 C282.9058014 97.04030661 285.43071966 84.93745925 287.92578125 72.828125 C288.38626082 70.59829675 288.84679028 68.36847881 289.30737305 66.13867188 C290.16958298 61.96395168 291.0256312 57.78803193 291.87817383 53.61132812 C292.26491806 51.73563198 292.65186875 49.8599784 293.0390625 47.984375 C293.20936478 47.1412677 293.37966705 46.2981604 293.55513 45.42950439 C293.79781868 44.26122101 293.79781868 44.26122101 294.04541016 43.06933594 C294.25093002 42.06480377 294.25093002 42.06480377 294.46060181 41.03997803 C295.09830754 38.6282056 296.07350755 36.31623112 297 34 C279.51 34 262.02 34 244 34 C244 31.03 244 28.06 244 25 C239.08104469 30.33433376 234.33183721 35.6327361 230.19140625 41.6015625 C229.79824219 42.06304687 229.40507813 42.52453125 229 43 C228.34 43 227.68 43 227 43 C226.72397949 43.59441895 226.44795898 44.18883789 226.16357422 44.80126953 C225.06205048 46.88274724 223.93496751 48.42210824 222.3828125 50.1796875 C221.60514526 51.06756958 221.60514526 51.06756958 220.81176758 51.97338867 C220.25513428 52.60092041 219.69850098 53.22845215 219.125 53.875 C217.94366052 55.22234955 216.76267897 56.570013 215.58203125 57.91796875 C214.68411865 58.93963135 214.68411865 58.93963135 213.76806641 59.98193359 C210.59523951 63.60338998 207.4488769 67.24806012 204.34399414 70.92797852 C201.94099334 73.77258571 199.50486845 76.54346575 196.921875 79.2265625 C196.44000732 79.74710205 195.95813965 80.2676416 195.46166992 80.80395508 C194.15123975 82.21682334 192.81285149 83.60361498 191.47265625 84.98828125 C189.59712263 88.03709944 189.59712263 88.03709944 190.8203125 91.80859375 C191.5221875 93.54922198 192.25346415 95.2780536 193 97 C193.76462778 98.91175874 194.52912009 100.82357248 195.29167175 102.73616028 C196.46725695 105.66280857 197.67196466 108.57707538 198.87817383 111.49121094 C199.80396503 113.72936621 200.72360634 115.96997498 201.64257812 118.2109375 C204.76214597 125.7892615 208.00911929 133.27535673 211.48413086 140.69921875 C214.11714394 146.43256338 216.56508497 152.24367938 219.00683594 158.06054688 C219.8896844 160.15991882 220.78072262 162.25570413 221.671875 164.3515625 C222.23747827 165.6951025 222.80260127 167.0388448 223.3671875 168.3828125 C223.87362793 169.58309082 224.38006836 170.78336914 224.90185547 172.02001953 C226 175 226 175 226 178 C213.13 178 200.26 178 187 178 C184.89625 172.740625 182.7925 167.48125 180.625 162.0625 C179.13679424 158.34433473 179.13679424 158.34433473 177.64857483 154.62617493 C175.0509117 148.13536102 172.45831986 141.64261973 169.87890625 135.14453125 C169.41983887 133.99009521 168.96077148 132.83565918 168.48779297 131.64624023 C167.63445972 129.4994486 166.78315435 127.35184957 165.93408203 125.20336914 C165.55751465 124.2571167 165.18094727 123.31086426 164.79296875 122.3359375 C164.4683667 121.51657715 164.14376465 120.6972168 163.80932617 119.85302734 C163.14396231 118.02230274 163.14396231 118.02230274 162 117 C161.50113281 117.680625 161.00226563 118.36125 160.48828125 119.0625 C155.45447339 125.85859248 150.228375 132.46080602 144.87036133 139.00390625 C141.50808094 143.11862949 138.22086018 147.27360299 135 151.5 C130.57578992 157.3045055 126.0004352 162.97433813 121.37695312 168.62109375 C120.85166016 169.26304687 120.32636719 169.905 119.78515625 170.56640625 C119.31988525 171.13302979 118.85461426 171.69965332 118.37524414 172.28344727 C116.93370503 173.99527832 116.93370503 173.99527832 115.79487896 176.07722092 C114 178 114 178 111.27263355 178.49219131 C110.16187301 178.48850414 109.05111246 178.48481697 107.9066925 178.48101807 C105.99470062 178.48926605 105.99470062 178.48926605 104.04408264 178.49768066 C102.62874992 178.48352401 101.21342098 178.46898477 99.7980957 178.45410156 C98.3099877 178.45297346 96.82187746 178.45360622 95.33377075 178.45587158 C91.29049459 178.45702112 87.24769131 178.43347351 83.20452523 178.40557575 C78.9804652 178.38060174 74.75639481 178.37822327 70.53227234 178.37347412 C62.53180047 178.36103254 54.53154675 178.32819503 46.53117102 178.28807616 C37.42368765 178.24339515 28.31619396 178.22138067 19.2086283 178.20129442 C0.4722951 178.15946336 -18.26383492 178.08908843 -37 178 C-36.37410495 172.84903009 -35.63184851 167.81773222 -34.58203125 162.73046875 C-34.44230392 162.05115799 -34.3025766 161.37184723 -34.15861511 160.67195129 C-33.86171226 159.2320827 -33.56329263 157.79252612 -33.26342773 156.35327148 C-32.82740079 154.25906734 -32.39664527 152.1638392 -31.96679688 150.06835938 C-30.11013072 141.06942103 -28.13680574 132.09913961 -26.12890625 123.1328125 C-23.24351701 110.22924791 -20.53291588 97.2935032 -17.87496948 84.34140015 C-16.58142114 78.03914842 -15.28040992 71.73843562 -13.98046875 65.4375 C-13.72477615 64.19727585 -13.46908356 62.9570517 -13.2056427 61.679245 C-11.13406001 51.63548668 -9.04649933 41.59517841 -6.93621826 31.55947876 C-6.61007529 30.00829394 -6.28441254 28.45700806 -5.95928955 26.90560913 C-5.51460849 24.78443511 -5.06815226 22.66364282 -4.62109375 20.54296875 C-4.3780249 19.38821045 -4.13495605 18.23345215 -3.88452148 17.04370117 C-2.63937753 11.35136904 -1.31023897 5.67770221 0 0 Z M113 5 C112.18409943 8.37418714 111.3728913 11.74948581 110.5625 15.125 C110.33240234 16.07632812 110.10230469 17.02765625 109.86523438 18.0078125 C109.64287109 18.9359375 109.42050781 19.8640625 109.19140625 20.8203125 C108.88505249 22.09285889 108.88505249 22.09285889 108.57250977 23.39111328 C107.94724027 26.24042236 107.47956974 29.12258153 107 32 C68.885 32.495 68.885 32.495 30 33 C25.76302312 51.38169551 25.76302312 51.38169551 23 70 C44.12 70 65.24 70 87 70 C84.69 80.56 82.38 91.12 80 102 C58.55 102.33 37.1 102.66 15 103 C13.68 109.0225 12.36 115.045 11 121.25 C10.58234375 123.14524414 10.1646875 125.04048828 9.734375 126.99316406 C9.4059208 128.50057935 9.07777492 130.00806186 8.75 131.515625 C8.49089844 132.68327393 8.49089844 132.68327393 8.2265625 133.87451172 C7.47316384 137.35673827 7 140.41913354 7 144 C32.08 144 57.16 144 83 144 C81.68 150.27 80.36 156.54 79 163 C79 164.65 79 166.3 79 168 C82.80385238 164.29332633 86.31241213 160.42172397 89.75 156.375 C90.26788086 155.76688477 90.78576172 155.15876953 91.31933594 154.53222656 C92.88319945 152.69119831 94.44231446 150.84625678 96 149 C96.47179687 148.44280273 96.94359375 147.88560547 97.4296875 147.31152344 C98.70926823 145.79618181 99.97990952 144.27330472 101.25 142.75 C101.97703125 141.87859375 102.7040625 141.0071875 103.453125 140.109375 C105.19712122 138.16716104 105.19712122 138.16716104 105 136 C105.66 136 106.32 136 107 136 C108.37491299 134.49212839 109.67364462 132.91460239 110.9375 131.3125 C111.73542969 130.31476563 112.53335938 129.31703125 113.35546875 128.2890625 C113.78263184 127.75442383 114.20979492 127.21978516 114.64990234 126.66894531 C116.96925078 123.80184478 119.36040189 120.99608274 121.75 118.1875 C123.50176107 116.12647469 125.25148023 114.06378319 127 112 C127.47501953 111.45553223 127.95003906 110.91106445 128.43945312 110.35009766 C131.13597679 107.57467876 131.13597679 107.57467876 132 104 C132.66 104 133.32 104 134 104 C135.33264423 102.51143934 136.59219479 100.95696355 137.8125 99.375 C140.15514716 96.3624155 142.49818331 93.38174874 145 90.5 C147.20823168 88.27330408 147.20823168 88.27330408 147 86 C147.66 85.67 148.32 85.34 149 85 C146.64503641 79.63451135 144.28993025 74.2690853 141.93469238 68.90371704 C141.10434336 67.01210688 140.27402102 65.120485 139.44372559 63.22885132 C134.55308095 52.0868527 129.65721282 40.94721222 124.75 29.8125 C121.1155007 21.56315199 117.51873315 13.2994592 114 5 C113.67 5 113.34 5 113 5 Z " fill="#000000" transform="translate(457,6)"/>
<path d="M0 0 C7.41628449 -0.04681086 14.83253596 -0.08211228 22.24893951 -0.10362434 C25.69449669 -0.11396088 29.13995114 -0.12792891 32.58544922 -0.15087891 C80.88714636 -0.46386602 80.88714636 -0.46386602 95.8359375 10.80859375 C103.02027445 18.08370753 105.12707281 27.41452691 105.1875 37.3125 C105.05105389 49.34704714 101.91529251 59.09517057 93.6875 68.125 C86.80579391 74.69531667 77.31157934 79.8721137 68 82 C68.66644531 82.1959375 69.33289063 82.391875 70.01953125 82.59375 C80.48596599 85.9898519 88.96406855 91.28388392 94.87890625 100.7265625 C100.00781546 111.12734703 99.80932587 125.79233513 96.3125 136.75 C95.59021905 138.5205915 94.82255878 140.27370887 94 142 C93.649375 142.78117188 93.29875 143.56234375 92.9375 144.3671875 C85.58923517 159.11474677 72.03112505 168.28295937 57 174 C47.06164384 176.87306809 37.34015432 178.15428071 27.02563477 178.11352539 C26.04925552 178.11367142 25.07287628 178.11381744 24.06690979 178.1139679 C20.85838555 178.11327447 17.64992028 178.10550887 14.44140625 178.09765625 C12.20938651 178.09579004 9.97736636 178.0943671 7.74534607 178.09336853 C1.88460144 178.08955932 -3.97611823 178.07974269 -9.83685303 178.06866455 C-15.82287254 178.05841608 -21.80889611 178.05386356 -27.79492188 178.04882812 C-39.52995886 178.03811896 -51.26497735 178.02106175 -63 178 C-64 176 -64 176 -63.06298828 172.97265625 C-62.57308813 171.666373 -62.07485767 170.36319684 -61.5703125 169.0625 C-61.17200729 168.0073394 -61.17200729 168.0073394 -60.76565552 166.93086243 C-60.19171999 165.41198133 -59.61446862 163.89434999 -59.03430176 162.37783813 C-57.50414503 158.37645466 -55.99860563 154.36583703 -54.4921875 150.35546875 C-54.19006348 149.55263962 -53.88793945 148.74981049 -53.57666016 147.9226532 C-51.01439819 141.09191394 -48.59980367 134.21946621 -46.25 127.3125 C-43.0802398 118.0184857 -39.72185679 108.81345287 -36.23999023 99.63208008 C-33.5281089 92.46415641 -30.95781761 85.25656556 -28.45263672 78.01416016 C-26.47996606 72.32566193 -24.40094642 66.68640831 -22.26220703 61.05859375 C-20.31337753 55.90271609 -18.48935913 50.70884327 -16.6875 45.5 C-13.04086636 34.97203172 -9.12374045 24.55011545 -5.16918945 14.13452148 C-3.41588818 9.4340339 -1.70986733 4.71643157 0 0 Z M18 33 C14.89857297 44.92885432 12.3311276 56.89797586 10 69 C14.07095734 69.07513835 18.14163647 69.12905913 22.21313477 69.16479492 C23.59308926 69.17971942 24.97299772 69.20006661 26.3527832 69.22631836 C37.27277329 69.42861385 49.89994019 68.9740633 59 62 C63.92870579 56.07048714 66.66580152 50.85645798 66 43 C63.72902227 38.6262651 61.52426914 35.99909567 57 34 C52.06476004 33.12044854 47.32360315 32.88223453 42.31640625 32.90234375 C41.61603745 32.9037587 40.91566864 32.90517365 40.19407654 32.90663147 C37.98350534 32.91217523 35.77303996 32.92471674 33.5625 32.9375 C32.05273585 32.94252229 30.54297009 32.94708391 29.03320312 32.95117188 C25.35543507 32.96212613 21.67772788 32.9793511 18 33 Z M3 102 C-0.55557067 116.2514267 -3.52850456 130.52110348 -6 145 C25.43485841 147.34775548 25.43485841 147.34775548 53.1171875 136.03515625 C58.62472723 130.09630317 59.32429151 125.75283 59.20703125 117.7578125 C58.90108222 113.68234054 58.20385996 111.48352057 56 108 C45.82593038 100.31753927 32.46537134 101.74933032 20.375 101.875 C18.68620323 101.88505043 16.99740066 101.89417263 15.30859375 101.90234375 C11.20558406 101.92419261 7.10285718 101.95860846 3 102 Z " fill="#000000" transform="translate(327,6)"/>
<path d="M0 0 C21.78 0 43.56 0 66 0 C65.21012691 4.73923853 64.2527512 8.50149869 62.6640625 12.96875 C62.42924667 13.63280853 62.19443085 14.29686707 61.95249939 14.98104858 C61.18174749 17.15587633 60.40358211 19.32796437 59.625 21.5 C59.07908501 23.03392417 58.53343455 24.56794251 57.98803711 26.10205078 C53.90045219 37.57695923 49.72030195 49.0173224 45.51025391 60.4478302 C42.30886353 69.14147218 39.14546815 77.84847647 36 86.5625 C35.73709167 87.2907196 35.47418335 88.01893921 35.20330811 88.76922607 C30.8234227 100.90576957 26.47199087 113.05246778 22.12255859 125.19995117 C15.42047863 143.91740053 8.71231043 162.63261937 1.93569946 181.32324219 C1.23175945 183.2656038 0.52876797 185.20830946 -0.17324829 187.15136719 C-1.13614581 189.81547528 -2.10265608 192.4782424 -3.0703125 195.140625 C-3.35477737 195.92955139 -3.63924225 196.71847778 -3.93232727 197.53131104 C-5.88546597 202.88546597 -5.88546597 202.88546597 -7 204 C-9.05556661 204.09413687 -11.11440181 204.11742998 -13.17211914 204.11352539 C-14.13794167 204.11374443 -14.13794167 204.11374443 -15.12327576 204.1139679 C-17.26060303 204.11326885 -19.39784413 204.10547691 -21.53515625 204.09765625 C-23.01346285 204.09579204 -24.49177007 204.09436815 -25.97007751 204.09336853 C-29.86798802 204.08954359 -33.76586149 204.07971352 -37.66375732 204.06866455 C-41.63846333 204.05844992 -45.61317529 204.0538708 -49.58789062 204.04882812 C-57.391944 204.03809122 -65.19596682 204.02101509 -73 204 C-72.47551646 200.54718193 -71.8950468 197.30467349 -70.6875 194.02563477 C-70.28841682 192.92971764 -70.28841682 192.92971764 -69.88127136 191.81166077 C-69.59045181 191.02947678 -69.29963226 190.24729279 -69 189.44140625 C-68.69262405 188.60141586 -68.38524811 187.76142548 -68.06855774 186.89598083 C-67.05038656 184.11641166 -66.02507927 181.3395281 -65 178.5625 C-64.27957379 176.59853398 -63.55977731 174.63433685 -62.84057617 172.66992188 C-61.71394 169.59282853 -60.58692721 166.51587902 -59.45805359 163.43960571 C-55.73588345 153.29514789 -52.05692734 143.13525898 -48.38607788 132.97213745 C-47.30527059 129.97998579 -46.22366613 126.98812338 -45.1418457 123.99633789 C-42.00537392 115.32164785 -38.8713738 106.64607082 -35.7421875 97.96875 C-29.48541814 80.61998546 -23.20437701 63.28012126 -16.90567017 45.9465332 C-16.02208619 43.51482531 -15.1387579 41.08302449 -14.25570679 38.65112305 C-13.00596664 35.20981045 -11.75508784 31.76891375 -10.50390625 28.328125 C-10.13868866 27.32199158 -9.77347107 26.31585815 -9.39718628 25.27923584 C-6.32231939 16.82985161 -3.15764987 8.42039967 0 0 Z " fill="#000000" transform="translate(79,84)"/>
<path d="M0 0 C1.29111694 -0.00860046 2.58223389 -0.01720093 3.91247559 -0.02606201 C5.35697897 -0.03049779 6.80148278 -0.0347961 8.24598694 -0.03897095 C9.75698538 -0.04686893 11.26798191 -0.05513769 12.77897644 -0.06375122 C17.7576262 -0.09002372 22.73628456 -0.10529184 27.71498108 -0.11953735 C29.42876758 -0.12489637 31.14255402 -0.13027387 32.85634041 -0.13566971 C39.98925898 -0.15731307 47.12217524 -0.17604656 54.25511837 -0.1872921 C64.47286203 -0.20350623 74.69022381 -0.23660528 84.9078235 -0.29369295 C92.09265388 -0.33246254 99.27738247 -0.35193353 106.46231467 -0.35721266 C110.75189453 -0.36085879 115.04106761 -0.37279939 119.33053398 -0.4053154 C123.37308647 -0.43551703 127.41498874 -0.44166527 131.45763016 -0.42993164 C132.93539549 -0.42971186 134.41319201 -0.43793766 135.89085197 -0.45558548 C145.5314067 -0.56438092 153.60078782 0.14631516 160.96118069 6.89454079 C166.80420674 13.09978664 168.70216948 19.66417829 168.48060608 28.08358765 C167.62793428 34.34713936 164.64327599 39.07648934 160.87513733 44.02890015 C151.77818373 50.90215398 142.02640372 50.71006956 131.13832092 50.60800171 C129.44228645 50.60687172 127.74625002 50.60751005 126.05021667 50.60977173 C121.47226851 50.6109139 116.8947442 50.58748563 112.31689405 50.5594759 C107.52298634 50.53437889 102.72906765 50.53211372 97.93510437 50.52737427 C88.86885661 50.5149688 79.80280304 50.48218021 70.73664057 50.44197631 C60.41015135 50.3971828 50.0836526 50.37525253 39.75709033 50.35519457 C18.52549785 50.31344533 -2.70592015 50.24314072 -23.93736267 50.15390015 C-21.93399424 40.68314903 -21.93399424 40.68314903 -20.34922791 36.47616577 C-20.05229538 35.67924316 -19.75536285 34.88232056 -19.44943237 34.06124878 C-19.13478531 33.23588623 -18.82013824 32.41052368 -18.49595642 31.56015015 C-18.16821732 30.68741455 -17.84047821 29.81467896 -17.50280762 28.91549683 C-16.81563686 27.08926458 -16.12557247 25.26411872 -15.432724 23.44003296 C-14.3681638 20.63625705 -13.31320878 17.82900557 -12.2596283 15.02108765 C-11.588958 13.24223297 -10.91775349 11.4635796 -10.24595642 9.68515015 C-9.92928513 8.84359375 -9.61261383 8.00203735 -9.28634644 7.13497925 C-6.58249927 0.03248537 -6.58249927 0.03248537 0 0 Z " fill="#000000" transform="translate(111.93736267089844,6.846099853515625)"/>
<path d="M0 0 C21.8994419 -0.62159988 21.8994419 -0.62159988 30 3 C31.18335938 3.45826172 31.18335938 3.45826172 32.390625 3.92578125 C45.52377649 9.60442379 54.67729393 20.52266038 60.05078125 33.546875 C65.02953253 47.61007766 63.97709879 62.37167089 57.64453125 75.89453125 C49.66015313 89.82973274 38.40055615 98.41582461 23 103 C16.64939551 104.19251527 10.38801478 104.12786833 3.94140625 104.09765625 C2.22497169 104.09553383 2.22497169 104.09553383 0.47386169 104.09336853 C-3.16328601 104.08779301 -6.80037105 104.07524498 -10.4375 104.0625 C-12.9108064 104.05748184 -15.38411377 104.05291948 -17.85742188 104.04882812 C-23.90496912 104.0378316 -29.95248008 104.02111788 -36 104 C-35.40143581 98.34856032 -33.92851552 93.42561923 -31.98828125 88.09765625 C-31.68005936 87.23471451 -31.37183746 86.37177277 -31.05427551 85.48268127 C-30.38843823 83.62128696 -29.7195489 81.76098211 -29.0479126 79.90167236 C-27.99213437 76.97822005 -26.94496489 74.05181025 -25.89990234 71.12451172 C-23.67257811 64.89184495 -21.43123496 58.66427466 -19.1875 52.4375 C-18.79492004 51.3471344 -18.40234009 50.2567688 -17.99786377 49.13336182 C-12.0878186 32.72205393 -6.12835034 16.33122549 0 0 Z " fill="#000000" transform="translate(141,184)"/>
<path d="M0 0 C8.25 0 16.5 0 25 0 C24.20923988 4.29183546 23.41741929 8.58347083 22.625 12.875 C22.29242188 14.68097656 22.29242188 14.68097656 21.953125 16.5234375 C20.82022112 22.65444676 19.66480591 28.77542995 18.37573242 34.87573242 C17.6526909 38.96357145 16.93371905 43.26027845 19.1875 46.9375 C21.59968218 48.35153783 23.18407585 48.86902678 26 49 C29.24801468 48.21001187 29.24801468 48.21001187 32 46 C34.32571264 40.64781889 35.71349954 35.38488184 36.7890625 29.66796875 C36.9378183 28.90954178 37.0865741 28.15111481 37.23983765 27.3697052 C37.70803822 24.97684283 38.16695615 22.58232526 38.625 20.1875 C39.09191346 17.77519402 39.56077894 15.36328555 40.03158569 12.95173645 C40.3225 11.45866829 40.61087642 9.96510282 40.89639282 8.47099304 C41.45728353 5.56869664 42.06384813 2.80845561 43 0 C71.71 0 100.42 0 130 0 C131.57753365 3.15506731 130.33168682 6.18353116 129.625 9.5 C129.48578125 10.18964844 129.3465625 10.87929687 129.203125 11.58984375 C128.14527097 16.70945806 128.14527097 16.70945806 127 19 C120.4 19 113.8 19 107 19 C106.9071875 20.44375 106.814375 21.8875 106.71875 23.375 C106.0340136 30.89745626 104.50588584 38.22902529 102.98876953 45.61865234 C102.49550278 48.02191102 102.01073754 50.42676912 101.52734375 52.83203125 C101.21662991 54.36728555 100.90544924 55.90244546 100.59375 57.4375 C100.44893188 58.15309082 100.30411377 58.86868164 100.15490723 59.60595703 C99.5648807 62.47323933 98.9268434 65.21946981 98 68 C90.08 68 82.16 68 74 68 C74.66881352 61.31186481 75.46496222 55.01746037 76.84765625 48.4921875 C77.02380966 47.64069122 77.19996307 46.78919495 77.38145447 45.91189575 C77.93701075 43.23190717 78.49961805 40.55345844 79.0625 37.875 C79.44382985 36.04176447 79.82469332 34.20843186 80.20507812 32.375 C81.13048117 27.91532347 82.06543636 23.4578047 83 19 C76.4 19 69.8 19 63 19 C62.67 21.97 62.34 24.94 62 28 C59.5847687 41.24042186 56.55398652 54.57987786 45.5234375 63.375 C35.20366628 70.02054927 22.53255331 70.71462724 10.71484375 68.33984375 C3.11197951 65.92407808 -1.50820293 61.7376956 -5.875 55.1875 C-9.68853603 44.38248125 -6.83754346 34.04134816 -4.625 23.1875 C-4.29036672 21.49309475 -3.95702301 19.79843429 -3.625 18.10351562 C-2.76548041 13.73245607 -1.88565935 9.36583562 -1 5 C-0.67 3.35 -0.34 1.7 0 0 Z M66 3 C67 6 67 6 67 6 Z M65 8 C66 11 66 11 66 11 Z " fill="#5DE0E5" transform="translate(440,220)"/>
<path d="M0 0 C0.92929825 -0.00807175 1.8585965 -0.01614349 2.8160553 -0.02445984 C4.79247155 -0.03832692 6.76891201 -0.04903726 8.74536133 -0.05688477 C11.74152732 -0.07396996 14.73655288 -0.11781595 17.73242188 -0.16210938 C19.65493982 -0.17224737 21.57746714 -0.18075999 23.5 -0.1875 C24.3858226 -0.20500809 25.2716452 -0.22251617 26.18431091 -0.24055481 C35.54685722 -0.20859021 43.29116232 2.89470516 50.09375 9.3125 C56.87918607 16.76287858 59.69991401 25.23613177 59.84765625 35.23828125 C58.99671785 45.52833262 54.44806179 53.46384265 47.03515625 60.51171875 C40.59874426 65.59188678 33.47858972 67.36741097 25.42675781 67.35180664 C24.12571106 67.35173111 22.82466431 67.35165558 21.48419189 67.35157776 C20.06888796 67.34647149 18.65358441 67.3412555 17.23828125 67.3359375 C15.78668262 67.3340716 14.33508337 67.33264851 12.88348389 67.33164978 C9.06946056 67.32783813 5.25547552 67.3180194 1.44146729 67.3069458 C-2.45307904 67.2967026 -6.34763158 67.29214593 -10.2421875 67.28710938 C-17.87892368 67.2763959 -25.51562834 67.25933574 -33.15234375 67.23828125 C-31.36630795 61.11648485 -29.4578998 55.0764902 -27.26171875 49.08984375 C-26.99601074 48.35803391 -26.73030273 47.62622406 -26.45654297 46.87223816 C-25.6075669 44.53502947 -24.75498605 42.19915461 -23.90234375 39.86328125 C-22.73410857 36.65161035 -21.56790859 33.43920337 -20.40234375 30.2265625 C-20.11872986 29.44538559 -19.83511597 28.66420868 -19.54290771 27.85935974 C-16.98406222 20.7996461 -14.49464324 13.71661077 -12.06933594 6.60986328 C-9.51447171 -0.81196709 -7.46170537 0.06096973 0 0 Z " fill="#5CE0E5" transform="translate(186.15234375,84.76171875)"/>
<path d="M0 0 C0.86818359 -0.03738281 1.73636719 -0.07476562 2.63085938 -0.11328125 C9.00635426 -0.20135409 9.00635426 -0.20135409 11.87109375 2.22265625 C12.47050781 3.26292969 13.06992187 4.30320313 13.6875 5.375 C14.76377353 7.07018733 15.84212254 8.7640577 16.921875 10.45703125 C18.09710311 12.36512632 19.26888941 14.27534488 20.4375 16.1875 C21.03949219 17.16654297 21.64148438 18.14558594 22.26171875 19.15429688 C23.73996819 21.55938524 25.21511975 23.96631572 26.6875 26.375 C29.12245337 23.94004663 29.26103901 22.52738107 29.94140625 19.18359375 C30.15603516 18.15685547 30.37066406 17.13011719 30.59179688 16.07226562 C30.80900391 14.99654297 31.02621094 13.92082031 31.25 12.8125 C31.68555268 10.68552993 32.12418652 8.55918767 32.56640625 6.43359375 C32.85366577 5.01518188 32.85366577 5.01518188 33.14672852 3.56811523 C33.6875 1.375 33.6875 1.375 34.6875 0.375 C36.32222882 0.28799658 37.96064055 0.26798937 39.59765625 0.27734375 C41.08168945 0.28217773 41.08168945 0.28217773 42.59570312 0.28710938 C43.63662109 0.29548828 44.67753906 0.30386719 45.75 0.3125 C47.31717773 0.31926758 47.31717773 0.31926758 48.91601562 0.32617188 C51.5065666 0.33800087 54.09700559 0.35448311 56.6875 0.375 C58.0601638 4.16741252 57.33147951 7.01840825 56.46484375 10.89453125 C56.32414459 11.53807556 56.18344543 12.18161987 56.03848267 12.84466553 C55.73375655 14.23525194 55.4251429 15.62499096 55.11306763 17.01394653 C54.28348648 20.70839149 53.48275842 24.40909325 52.6796875 28.109375 C52.51398758 28.86968521 52.34828766 29.62999542 52.17756653 30.41334534 C50.41054658 38.56403253 48.81645959 46.74626962 47.25 54.9375 C47.11898895 55.62083405 46.98797791 56.30416809 46.85299683 57.00820923 C46.12701418 60.79635605 45.40512376 64.58526119 44.6875 68.375 C37.75174291 69.93832626 30.43116985 71.11752109 23.6875 68.375 C17.48070489 62.49310933 13.67788055 54.52070372 9.95825195 46.91870117 C8.68182118 44.23173932 8.68182118 44.23173932 6.6875 41.375 C6.54127197 42.12185059 6.39504395 42.86870117 6.24438477 43.63818359 C5.58258751 47.00938565 4.91635111 50.37969524 4.25 53.75 C4.01990234 54.925625 3.78980469 56.10125 3.55273438 57.3125 C3.21918945 58.99472656 3.21918945 58.99472656 2.87890625 60.7109375 C2.57255249 62.26627197 2.57255249 62.26627197 2.26000977 63.85302734 C1.6875 66.375 1.6875 66.375 0.6875 68.375 C-2.93665933 68.60023024 -6.56174219 68.80231308 -10.1875 69 C-11.22003906 69.06445312 -12.25257813 69.12890625 -13.31640625 69.1953125 C-14.79560547 69.27265625 -14.79560547 69.27265625 -16.3046875 69.3515625 C-17.21589355 69.40393066 -18.12709961 69.45629883 -19.06591797 69.51025391 C-21.3125 69.375 -21.3125 69.375 -23.3125 67.375 C-23.06620789 64.63560486 -23.06620789 64.63560486 -22.36206055 61.10522461 C-22.23716248 60.46280319 -22.1122644 59.82038177 -21.98358154 59.15849304 C-21.56658328 57.02907673 -21.13313973 54.90337079 -20.69921875 52.77734375 C-20.40639933 51.30303868 -20.11448462 49.82855366 -19.82344055 48.35389709 C-19.2106623 45.26142115 -18.59035504 42.17058735 -17.96411133 39.08081055 C-17.15991257 35.11243263 -16.36910658 31.14154278 -15.5832243 27.1695013 C-14.98014115 24.12431232 -14.37269114 21.08000921 -13.76362038 18.03601265 C-13.47063936 16.57166712 -13.17840192 15.10717263 -12.88690758 13.64253044 C-12.47902783 11.59930511 -12.06593042 9.55720948 -11.65112305 7.51538086 C-11.41636765 6.35115097 -11.18161224 5.18692108 -10.93974304 3.9874115 C-9.63109669 -1.46298419 -4.8263943 0.07778804 0 0 Z " fill="#5EE0E5" transform="translate(689.3125,219.625)"/>
<path d="M0 0 C7.40398979 5.21971025 12.03838689 10.78822514 14.75 19.375 C15.88203685 31.26138688 14.37563311 41.79889147 7.125 51.51171875 C0.04045795 59.9752163 -8.82128245 65.95819644 -20 67 C-31.85890741 67.67659741 -42.6415279 67.56994053 -52.1875 59.640625 C-53.0846875 58.82851563 -53.0846875 58.82851563 -54 58 C-54.8353125 57.28070313 -54.8353125 57.28070313 -55.6875 56.546875 C-61.02207049 51.26565022 -62.83198404 44.25143244 -64 37 C-63.91796164 33.4005669 -63.15216671 30.39643457 -62 27 C-61.73832031 26.09507812 -61.47664063 25.19015625 -61.20703125 24.2578125 C-57.83798088 13.63574103 -51.847413 6.2434277 -42 1 C-28.78087564 -5.0652453 -13.34445901 -7.0502595 0 0 Z M-33 20 C-37.9699123 26.44745379 -38.67295176 32.02810991 -38 40 C-36.9533079 43.07465805 -36.08020918 44.33057459 -33.3359375 46.03125 C-28.75894554 48.14651321 -24.95881581 48.33900782 -20.11328125 47 C-15.24727913 44.69741859 -11.96749665 39.90979846 -10 35 C-9.64664185 32.12269942 -9.64664185 32.12269942 -9.6875 29.0625 C-9.67074219 28.04285156 -9.65398437 27.02320313 -9.63671875 25.97265625 C-10.0559445 22.54221755 -10.89784247 20.72853404 -13 18 C-19.30141911 13.6857504 -27.58968078 15.10494927 -33 20 Z " fill="#5DE0E5" transform="translate(361,222)"/>
<path d="M0 0 C8.1070544 5.6993202 13.04859127 11.8345253 14.828125 21.7109375 C16.11110752 33.00831138 12.68254807 43.72568292 5.828125 52.7109375 C-2.59001978 61.73705941 -11.68425792 66.21063329 -23.94921875 66.93359375 C-35.39168374 67.28157083 -45.24099985 66.1391338 -53.94921875 58.0625 C-60.47660607 51.30051313 -63.28544002 43.74064987 -63.796875 34.3984375 C-63.44609878 24.23802297 -59.03967277 14.5693191 -51.94140625 7.31640625 C-45.93526713 1.86712772 -39.92790205 -0.86604639 -32.171875 -3.2890625 C-31.55957031 -3.485 -30.94726562 -3.6809375 -30.31640625 -3.8828125 C-20.43339765 -5.75500356 -8.7370079 -5.18563418 0 0 Z M-33.171875 19.7109375 C-38.1359009 26.15075489 -38.85724923 31.74507853 -38.171875 39.7109375 C-36.79136835 43.52763235 -35.5474175 44.47334939 -32.109375 46.6484375 C-27.3165576 48.40512693 -22.80489089 47.65726213 -18.171875 45.7109375 C-13.45620386 41.92484424 -10.5399956 37.03836522 -9.87109375 30.9921875 C-9.70209902 23.7935093 -9.70209902 23.7935093 -13.171875 17.7109375 C-19.7726536 13.69617822 -27.52714785 14.60380342 -33.171875 19.7109375 Z " fill="#5EE0E5" transform="translate(655.171875,222.2890625)"/>
<path d="M0 0 C0.48287493 4.75721225 -1.09249552 7.63217559 -3.375 11.75 C-4.00148438 12.89984375 -4.62796875 14.0496875 -5.2734375 15.234375 C-7 18 -7 18 -9 19 C-10.25423604 18.40431272 -11.47897482 17.74617996 -12.6875 17.0625 C-19.17495471 13.96766505 -25.98875254 14.66745071 -33 15 C-33.66 16.32 -34.32 17.64 -35 19 C-33.96101562 19.23074219 -32.92203125 19.46148437 -31.8515625 19.69921875 C-12.71144325 24.10751074 -12.71144325 24.10751074 -6.4375 30.6875 C-3.16874788 35.94592732 -3.46433306 40.90870165 -4 47 C-5.70452246 53.2019974 -9.6391584 57.58487029 -15 61 C-29.28306546 67.88844297 -46.00933292 68.07474424 -61 63 C-63.80384274 61.81113659 -66.34686925 60.50864298 -69 59 C-68.01 58.505 -68.01 58.505 -67 58 C-66.731875 57.175 -66.46375 56.35 -66.1875 55.5 C-65.17892577 52.52736016 -64.07054786 49.95923857 -62.625 47.1875 C-62.22539063 46.41792969 -61.82578125 45.64835937 -61.4140625 44.85546875 C-60 43 -60 43 -58.09375 42.1171875 C-55.44405051 41.96888342 -54.20994543 42.69470646 -51.875 43.9375 C-44.30773958 47.25387467 -36.08293084 46.31697768 -28 46 C-30.25350111 42.61974833 -30.85993264 42.45087296 -34.578125 41.3515625 C-35.49207031 41.06796875 -36.40601563 40.784375 -37.34765625 40.4921875 C-39.26606687 39.91898809 -41.18532725 39.34862423 -43.10546875 38.78125 C-49.83473764 36.68602182 -54.90694312 34.75438662 -58.49609375 28.31640625 C-61.80938762 18.62399058 -61.80938762 18.62399058 -60 14 C-54.69876002 4.40973091 -48.31158358 -0.52877384 -38 -4 C-26.19718837 -7.32985196 -10.75198121 -5.75105972 0 0 Z M-60 16 C-59 19 -59 19 -59 19 Z " fill="#5EE0E5" transform="translate(805,223)"/>
<path d="M0 0 C-0.60266785 4.50727647 -2.36599794 7.8587963 -4.5625 11.8125 C-4.89185547 12.40998047 -5.22121094 13.00746094 -5.56054688 13.62304688 C-6.36773267 15.08533998 -7.18304917 16.5431399 -8 18 C-8.6084375 17.71125 -9.216875 17.4225 -9.84375 17.125 C-18.34855138 13.52296647 -25.95255003 13.59133225 -35 14 C-35 14.99 -35 15.98 -35 17 C-34.40050537 17.1858667 -33.80101074 17.3717334 -33.18334961 17.56323242 C-30.43044912 18.42492453 -27.68412672 19.30602445 -24.9375 20.1875 C-23.99455078 20.47947266 -23.05160156 20.77144531 -22.08007812 21.07226562 C-15.21901146 23.2955381 -9.3542327 25.65850842 -5.0625 31.75 C-2.98015116 38.11953764 -3.38856029 44.00931745 -6.03515625 50.15625 C-9.44773642 56.67745582 -14.30246837 60.19496399 -21 63 C-26.75869638 64.72459389 -32.00131222 65.38683173 -38 65.375 C-38.81799072 65.37411377 -39.63598145 65.37322754 -40.47875977 65.37231445 C-49.58029644 65.19896023 -60.918552 64.1940485 -68 58 C-66.3341708 51.83643195 -63.12194714 46.51740344 -60 41 C-56.49123943 41.50616574 -53.871437 42.05951991 -50.625 43.5625 C-44.19922033 46.15801101 -36.79682905 45.22271163 -30 45 C-30 44.01 -30 43.02 -30 42 C-30.54414551 41.83918945 -31.08829102 41.67837891 -31.64892578 41.51269531 C-34.14417894 40.7688414 -36.63448795 40.00956966 -39.125 39.25 C-40.40890625 38.87101562 -40.40890625 38.87101562 -41.71875 38.484375 C-48.92770964 36.26623357 -54.83072252 33.63996042 -59 27 C-60.42522624 21.11730598 -59.57339394 17.32024287 -57.4375 11.875 C-57.19708984 11.18535156 -56.95667969 10.49570313 -56.70898438 9.78515625 C-54.4096794 3.72703786 -51.22430162 0.6265023 -45.3671875 -2.328125 C-44.54476563 -2.63234375 -43.72234375 -2.9365625 -42.875 -3.25 C-42.04742187 -3.56453125 -41.21984375 -3.8790625 -40.3671875 -4.203125 C-27.75364222 -8.44926896 -11.23791849 -7.21571385 0 0 Z " fill="#5EE0E5" transform="translate(301,224)"/>
<path d="M0 0 C0.98613281 0.00322266 1.97226562 0.00644531 2.98828125 0.00976562 C4.02082031 0.01814453 5.05335938 0.02652344 6.1171875 0.03515625 C7.67759766 0.04192383 7.67759766 0.04192383 9.26953125 0.04882812 C11.84380712 0.06063673 14.41796896 0.0771055 16.9921875 0.09765625 C18.38568392 4.2781455 17.23823274 7.73751525 16.33984375 11.9296875 C16.16086044 12.79905441 15.98187714 13.66842133 15.79747009 14.56413269 C15.22383912 17.34771304 14.64022005 20.12905686 14.0546875 22.91015625 C13.47333779 25.68065471 12.89435492 28.45154606 12.32261658 31.2240448 C11.96670235 32.94929507 11.60526562 34.67341791 11.23756409 36.39619446 C11.07417038 37.18688828 10.91077667 37.97758209 10.74243164 38.79223633 C10.5972963 39.48045975 10.45216095 40.16868317 10.30262756 40.87776184 C9.92288062 43.59325581 9.9921875 46.35573808 9.9921875 49.09765625 C23.8521875 49.59265625 23.8521875 49.59265625 37.9921875 50.09765625 C35.9921875 63.09765625 35.9921875 63.09765625 33.9921875 68.09765625 C26.78408945 68.26579641 19.57584277 68.4257028 12.36743164 68.57983398 C9.91426438 68.63326609 7.4611377 68.68859637 5.00805664 68.74584961 C1.48592889 68.82772644 -2.03628751 68.90281842 -5.55859375 68.9765625 C-6.65867264 69.00359756 -7.75875153 69.03063263 -8.89216614 69.05848694 C-9.91299789 69.07858322 -10.93382965 69.0986795 -11.9855957 69.11938477 C-12.88494339 69.13937027 -13.78429108 69.15935577 -14.71089172 69.1799469 C-17.0078125 69.09765625 -17.0078125 69.09765625 -20.0078125 68.09765625 C-17.3606133 52.53952156 -14.47700889 37.03345278 -11.35473633 21.56399536 C-10.9979342 19.79218916 -10.64410069 18.0197826 -10.29321289 16.24679565 C-9.79660437 13.74341225 -9.28864573 11.24260554 -8.77734375 8.7421875 C-8.55411186 7.60346695 -8.55411186 7.60346695 -8.32637024 6.44174194 C-7.95211149 4.64553545 -7.48850401 2.86835189 -7.0078125 1.09765625 C-4.50284246 -0.15482877 -2.79927976 -0.01608781 0 0 Z " fill="#5CE0E5" transform="translate(392.0078125,219.90234375)"/>
<path d="M0 0 C7.59 0 15.18 0 23 0 C24.06050863 4.24203454 23.78971166 6.12215694 22.92016602 10.32910156 C22.65982071 11.61012756 22.3994754 12.89115356 22.13124084 14.21099854 C21.83898204 15.6042464 21.5465327 16.99745431 21.25390625 18.390625 C20.96025432 19.81964802 20.66737234 21.24882945 20.37522888 22.67816162 C19.60529097 26.43460146 18.82492104 30.18879981 18.0423584 33.94262695 C17.24523398 37.77555644 16.45799523 41.6105138 15.66992188 45.4453125 C14.12294762 52.96556738 12.56403778 60.48327171 11 68 C3.08 68 -4.84 68 -13 68 C-13 63.04627579 -12.8730201 59.50394106 -11.91430664 54.82104492 C-11.67728531 53.64680466 -11.44026398 52.47256439 -11.19606018 51.26274109 C-10.93671188 50.01459122 -10.67736359 48.76644135 -10.41015625 47.48046875 C-10.14299256 46.17257546 -9.87635373 44.86457486 -9.61021423 43.55647278 C-9.05366767 40.82818968 -8.49262536 38.10088554 -7.92797852 35.37426758 C-7.20392849 31.87736657 -6.48845219 28.37878168 -5.77594852 24.87951183 C-5.09487055 21.53747356 -4.4087546 18.1964802 -3.72265625 14.85546875 C-3.46533218 13.59719772 -3.20800812 12.3389267 -2.94288635 11.04252625 C-2.70271286 9.88404678 -2.46253937 8.72556732 -2.21508789 7.53198242 C-2.00412979 6.50940842 -1.79317169 5.48683441 -1.57582092 4.43327332 C-1 2 -1 2 0 0 Z " fill="#5FDFE4" transform="translate(572,220)"/>
<path d="M0 0 C0.33 0 0.66 0 1 0 C1.38067278 3.80672784 1.00783147 6.35723334 -0.75 9.6875 C-3.62531662 14.96764899 -3.62531662 14.96764899 -7 25 C13.79 25 34.58 25 56 25 C56 25.33 56 25.66 56 26 C34.55 26 13.1 26 -9 26 C-7.09897533 19.6632511 -5.17578448 13.52537491 -2.8125 7.375 C-2.53986328 6.65699219 -2.26722656 5.93898437 -1.98632812 5.19921875 C-1.32731248 3.46496706 -0.66412113 1.732303 0 0 Z " fill="#76D6DB" transform="translate(162,126)"/>
<path d="M0 0 C0.66 0 1.32 0 2 0 C2.625 2.375 2.625 2.375 3 5 C2.34 5.66 1.68 6.32 1 7 C0.43650893 9.44572824 -0.0301927 11.8406252 -0.4375 14.3125 C-1.32328434 19.3752546 -2.28129388 24.37894298 -3.5 29.375 C-4.97961651 35.56602699 -6.0201148 41.79929161 -6.99804688 48.08544922 C-7.9005992 53.8011984 -7.9005992 53.8011984 -9 56 C-9.2275015 57.87056791 -9.40962811 59.74685958 -9.5625 61.625 C-9.68818359 63.12933594 -9.68818359 63.12933594 -9.81640625 64.6640625 C-9.87699219 65.43492187 -9.93757813 66.20578125 -10 67 C-10.99 67 -11.98 67 -13 67 C-9.1813704 44.55712768 -4.65444441 22.28165636 0 0 Z " fill="#87DEE2" transform="translate(385,221)"/>
<path d="M0 0 C7.26 0 14.52 0 22 0 C20.25 12.375 20.25 12.375 18 18 C1.83 18 -14.34 18 -31 18 C-31 17.67 -31 17.34 -31 17 C-15.16 17 0.68 17 17 17 C17.66 12.05 18.32 7.1 19 2 C12.73 1.67 6.46 1.34 0 1 C0 0.67 0 0.34 0 0 Z " fill="#6BDADE" transform="translate(408,270)"/>
<path d="M0 0 C0.66 0 1.32 0 2 0 C0.54401151 12.53888596 -2.2478918 24.68793702 -5 37 C-12.92 37 -20.84 37 -29 37 C-29 35.35 -29 33.7 -29 32 C-28.67 33.32 -28.34 34.64 -28 36 C-20.74 36 -13.48 36 -6 36 C-6 33.36 -6 30.72 -6 28 C-5.09765625 24.9296875 -5.09765625 24.9296875 -4 22 C-2.23683112 14.72798289 -0.74481896 7.44818956 0 0 Z " fill="#72D7DB" transform="translate(543,251)"/>
<path d="M0 0 C2.475 0.99 2.475 0.99 5 2 C4.39733215 6.50727647 2.63400206 9.8587963 0.4375 13.8125 C-0.0565332 14.7087207 -0.0565332 14.7087207 -0.56054688 15.62304688 C-1.36773267 17.08533998 -2.18304917 18.5431399 -3 20 C-6.63 18.68 -10.26 17.36 -14 16 C-14 15.67 -14 15.34 -14 15 C-7.9453125 14.8046875 -7.9453125 14.8046875 -6 15 C-5.34 15.66 -4.68 16.32 -4 17 C-3.896875 16.21625 -3.79375 15.4325 -3.6875 14.625 C-3 12 -3 12 0 10 C0.36416047 7.56306689 0.36416047 7.56306689 0.1875 4.875 C0.14689453 3.50988281 0.14689453 3.50988281 0.10546875 2.1171875 C0.05326172 1.06917969 0.05326172 1.06917969 0 0 Z " fill="#6ED5DD" transform="translate(296,222)"/>
<path d="M0 0 C0.66 0 1.32 0 2 0 C1.7834375 0.9590625 1.7834375 0.9590625 1.5625 1.9375 C0.94105168 5.32094085 0.59865928 8.68588916 0.28125 12.109375 C0 14 0 14 -1 15 C-1.20837419 16.82906235 -1.36749659 18.66388134 -1.5 20.5 C-1.88888889 25.88888889 -1.88888889 25.88888889 -3 27 C-3.24349011 29.51606449 -3.38363366 32.03086024 -3.5234375 34.5546875 C-4.07491555 37.38440275 -4.92898384 38.10231365 -7 40 C-6.4711827 31.08681352 -4.81363918 22.52708541 -2.9375 13.8125 C-2.65241706 12.46561695 -2.36790819 11.11861225 -2.08398438 9.77148438 C-1.39493263 6.51308716 -0.70016192 3.25602458 0 0 Z " fill="#79D8DE" transform="translate(439,226)"/>
<path d="M0 0 C1.16982422 0.00410889 1.16982422 0.00410889 2.36328125 0.00830078 C18.23006985 0.29256985 18.23006985 0.29256985 23.25 5.3125 C21.3628125 5.065 21.3628125 5.065 19.4375 4.8125 C16.98543415 4.49091759 14.73349306 4.3125 12.25 4.3125 C11.63382813 3.98765625 11.01765625 3.6628125 10.3828125 3.328125 C4.12563173 0.34851511 -4.14702412 2.35915224 -10.55859375 4.0703125 C-13.23681779 4.36630161 -14.48918413 3.70297901 -16.75 2.3125 C-11.04208268 0.69181307 -5.92481396 -0.04235677 0 0 Z " fill="#70D8DC" transform="translate(779.75,217.6875)"/>
<path d="M0 0 C0.33 0.66 0.66 1.32 1 2 C1.66 2 2.32 2 3 2 C3 2.66 3 3.32 3 4 C6.64616671 3.86183041 10.29183074 3.71318466 13.9375 3.5625 C15.49887695 3.50352539 15.49887695 3.50352539 17.09179688 3.44335938 C18.57583008 3.38051758 18.57583008 3.38051758 20.08984375 3.31640625 C21.00628662 3.27974854 21.92272949 3.24309082 22.86694336 3.20532227 C24.9820728 3.22996136 24.9820728 3.22996136 26 2 C27.66617115 1.95936168 29.33388095 1.957279 31 2 C26.97461741 6.02538259 21.2421817 6.25784272 15.79467773 6.328125 C15.07868408 6.32296875 14.36269043 6.3178125 13.625 6.3125 C12.50943726 6.31056641 12.50943726 6.31056641 11.37133789 6.30859375 C5.74106503 6.21017316 1.19730823 5.26791632 -4 3 C-2.68 2.67 -1.36 2.34 0 2 C0 1.34 0 0.68 0 0 Z " fill="#72D8D9" transform="translate(449,283)"/>
<path d="M0 0 C0.33 0 0.66 0 1 0 C0.35299955 9.86675685 -1.87379712 19.3678065 -4 29 C-4.33 29 -4.66 29 -5 29 C-5.08733513 25.91684615 -5.14050127 22.83401173 -5.1875 19.75 C-5.21263672 18.87730469 -5.23777344 18.00460938 -5.26367188 17.10546875 C-5.33854336 10.56669215 -5.33854336 10.56669215 -3.5625 7.59375 C-3.046875 7.0678125 -2.53125 6.541875 -2 6 C-1.27648573 4.01985568 -0.59734611 2.02178685 0 0 Z " fill="#6DDAE0" transform="translate(744,228)"/>
<path d="M0 0 C0.66 0 1.32 0 2 0 C2.48287493 4.75721225 0.90750448 7.63217559 -1.375 11.75 C-2.00148438 12.89984375 -2.62796875 14.0496875 -3.2734375 15.234375 C-5 18 -5 18 -7 19 C-8.32 18.01 -9.64 17.02 -11 16 C-10.67 14.35 -10.34 12.7 -10 11 C-7.69 11 -5.38 11 -3 11 C-2.87625 10.443125 -2.7525 9.88625 -2.625 9.3125 C-2 7 -2 7 -0.9375 4.375 C0.12238884 2.11550447 0.12238884 2.11550447 0 0 Z " fill="#6FD9DD" transform="translate(803,223)"/>
<path d="M0 0 C1.134375 0.020625 2.26875 0.04125 3.4375 0.0625 C-0.39377704 3.89377704 -6.11123762 4.16932821 -11.32421875 4.29296875 C-12.96620361 4.28904369 -14.60819504 4.2746206 -16.25 4.25 C-17.07822266 4.24935547 -17.90644531 4.24871094 -18.75976562 4.24804688 C-22.81749009 4.21880787 -26.60500292 4.07000944 -30.5625 3.0625 C-30.5625 2.7325 -30.5625 2.4025 -30.5625 2.0625 C-29.78011963 2.03744385 -28.99773926 2.0123877 -28.19165039 1.98657227 C-24.66925051 1.87100212 -21.1471444 1.74810051 -17.625 1.625 C-16.39330078 1.58568359 -15.16160156 1.54636719 -13.89257812 1.50585938 C-12.1378418 1.44301758 -12.1378418 1.44301758 -10.34765625 1.37890625 C-9.26363525 1.34224854 -8.17961426 1.30559082 -7.06274414 1.26782227 C-3.63238297 0.98611797 -3.84550743 0.06746504 0 0 Z " fill="#71D5D9" transform="translate(782.5625,284.9375)"/>
<path d="M0 0 C4.54606989 3.96030178 5.60980949 9.68077941 6.29296875 15.4921875 C6.51153658 22.00759054 4.97153938 27.82720408 3 34 C1.89629957 30.6888987 2.07326359 28.75251051 2.4375 25.3125 C2.53933594 24.31863281 2.64117188 23.32476562 2.74609375 22.30078125 C2.82988281 21.54152344 2.91367187 20.78226563 3 20 C3.66 20 4.32 20 5 20 C4.690625 19.195625 4.38125 18.39125 4.0625 17.5625 C2.81434483 13.37750913 2.3662304 9.33693899 2 5 C1.34 5 0.68 5 0 5 C0 3.35 0 1.7 0 0 Z " fill="#75D3D7" transform="translate(664,231)"/>
<path d="M0 0 C0.7314624 0.00128906 1.4629248 0.00257813 2.21655273 0.00390625 C8.66726092 0.11676719 14.60761196 1.32421254 20.75 3.3125 C20.75 3.6425 20.75 3.9725 20.75 4.3125 C17.875 4.9375 17.875 4.9375 14.75 5.3125 C14.09 4.6525 13.43 3.9925 12.75 3.3125 C8.74961977 2.1889585 4.82495904 2.14712545 0.6875 2.125 C-0.52035156 2.11082031 -1.72820312 2.09664062 -2.97265625 2.08203125 C-6.13315929 2.30428355 -7.54805073 2.84342311 -10.25 4.3125 C-12.390625 4.5078125 -12.390625 4.5078125 -14.5 4.4375 C-16.35625 4.375625 -16.35625 4.375625 -18.25 4.3125 C-13.72747951 -0.21002049 -6.0887201 -0.04510685 0 0 Z " fill="#6ED6D8" transform="translate(275.25,217.6875)"/>
<path d="M0 0 C5.12282759 -0.09945752 10.24508354 -0.17174409 15.36865234 -0.21972656 C17.10866089 -0.23974522 18.84860299 -0.26696886 20.58837891 -0.30175781 C23.10075346 -0.35070952 25.61223275 -0.37306587 28.125 -0.390625 C28.89303955 -0.41127014 29.6610791 -0.43191528 30.45239258 -0.45318604 C36.01665468 -0.45545729 40.37710211 0.81927721 45 4 C45.495 4.99 45.495 4.99 46 6 C45.01 6 44.02 6 43 6 C43 5.34 43 4.68 43 4 C36.51920127 2.62528512 30.15827161 1.8759664 23.53515625 1.68359375 C22.51789711 1.6524221 22.51789711 1.6524221 21.48008728 1.62062073 C19.34098169 1.55590691 17.20176704 1.4966091 15.0625 1.4375 C13.60090076 1.39424016 12.13931203 1.35062366 10.67773438 1.30664062 C7.1186016 1.20030749 3.55935003 1.0988267 0 1 C0 0.67 0 0.34 0 0 Z " fill="#62DADF" transform="translate(186,86)"/>
<path d="M0 0 C0.33 0 0.66 0 1 0 C1.02687279 1.81242052 1.04633715 3.62495233 1.0625 5.4375 C1.07410156 6.44683594 1.08570313 7.45617187 1.09765625 8.49609375 C1 11 1 11 0 12 C-0.59158576 15.79067056 -1.1484425 19.58065679 -1.63085938 23.38671875 C-2.54183353 29.54948381 -2.54183353 29.54948381 -5.10546875 32.0703125 C-5.73066406 32.37710938 -6.35585938 32.68390625 -7 33 C-6.74605469 31.87464844 -6.49210937 30.74929688 -6.23046875 29.58984375 C-4.02092637 19.75027346 -1.92722638 9.8989355 0 0 Z " fill="#75D9DA" transform="translate(480,233)"/>
<path d="M0 0 C1.3690722 3.78627683 0.64698489 6.64619028 -0.21484375 10.515625 C-0.48876953 11.76601562 -0.76269531 13.01640625 -1.04492188 14.3046875 C-1.34225535 15.61983522 -1.63978387 16.93493885 -1.9375 18.25 C-2.23193651 19.5805487 -2.52556547 20.91127637 -2.81835938 22.2421875 C-3.53764087 25.49664147 -4.2651448 28.74903351 -5 32 C-6.05284747 28.70354467 -5.93680928 26.20524788 -5.44140625 22.796875 C-5.30283203 21.8171875 -5.16425781 20.8375 -5.02148438 19.828125 C-4.87001953 18.81234375 -4.71855469 17.7965625 -4.5625 16.75 C-4.41490234 15.71875 -4.26730469 14.6875 -4.11523438 13.625 C-3.75030495 11.08226597 -3.37832478 8.54076963 -3 6 C-2.34 6 -1.68 6 -1 6 C-0.67 4.02 -0.34 2.04 0 0 Z " fill="#73D6D9" transform="translate(406,234)"/>
<path d="M0 0 C0.70842041 0.00273926 1.41684082 0.00547852 2.14672852 0.00830078 C7.7939805 0.12007667 13.24439024 0.77628021 18.375 3.3125 C18.705 3.9725 19.035 4.6325 19.375 5.3125 C18.67632812 5.21710938 17.97765625 5.12171875 17.2578125 5.0234375 C16.34773438 4.91257813 15.43765625 4.80171875 14.5 4.6875 C13.59507812 4.57148438 12.69015625 4.45546875 11.7578125 4.3359375 C10.97148437 4.32820312 10.18515625 4.32046875 9.375 4.3125 C8.715 4.9725 8.055 5.6325 7.375 6.3125 C7.045 4.9925 6.715 3.6725 6.375 2.3125 C0.435 2.3125 -5.505 2.3125 -11.625 2.3125 C-7.44845798 0.22422899 -4.52057878 -0.03485086 0 0 Z " fill="#73CFD2" transform="translate(340.625,217.6875)"/>
<path d="M0 0 C5.30504794 0.74023925 9.50549845 2.33577709 14.375 4.5 C17.97966378 6.07668012 17.97966378 6.07668012 21.8125 7.0625 C25 8 25 8 27 10 C26.67 10.99 26.34 11.98 26 13 C25.34 12.01 24.68 11.02 24 10 C21.85027137 8.99409445 21.85027137 8.99409445 19.31640625 8.28125 C18.38892578 7.98863281 17.46144531 7.69601562 16.50585938 7.39453125 C15.53455078 7.09933594 14.56324219 6.80414063 13.5625 6.5 C11.6445163 5.9147658 9.72901028 5.32133309 7.81640625 4.71875 C6.96506104 4.46029297 6.11371582 4.20183594 5.23657227 3.93554688 C2.88846569 2.95334576 1.64702371 1.91297562 0 0 Z " fill="#7ADBE0" transform="translate(751,256)"/>
<path d="M0 0 C3.08283443 -0.14554346 6.16478439 -0.23413821 9.25 -0.3125 C10.12269531 -0.35439453 10.99539063 -0.39628906 11.89453125 -0.43945312 C18.40172176 -0.56363615 18.40172176 -0.56363615 21.49609375 2.3515625 C21.99238281 3.22554687 22.48867188 4.09953125 23 5 C23.8971875 6.3303125 23.8971875 6.3303125 24.8125 7.6875 C25.204375 8.450625 25.59625 9.21375 26 10 C25.67 10.66 25.34 11.32 25 12 C24.01 11.34 23.02 10.68 22 10 C22 9.34 22 8.68 22 8 C21.34 8 20.68 8 20 8 C19.34 6.02 18.68 4.04 18 2 C12.06 1.67 6.12 1.34 0 1 C0 0.67 0 0.34 0 0 Z " fill="#6DD1D3" transform="translate(680,220)"/>
<path d="M0 0 C0.66 0.33 1.32 0.66 2 1 C4.50372052 1.20672922 6.99224513 1.37344041 9.5 1.5 C16.72972973 1.86486486 16.72972973 1.86486486 19 3 C18.67 4.65 18.34 6.3 18 8 C17.67 6.68 17.34 5.36 17 4 C10.73 4 4.46 4 -2 4 C-1.34 2.68 -0.68 1.36 0 0 Z " fill="#70DADD" transform="translate(506,235)"/>
<path d="M0 0 C0.66 0.33 1.32 0.66 2 1 C1.50628906 1.54269531 1.01257813 2.08539063 0.50390625 2.64453125 C-0.13675781 3.35996094 -0.77742188 4.07539063 -1.4375 4.8125 C-2.07558594 5.52019531 -2.71367187 6.22789062 -3.37109375 6.95703125 C-5.19086012 8.99896152 -5.19086012 8.99896152 -6 12 C-9.0625 13.6875 -9.0625 13.6875 -12 15 C-10.09418525 8.71081134 -5.45314686 3.5655191 0 0 Z " fill="#70DAD9" transform="translate(315,225)"/>
<path d="M0 0 C8.25 0 16.5 0 25 0 C24.34 3.63 23.68 7.26 23 11 C22.67 11 22.34 11 22 11 C22 8.03 22 5.06 22 2 C15.07 1.67 8.14 1.34 1 1 C0.67 2.32 0.34 3.64 0 5 C0 3.35 0 1.7 0 0 Z " fill="#69D5D7" transform="translate(440,220)"/>
<path d="M0 0 C0.66 0 1.32 0 2 0 C2 0.99 2 1.98 2 3 C2.66 3.33 3.32 3.66 4 4 C4.2475 4.680625 4.495 5.36125 4.75 6.0625 C6.51254469 10.20448003 9.22458809 13.48273271 12 17 C8.90989789 15.64891639 7.03089847 14.20982067 4.875 11.625 C4.12863281 10.74714844 4.12863281 10.74714844 3.3671875 9.8515625 C0.76282372 6.32450984 0 4.49495877 0 0 Z " fill="#6ED9DC" transform="translate(433,268)"/>
<path d="M0 0 C0.33 0 0.66 0 1 0 C0.69343615 6.62177926 -0.74288723 11.22125154 -4 17 C-4.66 15.68 -5.32 14.36 -6 13 C-5.34 12.67 -4.68 12.34 -4 12 C-2.84985628 8.54956883 -2 5.64717645 -2 2 C-1.34 1.34 -0.68 0.68 0 0 Z " fill="#6DD6D9" transform="translate(374,254)"/>
<path d="M0 0 C0.33 0.99 0.66 1.98 1 3 C4.01640055 4.25640258 4.01640055 4.25640258 7.5625 5.1875 C8.76003906 5.53167969 9.95757812 5.87585938 11.19140625 6.23046875 C12.58166016 6.61138672 12.58166016 6.61138672 14 7 C13.67 7.66 13.34 8.32 13 9 C10.4375 9.625 10.4375 9.625 8 10 C7.67 9.34 7.34 8.68 7 8 C5.865625 7.71125 4.73125 7.4225 3.5625 7.125 C0 6 0 6 -1.4375 3.875 C-1.623125 3.25625 -1.80875 2.6375 -2 2 C-1.34 1.34 -0.68 0.68 0 0 Z " fill="#76DBDC" transform="translate(265,238)"/>
<path d="M0 0 C0.33 0 0.66 0 1 0 C0.979375 1.051875 0.95875 2.10375 0.9375 3.1875 C0.87001107 6.85975123 0.87001107 6.85975123 1.625 9.8125 C1.74875 10.534375 1.8725 11.25625 2 12 C1.34 12.66 0.68 13.32 0 14 C-0.71408334 15.98356483 -1.38617742 17.98315437 -2 20 C-2.33 20 -2.66 20 -3 20 C-2.45136137 13.2142064 -1.45732062 6.64990964 0 0 Z " fill="#75D7DC" transform="translate(522,243)"/>
<path d="M0 0 C0.33 0 0.66 0 1 0 C1.125 6.75 1.125 6.75 0 9 C-0.2275015 10.87056791 -0.40962811 12.74685958 -0.5625 14.625 C-0.68818359 16.12933594 -0.68818359 16.12933594 -0.81640625 17.6640625 C-0.87699219 18.43492187 -0.93757813 19.20578125 -1 20 C-1.99 20 -2.98 20 -4 20 C-2.68 13.4 -1.36 6.8 0 0 Z " fill="#76D7DA" transform="translate(376,268)"/>
<path d="M0 0 C-0.5625 1.875 -0.5625 1.875 -2 4 C-5.625 5.25 -5.625 5.25 -9 6 C-9.66 5.01 -10.32 4.02 -11 3 C-9.73581754 2.30034557 -8.46334598 1.61565237 -7.1875 0.9375 C-6.47980469 0.55464844 -5.77210938 0.17179687 -5.04296875 -0.22265625 C-3 -1 -3 -1 0 0 Z " fill="#66DBDF" transform="translate(477,266)"/>
<path d="M0 0 C0.33 0 0.66 0 1 0 C1.04898438 0.67546875 1.09796875 1.3509375 1.1484375 2.046875 C1.22320313 2.93890625 1.29796875 3.8309375 1.375 4.75 C1.44460938 5.63171875 1.51421875 6.5134375 1.5859375 7.421875 C2.01054345 10.06564787 2.51739142 11.77608713 4 14 C5.69950428 15.10493335 5.69950428 15.10493335 7.625 15.75 C8.73875 16.1625 9.8525 16.575 11 17 C11 17.33 11 17.66 11 18 C3.02078282 17.23276758 3.02078282 17.23276758 0 14 C-0.390625 10.64453125 -0.390625 10.64453125 -0.25 6.8125 C-0.21390625 5.54019531 -0.1778125 4.26789063 -0.140625 2.95703125 C-0.09421875 1.98121094 -0.0478125 1.00539062 0 0 Z " fill="#74D6D9" transform="translate(616,252)"/>
<path d="M0 0 C1.24546405 2.49092811 0.7767578 3.41080733 0 6 C1.32 5.67 2.64 5.34 4 5 C4.33 6.32 4.66 7.64 5 9 C3.25 9.6875 3.25 9.6875 1 10 C-1.25 8.5625 -1.25 8.5625 -3 7 C-1.125 1.125 -1.125 1.125 0 0 Z " fill="#74DAE0" transform="translate(236,275)"/>
<path d="M0 0 C0.99 0.33 1.98 0.66 3 1 C4.25433458 4.76300374 4.10695422 8.27210909 4.0625 12.1875 C4.05798828 12.93708984 4.05347656 13.68667969 4.04882812 14.45898438 C4.03706354 16.30602383 4.01912865 18.15302213 4 20 C3.01 20.33 2.02 20.66 1 21 C1.16113281 20.46246094 1.32226562 19.92492187 1.48828125 19.37109375 C2.09593065 16.55549692 2.16934073 13.94256003 2.1875 11.0625 C2.20167969 10.04285156 2.21585937 9.02320313 2.23046875 7.97265625 C1.99444914 4.92840333 1.28252995 2.75262357 0 0 Z " fill="#7AD6DA" transform="translate(348,240)"/>
<path d="M0 0 C0.66 0 1.32 0 2 0 C2.625 2.375 2.625 2.375 3 5 C2.34 5.66 1.68 6.32 1 7 C0.38649958 9.1894648 -0.14559812 11.40231857 -0.625 13.625 C-0.88539063 14.81351563 -1.14578125 16.00203125 -1.4140625 17.2265625 C-1.60742188 18.14179688 -1.80078125 19.05703125 -2 20 C-2.33 20 -2.66 20 -3 20 C-2.45136137 13.2142064 -1.45732062 6.64990964 0 0 Z " fill="#7AD7D9" transform="translate(385,221)"/>
<path d="M0 0 C4.29 0.66 8.58 1.32 13 2 C13.33 2.99 13.66 3.98 14 5 C8.58609132 4.53328373 4.79482068 3.75702189 0 1 C0 0.67 0 0.34 0 0 Z " fill="#70D7DE" transform="translate(738,282)"/>
<path d="M0 0 C0.66 0 1.32 0 2 0 C2.5497272 5.63470383 0.95047835 8.38987758 -2 13 C-2.93423645 9.98968256 -3.04449911 9.13349732 -2 6 C-1.34 6 -0.68 6 0 6 C0 4.02 0 2.04 0 0 Z " fill="#6EDAE2" transform="translate(664,261)"/>
<path d="M0 0 C1.16045027 3.91651967 1.03629578 7.51187292 0.9375 11.5625 C0.99685074 13.87717903 1.34466777 15.78825372 2 18 C1.01 17.67 0.02 17.34 -1 17 C-1.02691685 14.54159395 -1.04679802 12.08348118 -1.0625 9.625 C-1.07087891 8.92632812 -1.07925781 8.22765625 -1.08789062 7.5078125 C-1.11328125 2.2265625 -1.11328125 2.2265625 0 0 Z " fill="#75D6DA" transform="translate(323,248)"/>
<path d="M0 0 C3.96670899 0.44074544 6.68811135 1.82361603 10 4 C9.01 5.485 9.01 5.485 8 7 C6 5.625 6 5.625 4 4 C4 3.34 4 2.68 4 2 C3.01 2.33 2.02 2.66 1 3 C0.34 2.34 -0.32 1.68 -1 1 C-0.67 0.67 -0.34 0.34 0 0 Z " fill="#68D6D9" transform="translate(786,247)"/>
<path d="M0 0 C0 3.92998307 -1.27858835 6.49342071 -3 10 C-3.99 10.66 -4.98 11.32 -6 12 C-5.57405412 10.55903414 -5.13373367 9.12231288 -4.6875 7.6875 C-4.44386719 6.88699219 -4.20023438 6.08648437 -3.94921875 5.26171875 C-2.95817977 2.90035427 -1.91925057 1.66120007 0 0 Z " fill="#75DADB" transform="translate(250,225)"/>
<path d="M0 0 C0.33 0 0.66 0 1 0 C1.82200425 6.24723226 -1.07448606 10.71317837 -4 16 C-5.35304209 11.94087374 -4.15216503 10.22850409 -2.5625 6.3125 C-2.08941406 5.13300781 -1.61632812 3.95351562 -1.12890625 2.73828125 C-0.75636719 1.83464844 -0.38382813 0.93101563 0 0 Z " fill="#80D9DD" transform="translate(168,109)"/>
<path d="M0 0 C0.33 0.66 0.66 1.32 1 2 C-0.98 4.64 -2.96 7.28 -5 10 C-5.33 8.68 -5.66 7.36 -6 6 C-4.75 4.4375 -4.75 4.4375 -3 3 C-2.1646875 2.1646875 -2.1646875 2.1646875 -1.3125 1.3125 C-0.879375 0.879375 -0.44625 0.44625 0 0 Z " fill="#72D8DA" transform="translate(294,272)"/>
<path d="M0 0 C1.58357459 0.31127516 3.16684993 0.62407289 4.75 0.9375 C5.63171875 1.11152344 6.5134375 1.28554688 7.421875 1.46484375 C9.63235053 1.92368488 11.81512068 2.43336074 14 3 C9.34462607 3.83796731 5.62921525 4.0161692 1 3 C0.67 2.01 0.34 1.02 0 0 Z " fill="#76D9DC" transform="translate(326,267)"/>
<path d="M0 0 C0 0.66 0 1.32 0 2 C-1.32 2.33 -2.64 2.66 -4 3 C-4 3.66 -4 4.32 -4 5 C-6.375 6.6875 -6.375 6.6875 -9 8 C-9.66 7.67 -10.32 7.34 -11 7 C-9.54634731 5.82750647 -8.08692581 4.66216184 -6.625 3.5 C-5.40683594 2.52546875 -5.40683594 2.52546875 -4.1640625 1.53125 C-2 0 -2 0 0 0 Z " fill="#70D3D5" transform="translate(613,224)"/>
<path d="M0 0 C-1.4096347 0.70180531 -2.82807641 1.38593958 -4.25 2.0625 C-5.03890625 2.44535156 -5.8278125 2.82820312 -6.640625 3.22265625 C-9.25993522 4.08564091 -10.44855176 3.93045933 -13 3 C-11.35 2.67 -9.7 2.34 -8 2 C-8 1.34 -8 0.68 -8 0 C-4.71303767 -0.79953138 -3.28976808 -1.09658936 0 0 Z " fill="#7ADBDE" transform="translate(231,147)"/>
<path d="M0 0 C0.66 0.33 1.32 0.66 2 1 C1.67 3.64 1.34 6.28 1 9 C0.71125 8.360625 0.4225 7.72125 0.125 7.0625 C-0.82823451 4.84793921 -0.82823451 4.84793921 -3 4 C-2.67 3.01 -2.34 2.02 -2 1 C-1.34 0.67 -0.68 0.34 0 0 Z " fill="#68DCDC" transform="translate(693,261)"/>
<path d="M0 0 C1.41623216 -0.05447047 2.83308191 -0.09300508 4.25 -0.125 C5.03890625 -0.14820313 5.8278125 -0.17140625 6.640625 -0.1953125 C9.20731941 0.0171622 10.7916067 0.71345895 13 2 C10.13533174 3.43233413 7.95418019 2.60763875 4.875 2.05859375 C4.25625 2.03925781 3.6375 2.01992187 3 2 C2.34 2.66 1.68 3.32 1 4 C0.67 2.68 0.34 1.36 0 0 Z " fill="#67D9D9" transform="translate(347,220)"/>
<path d="M0 0 C1.37562854 1.28965176 2.70766393 2.62689293 4 4 C4 4.66 4 5.32 4 6 C3.01 6.33 2.02 6.66 1 7 C0.34 7.66 -0.32 8.32 -1 9 C-0.835 8.071875 -0.67 7.14375 -0.5 6.1875 C0.07748388 3.04378647 0.07748388 3.04378647 0 0 Z " fill="#66DBDB" transform="translate(707,234)"/>
<path d="M0 0 C2.475 0.495 2.475 0.495 5 1 C5.66 2.98 6.32 4.96 7 7 C5.83040013 6.02433888 4.66438823 5.044375 3.5 4.0625 C2.8503125 3.51722656 2.200625 2.97195313 1.53125 2.41015625 C1.0259375 1.94480469 0.520625 1.47945313 0 1 C0 0.67 0 0.34 0 0 Z " fill="#6DD7D6" transform="translate(303,275)"/>
<path d="M0 0 C1.46224799 0.42423244 2.91973412 0.86490245 4.375 1.3125 C5.18710938 1.55613281 5.99921875 1.79976563 6.8359375 2.05078125 C9 3 9 3 11 6 C10.01 6 9.02 6 8 6 C8 5.34 8 4.68 8 4 C7.236875 3.896875 6.47375 3.79375 5.6875 3.6875 C2.77363954 2.94209384 1.97049603 2.15541061 0 0 Z " fill="#6FD5D5" transform="translate(221,86)"/>
<path d="M0 0 C0.66 0.99 1.32 1.98 2 3 C-1.87564767 6.61139896 -1.87564767 6.61139896 -4 8 C-6.375 7.8125 -6.375 7.8125 -8 7 C-7.236875 6.5875 -6.47375 6.175 -5.6875 5.75 C-3.0633358 4.04124191 -1.69678024 2.58982247 0 0 Z " fill="#74D6D4" transform="translate(348,261)"/>
<path d="M0 0 C1.98 1.65 3.96 3.3 6 5 C3 6 3 6 0 5 C0 3.35 0 1.7 0 0 Z " fill="#6FD6DA" transform="translate(658,225)"/>
<path d="M0 0 C2.0625 0.4375 2.0625 0.4375 4 1 C1.03 3.475 1.03 3.475 -2 6 C-1.125 1.125 -1.125 1.125 0 0 Z " fill="#6BDBDA" transform="translate(235,138)"/>
<path d="M0 0 C0.78375 0.04125 1.5675 0.0825 2.375 0.125 C2.375 1.115 2.375 2.105 2.375 3.125 C0.065 2.795 -2.245 2.465 -4.625 2.125 C-2.625 0.125 -2.625 0.125 0 0 Z " fill="#69DCDB" transform="translate(244.625,283.875)"/>
<path d="M0 0 C0.33 0.66 0.66 1.32 1 2 C1.99 2 2.98 2 4 2 C4.33 3.32 4.66 4.64 5 6 C4.01 6.33 3.02 6.66 2 7 C2 6.01 2 5.02 2 4 C1.01 3.67 0.02 3.34 -1 3 C-0.67 2.01 -0.34 1.02 0 0 Z " fill="#56E5EA" transform="translate(371,248)"/>
<path d="M0 0 C1.27875 -0.061875 2.5575 -0.12375 3.875 -0.1875 C4.95394531 -0.23970703 4.95394531 -0.23970703 6.0546875 -0.29296875 C6.69664062 -0.19628906 7.33859375 -0.09960938 8 0 C8.66 0.99 9.32 1.98 10 3 C6.28111761 2.49287967 3.26545761 1.88391785 0 0 Z " fill="#76DFDF" transform="translate(282,237)"/>
<path d="M0 0 C3.26460973 1.80412643 4.88929795 2.83394693 7 6 C5.35 5.67 3.7 5.34 2 5 C2 4.01 2 3.02 2 2 C1.34 2 0.68 2 0 2 C0 1.34 0 0.68 0 0 Z " fill="#70D6D8" transform="translate(361,223)"/>
<path d="M0 0 C0.99 0 1.98 0 3 0 C2.34 1.98 1.68 3.96 1 6 C0.67 6 0.34 6 0 6 C0 4.02 0 2.04 0 0 Z " fill="#0F0F0F" transform="translate(260,86)"/>
</svg>
