<?xml version="1.0" encoding="UTF-8"?>
<svg version="1.1" xmlns="http://www.w3.org/2000/svg" width="641" height="219">
<path d="M0 0 C1.2485686 0.00138269 1.2485686 0.00138269 2.5223608 0.00279331 C3.47453487 0.00141865 4.42670895 0.00004398 5.40773678 -0.00137234 C6.98729404 0.00402058 6.98729404 0.00402058 8.59876156 0.00952244 C10.25221081 0.0093034 10.25221081 0.0093034 11.93906307 0.00907993 C15.60226021 0.00977961 19.26540723 0.01757459 22.92859554 0.02539158 C25.46065398 0.02725556 27.99271277 0.02867956 30.52477169 0.0296793 C36.52067179 0.03311437 42.51655019 0.04100514 48.51244158 0.05102879 C55.33699987 0.06219105 62.16155901 0.06770066 68.98612416 0.07272422 C83.02815593 0.08318779 97.07017162 0.10078653 111.11218929 0.12304783 C114.29191166 6.95129312 117.45976482 13.76881495 120.32312679 20.73632908 C120.58098965 21.36162006 120.8388525 21.98691105 121.10452938 22.63115025 C121.90131967 24.56490425 122.69434931 26.5001714 123.48718929 28.43554783 C124.03771754 29.77354258 124.58849768 31.11143372 125.13953304 32.4492197 C126.46664197 35.67264633 127.7903919 38.8974389 129.11218929 42.12304783 C134.61858626 35.68066295 140.08370881 29.24245948 145.22937679 22.50586033 C148.090155 18.88537338 151.09882806 15.39131675 154.11804867 11.9023447 C154.5621307 11.38478611 155.00621273 10.86722752 155.46375179 10.33398533 C155.88963746 9.84713544 156.31552313 9.36028555 156.75431442 8.85868263 C158.15610986 7.18432303 158.15610986 7.18432303 159.02507973 5.3061676 C160.1805774 3.12422924 161.21294498 1.71684947 163.11218929 0.12304783 C167.26718018 -0.91769311 171.35060629 -0.761209 175.61341 -0.67162991 C177.51645145 -0.67316319 177.51645145 -0.67316319 179.45793819 -0.67472744 C182.92930342 -0.67673318 186.39897007 -0.63562888 189.869941 -0.58670974 C193.50001546 -0.54290194 197.13013041 -0.5388349 200.76042843 -0.53053188 C207.63133453 -0.50878885 214.50145949 -0.45136576 221.37202185 -0.38108546 C229.19533665 -0.30279926 237.01868907 -0.26434498 244.84229815 -0.22921741 C260.9327189 -0.15608086 277.02235436 -0.03298491 293.11218929 0.12304783 C292.50620041 9.66737272 290.38931035 17.44528333 288.11218929 27.12304783 C274.91218929 27.12304783 261.71218929 27.12304783 248.11218929 27.12304783 C247.46765804 30.55711033 246.82312679 33.99117283 246.15906429 37.52929783 C242.86682982 54.7896331 239.18901944 71.96947704 235.52674007 89.15429783 C234.54243107 93.77335295 233.56300424 98.39342875 232.5848341 103.01378727 C231.82502831 106.59999226 231.06264583 110.18564561 230.29946804 113.77113438 C229.93661875 115.47744923 229.57459656 117.1839402 229.21342373 118.89061069 C228.71389724 121.24926082 228.21088702 123.60714088 227.70691586 125.9648447 C227.5594038 126.66486607 227.41189175 127.36488743 227.25990963 128.08612156 C226.22645673 132.89451296 226.22645673 132.89451296 225.11218929 135.12304783 C216.20218929 135.12304783 207.29218929 135.12304783 198.11218929 135.12304783 C197.19212174 131.44277764 197.04751415 130.33852352 197.78244686 126.87255955 C197.95632427 126.03142612 198.13020168 125.1902927 198.30934811 124.32367039 C198.60693272 122.95205753 198.60693272 122.95205753 198.91052914 121.55273533 C199.21513813 120.09846134 199.21513813 120.09846134 199.52590084 118.61480808 C200.19992545 115.40738829 200.88643951 112.20277838 201.57312679 108.99804783 C202.04373221 106.77148024 202.5135809 104.54475259 202.98270321 102.31787205 C204.22065387 96.45201538 205.46930258 90.58848464 206.72003841 84.72534275 C207.99034579 78.760386 209.24984549 72.79314881 210.51062679 66.82617283 C212.35349957 58.11411328 214.19934012 49.40269318 216.05506039 40.69336033 C216.24940166 39.77895176 216.44374294 38.86454319 216.64397335 37.92242527 C216.91324894 36.66072514 216.91324894 36.66072514 217.18796444 35.37353611 C217.34320269 34.64498417 217.49844093 33.91643223 217.65838337 33.16580296 C218.1076721 31.14338147 218.60972191 29.13291736 219.11218929 27.12304783 C206.24218929 27.12304783 193.37218929 27.12304783 180.11218929 27.12304783 C180.11218929 25.14304783 180.11218929 23.16304783 180.11218929 21.12304783 C173.93744126 27.73637609 167.96923923 34.42336658 162.29187679 41.47461033 C160.13461531 44.09579902 157.89907929 46.61459064 155.61218929 49.12304783 C152.37448155 52.69136658 149.20753703 56.30518044 146.11218929 59.99804783 C145.36968929 60.8823447 144.62718929 61.76664158 143.86218929 62.67773533 C142.08980896 65.15432035 141.39582818 66.14563359 141.11218929 69.12304783 C141.93170668 71.58439699 142.81437993 73.83072767 143.87390804 76.18554783 C144.17617809 76.88164158 144.47844814 77.57773533 144.78987789 78.29492283 C145.44291475 79.79471245 146.1012488 81.29220439 146.7642889 82.78759861 C147.80420393 85.13323105 148.83008633 87.48455015 149.85242367 89.83789158 C151.92640584 94.60517893 154.01778883 99.36470262 156.11218929 104.12304783 C158.19002025 108.84594911 160.26235904 113.57106537 162.31790829 118.30371189 C163.1015183 120.09860545 163.89718215 121.88822095 164.69299984 123.67773533 C165.16133236 124.75281345 165.62966488 125.82789158 166.11218929 126.93554783 C166.73093929 128.3374033 166.73093929 128.3374033 167.36218929 129.76757908 C168.11218929 132.12304783 168.11218929 132.12304783 167.11218929 135.12304783 C163.16119001 135.14774632 159.21022055 135.16590706 155.25916195 135.17797947 C153.25312378 135.18548818 151.24710727 135.19819253 149.24109554 135.21093845 C147.35584164 135.21577244 147.35584164 135.21577244 145.43250179 135.22070408 C144.26992855 135.2259409 143.10735531 135.23117771 141.90955257 135.23657322 C139.11218929 135.12304783 139.11218929 135.12304783 137.11218929 134.12304783 C135.90527488 131.403846 134.80166532 128.70005547 133.74109554 125.92382908 C133.25660191 124.682122 133.25660191 124.682122 132.76232052 123.41532993 C131.72653562 120.75790344 130.70012777 118.09698204 129.67468929 115.43554783 C128.6514397 112.79253436 127.62618458 110.15033208 126.59776974 107.50932407 C125.95777113 105.86446747 125.32094658 104.21837126 124.68776608 102.57087803 C123.03079324 98.29846083 121.24170764 94.18930365 119.11218929 90.12304783 C112.74477879 97.5194125 106.5745813 105.00511913 100.66687679 112.77539158 C97.89484579 116.42114418 95.06962574 120.02412598 92.23718929 123.62304783 C91.78472836 124.19853367 91.33226742 124.77401951 90.86609554 125.36694431 C89.61683663 126.95392266 88.36458666 128.53854509 87.11218929 130.12304783 C86.62506466 131.00014912 86.13794003 131.8772504 85.63605404 132.78093052 C81.63997441 136.48924622 77.54522126 135.78140041 72.28504086 135.69067478 C71.18230328 135.69140491 70.0795657 135.69213505 68.94341183 135.69288731 C65.2960468 135.68940202 61.64995642 135.65049355 58.00281429 135.61132908 C55.47505039 135.60200438 52.94727746 135.59488665 50.4195013 135.58989048 C44.4447051 135.57274611 38.47045661 135.53333482 32.49587989 135.48314303 C25.69307932 135.42723531 18.89025676 135.39975961 12.08728361 135.37466586 C-1.90466799 135.32241782 -15.89621428 135.23448466 -29.88781071 135.12304783 C-31.01405333 131.74431995 -30.74224685 130.48136838 -30.01085758 127.05786228 C-29.79285999 126.01897861 -29.5748624 124.98009495 -29.35025883 123.90972996 C-29.10483845 122.78000767 -28.85941807 121.65028538 -28.60656071 120.48632908 C-28.23341488 118.72515751 -28.23341488 118.72515751 -27.85273075 116.92840672 C-27.17838242 113.75366612 -26.4970989 110.58051472 -25.81246662 107.40797901 C-25.10319349 104.11356487 -24.40270923 100.81728217 -23.70104313 97.52124119 C-20.65150206 83.21504349 -17.57226355 68.9146173 -14.41466618 54.63183689 C-12.74151884 47.06317899 -11.10922414 39.48701355 -9.50109196 31.90429783 C-9.08466955 29.94458101 -8.66824702 27.98486421 -8.25182438 26.02514744 C-7.63487174 23.12075818 -7.01924489 20.21611951 -6.40773869 17.31057835 C-5.84442319 14.63409281 -5.27667907 11.9585805 -4.70812321 9.28320408 C-4.53867695 8.47141697 -4.36923069 7.65962986 -4.1946497 6.82324314 C-2.77593479 0.18093591 -2.77593479 0.18093591 0 0 Z M82.11218929 6.12304783 C80.79218929 12.39304783 79.47218929 18.66304783 78.11218929 25.12304783 C49.40218929 25.61804783 49.40218929 25.61804783 20.11218929 26.12304783 C18.46218929 34.70304783 16.81218929 43.28304783 15.11218929 52.12304783 C30.95218929 52.45304783 46.79218929 52.78304783 63.11218929 53.12304783 C61.46218929 61.04304783 59.81218929 68.96304783 58.11218929 77.12304783 C41.94218929 77.45304783 25.77218929 77.78304783 9.11218929 78.12304783 C8.12218929 82.88742283 7.13218929 87.65179783 6.11218929 92.56054783 C5.79894711 94.06544773 5.48570492 95.57034763 5.16297054 97.12085056 C4.79752132 98.88344212 4.79752132 98.88344212 4.42468929 100.68164158 C4.04763851 102.49619846 4.04763851 102.49619846 3.66297054 104.34741306 C3.07974942 106.81490129 3.07974942 106.81490129 3.11218929 108.12304783 C22.25218929 108.12304783 41.39218929 108.12304783 61.11218929 108.12304783 C60.12218929 111.75304783 59.13218929 115.38304783 58.11218929 119.12304783 C58.11218929 120.77304783 58.11218929 122.42304783 58.11218929 124.12304783 C65.15688195 117.29850182 71.4005205 109.80993084 77.56922054 102.19726658 C80.47990543 98.67851235 83.478107 95.24502778 86.48718929 91.81054783 C91.35650614 86.24714289 96.01730764 80.56207825 100.51013851 74.6901865 C102.38212179 72.25588406 104.13821712 70.10087915 106.48328304 68.10351658 C108.43338389 66.20084329 108.43338389 66.20084329 107.89173031 63.42724705 C107.0366857 59.80301473 105.78460279 56.6767356 104.26843929 53.27539158 C103.84054104 52.30673664 103.84054104 52.30673664 103.40399837 51.31851292 C102.4797559 49.22963489 101.54616771 47.14508847 100.61218929 45.06054783 C99.65346357 42.90310857 98.6968764 40.74473042 97.74054623 38.58622837 C97.10351286 37.14863501 96.46569682 35.71138821 95.82709408 34.27449131 C93.92745626 29.99351871 92.06907524 25.69809419 90.25281429 21.38086033 C89.63696468 19.91725071 89.63696468 19.91725071 89.00867367 18.42407322 C88.2602099 16.63627124 87.51649887 14.84646998 86.77820492 13.05444431 C85.31557305 8.86060852 85.31557305 8.86060852 82.11218929 6.12304783 Z " fill="#000000" transform="translate(344.8878107070923,3.8769521713256836)"/>
<path d="M0 0 C0.93963593 -0.0033284 1.87927185 -0.0066568 2.84738159 -0.01008606 C4.84990956 -0.01516599 6.85244606 -0.01749406 8.85498047 -0.01733398 C11.86831501 -0.01948739 14.88126324 -0.03753791 17.89453125 -0.05664062 C48.87118045 -0.14916865 48.87118045 -0.14916865 62.6171875 7.79296875 C67.35250444 12.93417 70.52181529 19.59199736 70.93359375 26.6171875 C70.45644779 36.05889387 68.56634653 44.36041611 61.8046875 51.16796875 C61.19367188 51.79316406 60.58265625 52.41835938 59.953125 53.0625 C55.3859952 57.38398736 50.67595473 59.97983444 44.8046875 62.16796875 C45.76568359 62.57015625 45.76568359 62.57015625 46.74609375 62.98046875 C55.42706463 66.91342724 61.15917649 72.24018668 64.8046875 81.16796875 C66.72525089 93.05766505 64.8696959 105.12398222 57.78515625 114.9765625 C46.74197337 127.99243304 32.56454106 133.30289766 15.87650681 134.99837494 C9.60566368 135.51169006 3.31361841 135.40884812 -2.97265625 135.36328125 C-4.52063308 135.35953817 -6.06861233 135.35669735 -7.61659241 135.35470581 C-11.63600532 135.34717106 -15.65526721 135.32761364 -19.67462158 135.30529785 C-23.79803425 135.2846168 -27.92147199 135.27565715 -32.04492188 135.265625 C-40.09512039 135.24435506 -48.14519751 135.21034663 -56.1953125 135.16796875 C-57.60140983 130.72591072 -56.13995851 127.85689469 -54.3828125 123.73046875 C-51.03877472 115.53503958 -48.1024017 107.23641882 -45.2578125 98.85546875 C-42.07035959 89.48920543 -38.74549557 80.20405355 -35.16210938 70.98242188 C-32.11179775 63.07850818 -29.37170131 55.07710834 -26.63183594 47.0612793 C-23.67676178 38.45676117 -20.53968894 29.93147426 -17.28930664 21.43432617 C-15.0302164 15.50506702 -12.96182362 9.5408847 -11.02075195 3.49951172 C-9.22309672 -1.57815982 -4.67041108 0.00570993 0 0 Z M4.8046875 26.16796875 C4.17657325 28.62554199 3.5521638 31.08396662 2.9296875 33.54296875 C2.75566406 34.22230469 2.58164062 34.90164062 2.40234375 35.6015625 C1.01751486 41.08958811 -0.12529694 46.61051244 -1.1953125 52.16796875 C2.26285436 52.25644192 5.72072329 52.308846 9.1796875 52.35546875 C10.14519531 52.38060547 11.11070312 52.40574219 12.10546875 52.43164062 C20.21036504 52.51323354 29.31720275 51.51060325 35.8046875 46.16796875 C39.16287068 41.44835995 40.79407295 38.10428147 39.8046875 32.16796875 C37.09364871 28.70386363 35.11156603 26.89609981 30.8046875 26.16796875 C28.78000039 26.08705783 26.75284131 26.06037976 24.7265625 26.0703125 C22.98632812 26.07514648 22.98632812 26.07514648 21.2109375 26.08007812 C19.40109375 26.09264648 19.40109375 26.09264648 17.5546875 26.10546875 C15.72164062 26.11223633 15.72164062 26.11223633 13.8515625 26.11914062 C10.83588804 26.1309206 7.82031252 26.14737022 4.8046875 26.16796875 Z M-6.1953125 77.16796875 C-8.95120836 87.7835093 -11.29929689 98.36642528 -13.1953125 109.16796875 C9.84814726 110.88457714 9.84814726 110.88457714 30.296875 102.74609375 C33.69122426 98.87231662 34.94944577 95.79963746 34.9921875 90.73046875 C35.00636719 89.96863281 35.02054688 89.20679687 35.03515625 88.421875 C34.77256905 85.85386118 34.11508835 84.38375716 32.8046875 82.16796875 C25.47248418 76.99876541 17.42167046 77.50204641 8.8046875 77.41796875 C7.3476214 77.38976747 5.89058773 77.35983431 4.43359375 77.328125 C0.89077689 77.25475366 -2.65190631 77.20487923 -6.1953125 77.16796875 Z " fill="#000000" transform="translate(254.1953125,3.83203125)"/>
<path d="M0 0 C0.88602402 0.00222061 1.77204803 0.00444122 2.68492126 0.00672913 C3.68588333 0.00680466 4.6868454 0.00688019 5.71813965 0.00695801 C6.80666733 0.01211929 7.89519501 0.01728058 9.01670837 0.02259827 C10.67928932 0.02472069 10.67928932 0.02472069 12.37545776 0.02688599 C15.93168281 0.03250418 19.48784596 0.04505977 23.04405212 0.05775452 C25.44834809 0.06276717 27.85264504 0.06733048 30.25694275 0.07142639 C36.16516716 0.08247952 42.07335522 0.09923535 47.98155212 0.12025452 C47.40599546 4.05271599 46.58239328 7.63279027 45.23838806 11.3707428 C44.87953522 12.37655899 44.52068237 13.38237518 44.1509552 14.41867065 C43.75989594 15.49839645 43.36883667 16.57812225 42.96592712 17.69056702 C42.55851288 18.82793808 42.15109863 19.96530914 41.7313385 21.137146 C40.63074579 24.20643957 39.5256771 27.27407315 38.41840363 30.34096146 C37.26814446 33.53005042 36.1234694 36.72114269 34.97813416 39.91200256 C32.72347838 46.19043713 30.4622027 52.46646508 28.19920349 58.74189758 C26.79541699 62.63668388 25.39508201 66.53270149 23.99554443 70.42901611 C18.56396163 85.54901744 13.07002386 100.64270391 7.45152283 115.69447327 C4.35794629 124.01393648 1.41650682 132.3808244 -1.4200592 140.79139709 C-1.7193634 141.66949036 -2.0186676 142.54758362 -2.32704163 143.45228577 C-2.58283997 144.21259094 -2.83863831 144.97289612 -3.10218811 145.75624084 C-4.21472666 148.62666739 -5.64170603 151.36677082 -7.01844788 154.12025452 C-23.51844788 154.12025452 -40.01844788 154.12025452 -57.01844788 154.12025452 C-54.77095868 144.00655313 -54.77095868 144.00655313 -52.95204163 139.24916077 C-52.55364075 138.19382141 -52.15523987 137.13848206 -51.74476624 136.05116272 C-51.31945618 134.93958801 -50.89414612 133.82801331 -50.45594788 132.68275452 C-46.98570808 123.47600872 -43.63403945 114.24440078 -40.45594788 104.93275452 C-37.25875333 95.58651239 -33.90929562 86.31276975 -30.37562561 77.08827209 C-27.75937436 70.22522524 -25.32158161 63.30756472 -22.9066925 56.37191772 C-19.43553835 46.41789292 -15.86500944 36.50009628 -12.28211975 26.58583069 C-11.12117321 23.37107412 -9.96435593 20.15484816 -8.80751038 16.93861389 C-8.06817785 14.89099727 -7.32860415 12.84346772 -6.58876038 10.79603577 C-6.24402679 9.83587051 -5.89929321 8.87570526 -5.54411316 7.88644409 C-5.22642975 7.01009811 -4.90874634 6.13375214 -4.58143616 5.23085022 C-4.30276703 4.45844498 -4.0240979 3.68603973 -3.73698425 2.89022827 C-2.62721275 0.15652334 -2.62721275 0.15652334 0 0 Z " fill="#000000" transform="translate(61.01844787597656,62.87974548339844)"/>
<path d="M0 0 C15.24701452 -0.11697224 30.49400829 -0.20505603 45.74137115 -0.25906086 C52.82154876 -0.28480655 59.90144704 -0.31988669 66.98144531 -0.37719727 C73.81549216 -0.43249041 80.64924876 -0.46143188 87.48350525 -0.47438622 C90.08939681 -0.48361673 92.69527271 -0.50164181 95.30104065 -0.52865028 C98.95429645 -0.56500608 102.6063577 -0.56994229 106.25976562 -0.56762695 C107.87170303 -0.59459152 107.87170303 -0.59459152 109.51620483 -0.62210083 C116.24062204 -0.57605981 120.85879387 0.51643442 126 5 C130.73435674 10.24107844 131.8134152 15.06807218 131.4765625 22.09765625 C130.60602331 27.39938262 128.38696458 30.85902904 124.41495514 34.42169476 C118.19888373 38.82031012 112.39520979 38.67827948 104.97460938 38.56762695 C103.68596985 38.56835709 102.39733032 38.56908722 101.06964111 38.56983948 C97.55747558 38.57126668 94.04617406 38.54199194 90.5342083 38.50696969 C86.85606206 38.47558867 83.17789324 38.47276626 79.49963379 38.46684265 C72.54401441 38.45133847 65.58879073 38.41035706 58.63334513 38.3600952 C50.71075455 38.30409444 42.7881445 38.27668838 34.86540508 38.25161803 C18.57670556 38.19943762 2.28840338 38.11156284 -14 38 C-13.52221676 36.39458893 -13.04342646 34.78947755 -12.56420898 33.18449402 C-12.29769028 32.29061572 -12.03117157 31.39673742 -11.75657654 30.4757719 C-10.94981474 27.83577702 -10.05127975 25.25302717 -9.0625 22.67578125 C-8.72476563 21.79212891 -8.38703125 20.90847656 -8.0390625 19.99804688 C-7.69617188 19.11181641 -7.35328125 18.22558594 -7 17.3125 C-6.65710938 16.41466797 -6.31421875 15.51683594 -5.9609375 14.59179688 C-4.07520875 9.67954546 -2.07843299 4.83460531 0 0 Z " fill="#000000" transform="translate(79,5)"/>
<path d="M0 0 C6.27 0 12.54 0 19 0 C17.87788779 10.0990099 17.87788779 10.0990099 17.02734375 13.7890625 C16.85009766 14.58570313 16.67285156 15.38234375 16.49023438 16.203125 C16.11985637 17.82598267 15.7474395 19.44837629 15.37304688 21.0703125 C14.33145917 25.77081087 13.50818176 30.15652419 14 35 C17.4352048 37.29013653 18.985331 37.17842973 23 37 C25.46766215 29.42822972 27.14023876 21.8179095 28.625 14 C29.05211851 11.77033968 29.48167863 9.54114523 29.9140625 7.3125 C30.0992041 6.33925781 30.2843457 5.36601562 30.47509766 4.36328125 C31 2 31 2 32 0 C60.05 0.33 88.1 0.66 117 1 C115.87477062 11.12706442 115.87477062 11.12706442 115.16796875 14.75366211 C114.93267456 15.97423561 114.93267456 15.97423561 114.69262695 17.21946716 C114.52593506 18.06356644 114.35924316 18.90766571 114.1875 19.77734375 C114.01371826 20.66990372 113.83993652 21.56246368 113.66088867 22.48207092 C113.29620039 24.35045356 112.9297236 26.21848792 112.56152344 28.08618164 C111.99695056 30.95298452 111.43950618 33.82111095 110.8828125 36.68945312 C110.526462 38.51049897 110.16970583 40.33146549 109.8125 42.15234375 C109.64580811 43.01061264 109.47911621 43.86888153 109.30737305 44.75315857 C108.11525991 50.76948018 108.11525991 50.76948018 107 53 C101.06 53 95.12 53 89 53 C88.00256977 49.01027907 88.0819995 47.54936888 88.92578125 43.67578125 C89.25545898 42.13180664 89.25545898 42.13180664 89.59179688 40.55664062 C89.82962891 39.48607422 90.06746094 38.41550781 90.3125 37.3125 C90.6518457 35.7356543 90.6518457 35.7356543 90.99804688 34.12695312 C91.65546644 31.08236167 92.32511976 28.04076395 93 25 C93.30429932 23.62593994 93.30429932 23.62593994 93.61474609 22.22412109 C94.07509393 20.1491022 94.5373109 18.07449809 95 16 C90.38 16 85.76 16 81 16 C80.66226563 17.83304688 80.32453125 19.66609375 79.9765625 21.5546875 C79.52608041 23.99479882 79.07555741 26.43490259 78.625 28.875 C78.40328125 30.07898438 78.1815625 31.28296875 77.953125 32.5234375 C76.6897002 39.36079525 75.38350692 46.18590518 74 53 C67.73 53 61.46 53 55 53 C55.59832441 44.76788137 56.87389302 36.88659555 58.5625 28.8125 C58.91344727 27.09836914 58.91344727 27.09836914 59.27148438 25.34960938 C59.84232445 22.5653078 60.4204033 19.78249193 61 17 C56.71 17 52.42 17 48 17 C47.75765625 18.2065625 47.5153125 19.413125 47.265625 20.65625 C46.92766351 22.27095488 46.58908899 23.88553152 46.25 25.5 C46.01410156 26.68722656 46.01410156 26.68722656 45.7734375 27.8984375 C43.84851885 36.9307481 40.67931098 43.87166551 33.0546875 49.4140625 C25.18194993 54.19107953 16.89140535 53.94982372 8 53 C1.74964925 51.31893284 -1.82795882 47.63930611 -5.08422852 42.18334961 C-8.51270822 34.00929096 -5.35819836 23.21354229 -3.5625 14.9375 C-3.33240234 13.82439453 -3.10230469 12.71128906 -2.86523438 11.56445312 C-1.2025416 3.6076248 -1.2025416 3.6076248 0 0 Z " fill="#5EDFE4" transform="translate(330,164)"/>
<path d="M0 0 C-0.45020943 5.85272256 -3.03839227 10.08220119 -6 15 C-11.75 13.125 -11.75 13.125 -14 12 C-15.87379605 11.92966231 -17.75001102 11.9156978 -19.625 11.9375 C-21.12933594 11.95103516 -21.12933594 11.95103516 -22.6640625 11.96484375 C-23.82035156 11.98224609 -23.82035156 11.98224609 -25 12 C-25 12.66 -25 13.32 -25 14 C-23.91460938 14.27972656 -22.82921875 14.55945313 -21.7109375 14.84765625 C-7.29822161 18.78464929 -7.29822161 18.78464929 -3.7890625 23.98046875 C-1.95412442 28.67682018 -2.09497515 33.26375527 -3.66796875 38.01953125 C-6.43758666 43.57086147 -11.04471572 46.76138821 -16.65625 49.11328125 C-20.87649225 50.23243428 -24.77588342 50.38237138 -29.125 50.375 C-29.96015137 50.37556396 -30.79530273 50.37612793 -31.65576172 50.37670898 C-38.09814758 50.26301982 -47.16741728 49.83258272 -52 45 C-52.66 46.65 -53.32 48.3 -54 50 C-59.15439965 50.59703471 -63.86046511 50.85393717 -69 50 C-72.45073314 47.22921427 -74.10305792 43.94695152 -76 40 C-76.93088859 38.30884391 -77.86788429 36.62102715 -78.8125 34.9375 C-79.19019531 34.20402344 -79.56789063 33.47054687 -79.95703125 32.71484375 C-80.89445609 30.8311898 -80.89445609 30.8311898 -83 30 C-83.04898438 30.60585937 -83.09796875 31.21171875 -83.1484375 31.8359375 C-83.69929521 38.00934288 -84.7013584 43.93967253 -86 50 C-92.27 50 -98.54 50 -105 50 C-103.87486048 39.8737443 -103.87486048 39.8737443 -103.16796875 36.35400391 C-103.01110596 35.56353668 -102.85424316 34.77306946 -102.69262695 33.95864868 C-102.44258911 32.73001602 -102.44258911 32.73001602 -102.1875 31.4765625 C-102.01371826 30.60857025 -101.83993652 29.740578 -101.66088867 28.84628296 C-101.29626328 27.02915257 -100.9297863 25.2123928 -100.56152344 23.39599609 C-99.99747411 20.61253529 -99.43969514 17.82787132 -98.8828125 15.04296875 C-98.52640627 13.27075997 -98.16964804 11.49862194 -97.8125 9.7265625 C-97.64580811 8.89532867 -97.47911621 8.06409485 -97.30737305 7.20767212 C-96.66981489 4.0717423 -96.01302422 1.03907266 -95 -2 C-89.64383447 -3.16231511 -84.20109251 -4.18849623 -79 -2 C-73.60325897 3.19933249 -70.24330259 10.32656863 -67 17 C-66.72285156 15.71222656 -66.44570313 14.42445313 -66.16015625 13.09765625 C-65.79446528 11.41922846 -65.42856928 9.74084532 -65.0625 8.0625 C-64.88009766 7.21236328 -64.69769531 6.36222656 -64.50976562 5.48632812 C-64.24389648 4.27299805 -64.24389648 4.27299805 -63.97265625 3.03515625 C-63.81031494 2.2862915 -63.64797363 1.53742676 -63.48071289 0.76586914 C-63 -1 -63 -1 -62 -2 C-60.65732587 -2.08631874 -59.31025678 -2.10706473 -57.96484375 -2.09765625 C-57.15595703 -2.09443359 -56.34707031 -2.09121094 -55.51367188 -2.08789062 C-54.66353516 -2.07951172 -53.81339844 -2.07113281 -52.9375 -2.0625 C-52.08349609 -2.05798828 -51.22949219 -2.05347656 -50.34960938 -2.04882812 C-48.23304337 -2.03700373 -46.11651315 -2.01906769 -44 -2 C-44.33 1.63 -44.66 5.26 -45 9 C-44.505 8.113125 -44.01 7.22625 -43.5 6.3125 C-40.17532937 1.34311598 -35.2680869 -1.0474035 -29.875 -3.3125 C-19.62048563 -5.13184932 -9.41817663 -4.70908832 0 0 Z M-47 14 C-47.86832448 18.0804554 -48.71719228 22.1647197 -49.5625 26.25 C-49.9327832 27.98830078 -49.9327832 27.98830078 -50.31054688 29.76171875 C-50.53935547 30.87675781 -50.76816406 31.99179688 -51.00390625 33.140625 C-51.21861572 34.16704102 -51.4333252 35.19345703 -51.65454102 36.25097656 C-52.19767853 39.23383502 -52.19767853 39.23383502 -51 43 C-49.02 39.37 -47.04 35.74 -45 32 C-43.618125 32.495 -42.23625 32.99 -40.8125 33.5 C-34.53865714 35.41725757 -28.50211472 35.27516786 -22 35 C-22.33 34.01 -22.66 33.02 -23 32 C-26.03845897 30.83856685 -29.05923695 29.93761142 -32.18945312 29.0703125 C-37.16119515 27.5782991 -40.31129468 25.69979917 -44 22 C-45.24287124 19.28181213 -45.49357829 16.98788808 -46 14 C-46.33 14 -46.66 14 -47 14 Z " fill="#5FDFE4" transform="translate(604,167)"/>
<path d="M0 0 C12.06617954 0.114916 22.6485126 4.41339605 31.4375 12.5625 C39.45457791 20.98226219 42.17576877 30.7026836 42.11352539 42.17797852 C41.8142399 53.74370019 36.96178195 62.38253803 28.68359375 70.28515625 C16.41746215 80.6203047 3.26518987 79.81974082 -11.9375 79.5625 C-14.00714418 79.54240479 -16.07680719 79.52415937 -18.14648438 79.5078125 C-23.18146007 79.46405539 -28.21551942 79.3951941 -33.25 79.3125 C-31.8017232 71.87710249 -29.48002891 64.99184425 -26.85546875 57.89453125 C-26.42623611 56.71968674 -25.99700348 55.54484222 -25.55476379 54.33439636 C-24.41816563 51.22631321 -23.27678274 48.12004644 -22.13287354 45.01464844 C-20.98520623 41.89591064 -19.84344695 38.77501287 -18.70117188 35.65429688 C-17.38467966 32.05767405 -16.06750406 28.46131838 -14.74679565 24.86624146 C-12.13754722 17.76103169 -9.56929417 10.64411937 -7.08325195 3.49487305 C-5.58878232 -0.41929749 -4.02166693 0.10001528 0 0 Z " fill="#000000" transform="translate(111.25,136.6875)"/>
<path d="M0 0 C-0.45020943 5.85272256 -3.03839227 10.08220119 -6 15 C-11.75 13.125 -11.75 13.125 -14 12 C-15.87379605 11.92966231 -17.75001102 11.9156978 -19.625 11.9375 C-21.12933594 11.95103516 -21.12933594 11.95103516 -22.6640625 11.96484375 C-23.82035156 11.98224609 -23.82035156 11.98224609 -25 12 C-25 12.66 -25 13.32 -25 14 C-24.07058594 14.21914062 -23.14117187 14.43828125 -22.18359375 14.6640625 C-14.77126024 16.56545358 -9.40836443 18.3340944 -4 24 C-3.52820313 22.69675781 -3.52820313 22.69675781 -3.046875 21.3671875 C1.24306088 9.81537221 4.95183034 3.85630252 16 -2 C24.18130791 -5.49747062 34.75875939 -5.2328881 42.96875 -2.03515625 C48.54411331 0.80613467 52.78643764 4.84760969 55.34375 10.6015625 C57.47771945 18.40071276 57.00354121 27.87977798 53 35 C47.47085572 42.57447813 41.44619362 48.20149658 32 50 C22.22801046 50.71105953 13.16345813 51.25320893 5 45 C1.87207214 42.08804811 -0.15354816 38.83303619 -2 35 C-2.36351562 35.60328125 -2.72703125 36.2065625 -3.1015625 36.828125 C-7.55161479 43.90256711 -11.78610988 47.77520919 -20 50 C-23.2327103 50.33108685 -26.43944817 50.38047989 -29.6875 50.375 C-30.57219971 50.37483887 -31.45689941 50.37467773 -32.3684082 50.37451172 C-39.02382507 50.25857432 -45.16536924 49.46787164 -51 46 C-51.33 45.34 -51.66 44.68 -52 44 C-50.92325298 41.71741367 -49.80453884 39.5643566 -48.5625 37.375 C-48.22412109 36.76398438 -47.88574219 36.15296875 -47.53710938 35.5234375 C-46.69853808 34.011647 -45.85017423 32.50529601 -45 31 C-44.42894531 31.20496094 -43.85789063 31.40992188 -43.26953125 31.62109375 C-36.20413485 33.96873739 -29.41619434 34.66290026 -22 35 C-22.90494872 32.62012326 -22.90494872 32.62012326 -26.203125 31.81640625 C-27.54978049 31.39107645 -28.89888184 30.9734333 -30.25 30.5625 C-41.63873471 27.08443747 -41.63873471 27.08443747 -45 21.9375 C-46.87067537 16.97705745 -44.86574006 12.69544582 -43 8 C-42.62875 6.906875 -42.2575 5.81375 -41.875 4.6875 C-38.72584187 0.17370668 -33.88293573 -2.24874639 -28.6015625 -3.625 C-18.93128535 -5.01891382 -8.73808524 -4.63176901 0 0 Z M19 16 C17.1343553 19.06358498 16.70383064 21.42903319 16.6875 25 C16.67074219 25.845625 16.65398437 26.69125 16.63671875 27.5625 C17.07789712 30.52266451 17.93124722 31.85941553 20 34 C23.89901065 35.10349358 26.29405017 35.2076323 30.1875 34.0625 C33.978306 31.2825756 35.74227609 28.52311892 37 24 C37.27799177 19.80300223 37.01593885 16.34103928 34.4375 12.9375 C28.2213627 10.54667796 23.5583946 11.17346454 19 16 Z " fill="#5EDFE4" transform="translate(226,167)"/>
<path d="M0 0 C4.51651109 -0.12483978 9.03207334 -0.2149125 13.54980469 -0.2746582 C15.0822095 -0.29959759 16.61449792 -0.33356266 18.14648438 -0.37719727 C28.76232292 -0.6716967 37.00862915 -0.06962149 45.4375 7.0625 C46.2109375 8.0215625 46.2109375 8.0215625 47 9 C47.53625 9.639375 48.0725 10.27875 48.625 10.9375 C53.1365077 17.70476156 52.657359 25.18658103 52 33 C51.17816533 36.16430955 49.98826911 38.41998413 48 41 C47.525625 41.62390625 47.05125 42.2478125 46.5625 42.890625 C41.50302958 48.67982673 34.78108076 51.40954314 27.20767212 52.34484863 C24.34430562 52.45774721 21.50938183 52.45151828 18.64453125 52.390625 C17.61688156 52.38496521 16.58923187 52.37930542 15.53044128 52.37347412 C12.29062674 52.35131943 9.05197275 52.30116354 5.8125 52.25 C3.59832341 52.22990795 1.38412926 52.21166196 -0.83007812 52.1953125 C-6.22043922 52.15152382 -11.61013666 52.08482597 -17 52 C-18 50 -18 50 -16.8918457 46.36743164 C-16.32764222 44.79551177 -15.75497291 43.22661553 -15.17578125 41.66015625 C-14.87310837 40.8234288 -14.57043549 39.98670135 -14.2585907 39.12461853 C-13.28364872 36.43460879 -12.29823413 33.74857144 -11.3125 31.0625 C-10.6666245 29.28605917 -10.02143412 27.50936909 -9.37695312 25.73242188 C-7.85746026 21.54756268 -6.33017218 17.36561195 -4.79937744 13.18487549 C-3.70978507 10.20677836 -2.62596256 7.2265959 -1.54296875 4.24609375 C-1.23770264 3.40618896 -0.93243652 2.56628418 -0.61791992 1.70092773 C-0.41400635 1.13962158 -0.21009277 0.57831543 0 0 Z " fill="#5CE0E5" transform="translate(132,63)"/>
<path d="M0 0 C4.7916669 3.97872505 8.86971675 8.54724293 9.87890625 14.8515625 C10.41537394 24.36953764 8.41953946 32.05209798 3 40 C0.25535144 42.86111889 -2.59420891 44.98480873 -6 47 C-6.87011719 47.53753906 -6.87011719 47.53753906 -7.7578125 48.0859375 C-15.12875098 51.6887729 -26.06346422 51.2258954 -33.92578125 49.2734375 C-40.56263179 46.52946232 -45.24721476 41.94120282 -48.2734375 35.43359375 C-50.38066512 28.37551414 -49.86551057 19.97017559 -47.16015625 13.125 C-42.79917092 5.13720196 -36.48490806 0.10052105 -28 -3 C-18.53536892 -5.33974134 -8.56175216 -4.89055675 0 0 Z M-27 15 C-30.25474483 19.71376837 -30.94399104 24.42090691 -30 30 C-27.98614124 33.09824425 -26.61652188 33.79896026 -23.125 34.9375 C-19.15318729 35.01693625 -17.289179 34.21662063 -14 32 C-10.69513154 28.43422087 -9.70997217 25.62737019 -9.5 20.875 C-9.65396052 17.68031925 -9.89086542 16.19098552 -11.5 13.375 C-16.80974705 10.45463912 -22.46157107 11.10991806 -27 15 Z " fill="#60DFE4" transform="translate(493,167)"/>
<path d="M0 0 C0.74886475 0.00523682 1.49772949 0.01047363 2.26928711 0.01586914 C3.07817383 0.0190918 3.88706055 0.02231445 4.72045898 0.02563477 C5.5705957 0.03401367 6.42073242 0.04239258 7.29663086 0.05102539 C8.15063477 0.05553711 9.00463867 0.06004883 9.88452148 0.06469727 C12.00108749 0.07652166 14.11761771 0.0944577 16.23413086 0.11352539 C16.36521103 5.00445436 15.94157432 9.35988416 14.92163086 14.14086914 C14.51557617 16.06962891 14.51557617 16.06962891 14.10131836 18.03735352 C13.81240937 19.3752773 13.52334496 20.71316753 13.23413086 22.05102539 C12.94442235 23.41612283 12.65535393 24.78135627 12.36694336 26.14672852 C11.6622922 29.47033315 10.94905327 32.792115 10.23413086 36.11352539 C17.49413086 36.44352539 24.75413086 36.77352539 32.23413086 37.11352539 C30.35913086 49.86352539 30.35913086 49.86352539 29.23413086 52.11352539 C15.70413086 52.11352539 2.17413086 52.11352539 -11.76586914 52.11352539 C-11.11729893 44.9792531 -10.37637102 38.28223025 -8.95336914 31.32446289 C-8.7795874 30.45455719 -8.60580566 29.58465149 -8.42675781 28.68838501 C-8.06307891 26.87462424 -7.69660454 25.06142184 -7.32739258 23.2487793 C-6.76040087 20.46164526 -6.20394518 17.67254842 -5.64868164 14.88305664 C-5.29252371 13.11340193 -4.93577494 11.343866 -4.57836914 9.57446289 C-4.41167725 8.7391806 -4.24498535 7.90389832 -4.07324219 7.04330444 C-2.66460279 0.17130379 -2.66460279 0.17130379 0 0 Z " fill="#5DDFE4" transform="translate(290.765869140625,164.886474609375)"/>
<path d="M0 0 C0.66 0 1.32 0 2 0 C0.77344205 9.32946665 -0.78573765 18.54289247 -2.65942383 27.76367188 C-3.07048542 29.78935152 -3.47405758 31.81643194 -3.87695312 33.84375 C-5.86852679 43.73705357 -5.86852679 43.73705357 -7 46 C-12.94 46 -18.88 46 -25 46 C-25.99743023 42.01027907 -25.9180005 40.54936888 -25.07421875 36.67578125 C-24.85443359 35.64646484 -24.63464844 34.61714844 -24.40820312 33.55664062 C-24.17037109 32.48607422 -23.93253906 31.41550781 -23.6875 30.3125 C-23.46126953 29.26126953 -23.23503906 28.21003906 -23.00195312 27.12695312 C-22.34453356 24.08236167 -21.67488024 21.04076395 -21 18 C-20.79713379 17.08395996 -20.59426758 16.16791992 -20.38525391 15.22412109 C-19.92490607 13.1491022 -19.4626891 11.07449809 -19 9 C-23.62 9 -28.24 9 -33 9 C-33 8.34 -33 7.68 -33 7 C-30.68802845 6.80609271 -28.3753971 6.62003633 -26.0625 6.4375 C-24.77472656 6.33308594 -23.48695313 6.22867188 -22.16015625 6.12109375 C-21.11730469 6.08113281 -20.07445312 6.04117188 -19 6 C-17.26580841 7.73419159 -17.7864323 10.01297244 -17.75 12.375 C-17.79316729 17.61057557 -18.59923595 21.99609009 -20.1328125 26.9765625 C-21.8289368 32.89007694 -22.83696157 38.96327671 -24 45 C-18.72 45 -13.44 45 -8 45 C-7.86722656 43.64003906 -7.73445313 42.28007812 -7.59765625 40.87890625 C-7.41950273 39.10674751 -7.2411047 37.33461333 -7.0625 35.5625 C-6.97548828 34.66466797 -6.88847656 33.76683594 -6.79882812 32.84179688 C-6.71181641 31.98779297 -6.62480469 31.13378906 -6.53515625 30.25390625 C-6.456604 29.46314697 -6.37805176 28.6723877 -6.29711914 27.85766602 C-6 26 -6 26 -5 25 C-4.66941819 23.25693227 -4.38682879 21.50471226 -4.125 19.75 C-3.06762294 13.08532034 -1.58620424 6.55631087 0 0 Z " fill="#79D6DB" transform="translate(444,171)"/>
<path d="M0 0 C0.66 0 1.32 0 2 0 C1.7159949 2.06356895 1.42246648 4.1258285 1.125 6.1875 C0.96257812 7.33605469 0.80015625 8.48460937 0.6328125 9.66796875 C0.05685631 12.70062695 -0.86123184 15.15307959 -2 18 C-2.23806806 20.20862404 -2.23806806 20.20862404 -2.125 22.3125 C-2.08375 23.529375 -2.0425 24.74625 -2 26 C-2.99 26.33 -3.98 26.66 -5 27 C-4.97679687 27.66386719 -4.95359375 28.32773438 -4.9296875 29.01171875 C-4.82848719 33.96330524 -5.06829808 37.41220793 -7 42 C-7 44.64 -7 47.28 -7 50 C5.21 50 17.42 50 30 50 C30.66 47.03 31.32 44.06 32 41 C33 45 33 45 31 52 C17.47 52 3.94 52 -10 52 C-9.35142979 44.86572771 -8.61050188 38.16870486 -7.1875 31.2109375 C-7.01371826 30.3410318 -6.83993652 29.4711261 -6.66088867 28.57485962 C-6.29720977 26.76109885 -5.9307354 24.94789645 -5.56152344 23.13525391 C-4.99453173 20.34811987 -4.43807604 17.55902303 -3.8828125 14.76953125 C-3.52665457 12.99987654 -3.1699058 11.23034061 -2.8125 9.4609375 C-2.64580811 8.62565521 -2.47911621 7.79037292 -2.30737305 6.92977905 C-1.11556036 1.11556036 -1.11556036 1.11556036 0 0 Z " fill="#74D8DC" transform="translate(289,165)"/>
<path d="M0 0 C1.37697466 3.8249296 0.62083743 7.05883204 0 11 C6.29909196 10.90745612 12.59780882 10.80011542 18.89648438 10.68261719 C21.03802816 10.64439847 23.17963457 10.60953332 25.32128906 10.578125 C28.40452417 10.53232021 31.48733071 10.47435083 34.5703125 10.4140625 C35.52366486 10.40251129 36.47701721 10.39096008 37.45925903 10.37905884 C46.08012821 10.18883376 52.4063117 8.28744242 58.875 2.25 C59.24625 1.8375 59.6175 1.425 60 1 C60.99 1.495 60.99 1.495 62 2 C56.40516364 8.79782165 50.01297293 12.26135367 41.20864868 13.34289551 C38.34476511 13.45779264 35.50997004 13.45153078 32.64453125 13.390625 C31.61688156 13.38496521 30.58923187 13.37930542 29.53044128 13.37347412 C26.29062674 13.35131943 23.05197275 13.30116354 19.8125 13.25 C17.59832341 13.22990795 15.38412926 13.21166196 13.16992188 13.1953125 C7.77956078 13.15152382 2.38986334 13.08482597 -3 13 C-4 11 -4 11 -3.22265625 8.3984375 C-2.83980469 7.40070313 -2.45695312 6.40296875 -2.0625 5.375 C-1.68222656 4.37210937 -1.30195312 3.36921875 -0.91015625 2.3359375 C-0.60980469 1.56507812 -0.30945313 0.79421875 0 0 Z " fill="#78D5D9" transform="translate(118,102)"/>
<path d="M0 0 C0.33 0 0.66 0 1 0 C0.67 3.3 0.34 6.6 0 10 C-0.66 10 -1.32 10 -2 10 C-1.84402344 10.67546875 -1.68804687 11.3509375 -1.52734375 12.046875 C-1.23537109 13.38492188 -1.23537109 13.38492188 -0.9375 14.75 C-0.64166016 16.07257813 -0.64166016 16.07257813 -0.33984375 17.421875 C-0.00174128 19.98679028 -0.18841365 21.57091639 -1 24 C-1.495 23.01 -1.495 23.01 -2 22 C-2.36351562 22.60328125 -2.72703125 23.2065625 -3.1015625 23.828125 C-7.54308824 30.88901208 -11.78615488 34.80653 -20 37 C-23.33764234 37.28209995 -26.65225751 37.2795389 -30 37.25 C-31.31484375 37.26160156 -31.31484375 37.26160156 -32.65625 37.2734375 C-37.50301655 37.25883881 -41.45196119 36.8850424 -46 35 C-46 34.67 -46 34.34 -46 34 C-45.18732666 34.00523682 -44.37465332 34.01047363 -43.53735352 34.01586914 C-39.87907678 34.03656994 -36.22081233 34.04963803 -32.5625 34.0625 C-31.28310547 34.07087891 -30.00371094 34.07925781 -28.68554688 34.08789062 C-27.47060547 34.09111328 -26.25566406 34.09433594 -25.00390625 34.09765625 C-23.87799072 34.10289307 -22.7520752 34.10812988 -21.59204102 34.11352539 C-19.07029129 34.29545448 -19.07029129 34.29545448 -18 33 C-16.33382885 32.95936168 -14.66611905 32.957279 -13 33 C-13 32.34 -13 31.68 -13 31 C-12.01 31 -11.02 31 -10 31 C-8.58622659 28.36095629 -7.62759865 25.92879371 -7 23 C-6.34 23 -5.68 23 -5 23 C-5.02320313 22.15695313 -5.04640625 21.31390625 -5.0703125 20.4453125 C-5.08835938 19.34960938 -5.10640625 18.25390625 -5.125 17.125 C-5.14820313 16.03445312 -5.17140625 14.94390625 -5.1953125 13.8203125 C-5 11 -5 11 -3 9 C-2.40165446 7.47943382 -1.86493344 5.93387912 -1.375 4.375 C-1.11460937 3.55773437 -0.85421875 2.74046875 -0.5859375 1.8984375 C-0.39257812 1.27195313 -0.19921875 0.64546875 0 0 Z " fill="#75D9DD" transform="translate(226,180)"/>
<path d="M0 0 C4.51651109 -0.12483978 9.03207334 -0.2149125 13.54980469 -0.2746582 C15.0822095 -0.29959759 16.61449792 -0.33356266 18.14648438 -0.37719727 C27.42303084 -0.63454271 35.0390163 -0.43685906 43 5 C39.32642543 6.22452486 38.29521391 5.28629429 34.9291687 3.73641968 C31.75886654 2.52622334 28.68454964 2.55591465 25.31640625 2.48828125 C24.61603745 2.47033005 23.91566864 2.45237885 23.19407654 2.43388367 C20.98361011 2.38022445 18.77335388 2.34603068 16.5625 2.3125 C15.05270539 2.27928743 13.54293837 2.24479419 12.03320312 2.20898438 C8.35567067 2.12452605 4.67806409 2.0575045 1 2 C1 3.32 1 4.64 1 6 C0.34 6 -0.32 6 -1 6 C-0.87625 7.2065625 -0.87625 7.2065625 -0.75 8.4375 C-1.03029979 12.43177198 -2.14129948 14.97390285 -3.84375 18.54296875 C-5.75940652 22.61373885 -7.35686178 26.81349358 -9 31 C-10.31869792 27.04390625 -9.33490257 25.46930208 -7.91015625 21.58203125 C-7.68678085 20.96478683 -7.46340546 20.34754242 -7.23326111 19.71159363 C-6.5182389 17.74198243 -5.79057518 15.77731878 -5.0625 13.8125 C-4.57533174 12.47751983 -4.08899335 11.1422365 -3.60351562 9.80664062 C-2.41195111 6.53418873 -1.20900589 3.26605433 0 0 Z " fill="#74D3D6" transform="translate(132,63)"/>
<path d="M0 0 C2 1.375 2 1.375 4 4 C5.01079248 9.5885161 4.51073603 14.70630892 1.33203125 19.46875 C-2.59858303 23.98722741 -7.2303567 26.51770685 -13 28 C-16.29719623 28.22809225 -19.57204402 28.18966631 -22.875 28.125 C-23.75414062 28.11597656 -24.63328125 28.10695312 -25.5390625 28.09765625 C-27.6928271 28.07424577 -29.84645014 28.0383801 -32 28 C-32 27.67 -32 27.34 -32 27 C-31.05640625 26.97421875 -30.1128125 26.9484375 -29.140625 26.921875 C-21.29855972 26.57543838 -14.71305417 25.65366832 -7.29296875 22.83984375 C-5 22 -5 22 -3 22 C-1.79371992 19.66785852 -0.8345262 17.50357861 0 15 C0.66 15 1.32 15 2 15 C1.85879286 13.06215735 1.71187127 11.12473045 1.5625 9.1875 C1.48128906 8.10855469 1.40007813 7.02960938 1.31640625 5.91796875 C1.09787539 2.94010095 1.09787539 2.94010095 0 0 Z " fill="#75D7DA" transform="translate(597,189)"/>
<path d="M0 0 C0.33 0 0.66 0 1 0 C0.67 6.27 0.34 12.54 0 19 C4.62 19 9.24 19 14 19 C14 17.35 14 15.7 14 14 C14.81083203 11.23448363 15.91132941 8.67631519 17 6 C17.33 6 17.66 6 18 6 C17.85737588 7.5627962 17.71074489 9.12522696 17.5625 10.6875 C17.48128906 11.55761719 17.40007812 12.42773438 17.31640625 13.32421875 C17.01156391 15.90220641 16.50910741 18.45446295 16 21 C9.73 21 3.46 21 -3 21 C-2.45016222 13.85210884 -1.56307307 6.99589016 0 0 Z " fill="#72D7DC" transform="translate(388,196)"/>
<path d="M0 0 C1.58167969 0.02320313 1.58167969 0.02320313 3.1953125 0.046875 C5.875 0.25 5.875 0.25 7.875 1.25 C7.545 2.24 7.215 3.23 6.875 4.25 C5.885 3.59 4.895 2.93 3.875 2.25 C0.8580912 1.90938127 -1.21907815 1.67787893 -4.125 2.25 C-6.81605198 4.42574416 -8.58032928 6.16065856 -10.125 9.25 C-10.19565617 11.29055005 -10.20921976 13.33334257 -10.1875 15.375 C-10.17396484 17.01855469 -10.17396484 17.01855469 -10.16015625 18.6953125 C-10.14855469 19.53835937 -10.13695312 20.38140625 -10.125 21.25 C-10.785 21.25 -11.445 21.25 -12.125 21.25 C-13.97126633 17.55746735 -13.47240877 13.28862696 -13.125 9.25 C-10.59122843 2.28212818 -7.3839342 -0.18142344 0 0 Z " fill="#78D6DA" transform="translate(254.125,177.75)"/>
<path d="M0 0 C2.31 0.66 4.62 1.32 7 2 C5.1875 3.5625 5.1875 3.5625 3 5 C2.01 4.67 1.02 4.34 0 4 C0 4.66 0 5.32 0 6 C-0.66 6 -1.32 6 -2 6 C-2.185625 7.27875 -2.37125 8.5575 -2.5625 9.875 C-2.66691406 10.59429687 -2.77132812 11.31359375 -2.87890625 12.0546875 C-3.1684297 14.08140667 -3.1684297 14.08140667 -2 16 C-4.475 15.01 -4.475 15.01 -7 14 C-4.69 9.38 -2.38 4.76 0 0 Z " fill="#69D7DA" transform="translate(181,198)"/>
<path d="M0 0 C-5.53484163 4.90588235 -5.53484163 4.90588235 -8.0078125 5.40625 C-10.78170124 6.23297763 -11.53046652 7.69574482 -13.125 10.0625 C-14.6328125 12.28515625 -14.6328125 12.28515625 -16 14 C-16.66 14 -17.32 14 -18 14 C-16.6513881 9.86762236 -14.95618595 7.65268595 -11.6875 4.8125 C-10.92824219 4.13832031 -10.16898437 3.46414062 -9.38671875 2.76953125 C-3.3750824 -1.6875412 -3.3750824 -1.6875412 0 0 Z " fill="#72D6D8" transform="translate(465,166)"/>
<path d="M0 0 C0.66 0 1.32 0 2 0 C2.83819158 1.62249941 3.6704116 3.24808497 4.5 4.875 C4.9640625 5.77992188 5.428125 6.68484375 5.90625 7.6171875 C7 10 7 10 7 12 C7.99 12 8.98 12 10 12 C10 12.66 10 13.32 10 14 C11.98 14.66 13.96 15.32 16 16 C15.67 16.66 15.34 17.32 15 18 C7.26173184 14.58076523 3.06492475 9.75648553 0 2 C0 1.34 0 0.68 0 0 Z " fill="#81DADC" transform="translate(444,198)"/>
<path d="M0 0 C0.33 0 0.66 0 1 0 C1.47792208 7.16883117 1.47792208 7.16883117 -0.4375 10.5 C-4.10442849 12.64649473 -7.84267473 12.89085541 -12 12 C-14.4294516 8.3558226 -14.16179575 6.28758728 -14 2 C-13.67 2 -13.34 2 -13 2 C-12.34 4.31 -11.68 6.62 -11 9 C-8.23735711 9.59732819 -5.83967231 10 -3 10 C-2.01 6.7 -1.02 3.4 0 0 Z " fill="#78D5D6" transform="translate(356,191)"/>
<path d="M0 0 C2.58585205 -0.16236745 5.16151954 -0.28095486 7.75 -0.375 C8.84441406 -0.45041016 8.84441406 -0.45041016 9.9609375 -0.52734375 C12.109375 -0.5859375 12.109375 -0.5859375 16 0 C20 4.60869565 20 4.60869565 20 8 C16.52100842 6.60840337 15.51947499 5.36748512 14 2 C12.04174127 1.97305149 10.08337774 1.95362782 8.125 1.9375 C6.48917969 1.92009766 6.48917969 1.92009766 4.8203125 1.90234375 C2.04822454 1.80255697 2.04822454 1.80255697 0 3 C0 2.01 0 1.02 0 0 Z " fill="#5CD8DA" transform="translate(509,165)"/>
<path d="M0 0 C1.09570312 0.00902344 2.19140625 0.01804688 3.3203125 0.02734375 C4.16335938 0.03894531 5.00640625 0.05054688 5.875 0.0625 C5.875 0.3925 5.875 0.7225 5.875 1.0625 C2.245 1.3925 -1.385 1.7225 -5.125 2.0625 C-5.125 2.7225 -5.125 3.3825 -5.125 4.0625 C-1.825 5.0525 1.475 6.0425 4.875 7.0625 C4.875 7.3925 4.875 7.7225 4.875 8.0625 C3.27004433 7.94807539 1.66601881 7.82055306 0.0625 7.6875 C-0.83082031 7.61789063 -1.72414063 7.54828125 -2.64453125 7.4765625 C-5.125 7.0625 -5.125 7.0625 -8.125 5.0625 C-8.125 3.7425 -8.125 2.4225 -8.125 1.0625 C-5.36047967 -0.31976016 -3.0788637 -0.03275387 0 0 Z " fill="#72D8DB" transform="translate(584.125,176.9375)"/>
<path d="M0 0 C16.25490532 -0.74260989 16.25490532 -0.74260989 22.6640625 4.3125 C24.0625 5.6875 24.0625 5.6875 26 8 C23.12715572 7.54034492 21.63204897 6.74652262 19.1875 5.0625 C13.56535845 1.65701779 6.41681688 1.62764232 0 1 C0 0.67 0 0.34 0 0 Z " fill="#76CDCF" transform="translate(250,163)"/>
<path d="M0 0 C4.29 0 8.58 0 13 0 C13 0.33 13 0.66 13 1 C9.37 1.33 5.74 1.66 2 2 C2 2.66 2 3.32 2 4 C5.3 4.99 8.6 5.98 12 7 C12 7.33 12 7.66 12 8 C10.58249437 7.88490339 9.16598831 7.75746342 7.75 7.625 C6.96109375 7.55539063 6.1721875 7.48578125 5.359375 7.4140625 C2.914123 6.98492887 1.15163097 6.21399362 -1 5 C-0.67 3.35 -0.34 1.7 0 0 Z " fill="#71D9DB" transform="translate(199,177)"/>
<path d="M0 0 C1.32 0 2.64 0 4 0 C4 0.66 4 1.32 4 2 C4.928125 1.7215625 4.928125 1.7215625 5.875 1.4375 C8 1 8 1 10 2 C10 2.66 10 3.32 10 4 C12.64 4.33 15.28 4.66 18 5 C18 5.66 18 6.32 18 7 C11.29119838 5.95518663 5.9435884 4.30199356 0 1 C0 0.67 0 0.34 0 0 Z " fill="#6DDADF" transform="translate(563,192)"/>
<path d="M0 0 C2.64 0 5.28 0 8 0 C7.34 1.98 6.68 3.96 6 6 C5.34 6 4.68 6 4 6 C3.67 6.99 3.34 7.98 3 9 C2.01 6.03 1.02 3.06 0 0 Z " fill="#61D7E0" transform="translate(423,165)"/>
<path d="M0 0 C-2.34421119 1.1721056 -4.68944361 2.32361639 -7.0625 3.4375 C-9.94927866 4.76561564 -9.94927866 4.76561564 -11.5 6.625 C-13.7375647 8.67610097 -16.0584698 8.67316331 -19 9 C-14.46137879 3.42987397 -7.21139395 -0.46441893 0 0 Z " fill="#6FD6D7" transform="translate(250,164)"/>
<path d="M0 0 C0.66 0 1.32 0 2 0 C1.52319861 2.43798448 1.04365871 4.87537516 0.5625 7.3125 C0.42779297 8.00279297 0.29308594 8.69308594 0.15429688 9.40429688 C-0.42774332 12.34289007 -1.05152228 15.15456685 -2 18 C-2.66 18 -3.32 18 -4 18 C-3.5256323 15.18661171 -3.04575381 12.37436287 -2.5625 9.5625 C-2.42779297 8.76005859 -2.29308594 7.95761719 -2.15429688 7.13085938 C-1.11328125 1.11328125 -1.11328125 1.11328125 0 0 Z " fill="#74D3D9" transform="translate(542,165)"/>
<path d="M0 0 C-0.8125 2.9375 -0.8125 2.9375 -2 6 C-5 7 -5 7 -8.1875 5.5625 C-9.115625 5.046875 -10.04375 4.53125 -11 4 C-7.98968256 3.06576355 -7.13349732 2.95550089 -4 4 C-4 3.01 -4 2.02 -4 1 C-2 0 -2 0 0 0 Z " fill="#79D7DB" transform="translate(223,175)"/>
<path d="M0 0 C0.68359375 1.640625 0.68359375 1.640625 1 4 C-0.21484375 6.796875 -0.21484375 6.796875 -1.9375 9.75 C-2.50339844 10.73484375 -3.06929687 11.7196875 -3.65234375 12.734375 C-4.09707031 13.48203125 -4.54179688 14.2296875 -5 15 C-5.99 14.67 -6.98 14.34 -8 14 C-7.34 13.67 -6.68 13.34 -6 13 C-6 12.34 -6 11.68 -6 11 C-5.34 11 -4.68 11 -4 11 C-3.896875 10.484375 -3.79375 9.96875 -3.6875 9.4375 C-2.75736134 6.13973565 -1.38604488 3.13366668 0 0 Z " fill="#7AD2D5" transform="translate(603,167)"/>
<path d="M0 0 C0.33 0 0.66 0 1 0 C1 2.31 1 4.62 1 7 C1.66 7.33 2.32 7.66 3 8 C2.34 9.32 1.68 10.64 1 12 C1.66 12 2.32 12 3 12 C2.67 12.99 2.34 13.98 2 15 C-0.87511449 12.12488551 -0.83614951 8.89517306 -1 5 C-0.5625 2 -0.5625 2 0 0 Z " fill="#6DE0E7" transform="translate(559,176)"/>
<path d="M0 0 C0.33 0.99 0.66 1.98 1 3 C0.67 3.598125 0.34 4.19625 0 4.8125 C-1.37075926 7.81103588 -0.71524148 9.85293749 0 13 C-2.475 12.01 -2.475 12.01 -5 11 C-3.35 7.37 -1.7 3.74 0 0 Z " fill="#78D4D9" transform="translate(179,201)"/>
<path d="M0 0 C3.27286682 2.7819368 4.96427697 6.27954067 7 10 C6.01 10 5.02 10 4 10 C4 9.01 4 8.02 4 7 C3.01 7 2.02 7 1 7 C0.67 4.69 0.34 2.38 0 0 Z " fill="#6DCED3" transform="translate(529,173)"/>
<path d="M0 0 C0.99 0 1.98 0 3 0 C4.75 2.25 4.75 2.25 6 5 C5.67 6.32 5.34 7.64 5 9 C3.35 6.03 1.7 3.06 0 0 Z " fill="#73D6DA" transform="translate(524,199)"/>
<path d="M0 0 C0.33 0 0.66 0 1 0 C0.43393721 4.69023454 -0.18537505 9.34500026 -1 14 C-1.33 14 -1.66 14 -2 14 C-2.05437607 12.41705218 -2.09296271 10.83355744 -2.125 9.25 C-2.14820313 8.36828125 -2.17140625 7.4865625 -2.1953125 6.578125 C-1.99139502 3.8864142 -1.36551721 2.30095026 0 0 Z " fill="#6EDCE0" transform="translate(425,185)"/>
<path d="M0 0 C0.66 0 1.32 0 2 0 C1.67 1.32 1.34 2.64 1 4 C0.01 4 -0.98 4 -2 4 C-2.33 4.99 -2.66 5.98 -3 7 C-3.66 6.67 -4.32 6.34 -5 6 C-3.38405168 3.95880212 -1.7143618 1.95927063 0 0 Z " fill="#75D4D5" transform="translate(565,168)"/>
<path d="M0 0 C2.79872437 2.52788007 4.45773019 4.20411134 5 8 C3.0625 7.375 3.0625 7.375 1 6 C0.25 2.875 0.25 2.875 0 0 Z " fill="#71D3D8" transform="translate(524,165)"/>
<path d="M0 0 C0 0.99 0 1.98 0 3 C-0.66 3 -1.32 3 -2 3 C-2.33 3.99 -2.66 4.98 -3 6 C-3.99 6 -4.98 6 -6 6 C-4.95125002 3.37812506 -4.35068687 2.20628639 -1.875 0.75 C-1.25625 0.5025 -0.6375 0.255 0 0 Z " fill="#6FD7D7" transform="translate(191,166)"/>
<path d="M0 0 C0.99 0.495 0.99 0.495 2 1 C2 1.66 2 2.32 2 3 C2.99 3 3.98 3 5 3 C5.33 4.65 5.66 6.3 6 8 C1.2 4.55384615 1.2 4.55384615 0.1875 1.75 C0.125625 1.1725 0.06375 0.595 0 0 Z " fill="#75D6D5" transform="translate(226,204)"/>
<path d="M0 0 C0.66 0 1.32 0 2 0 C2.99 2.64 3.98 5.28 5 8 C4.01 7.67 3.02 7.34 2 7 C0.8125 3.4375 0.8125 3.4375 0 0 Z " fill="#71D9DA" transform="translate(444,198)"/>
<path d="M0 0 C2.1875 -0.3125 2.1875 -0.3125 5 0 C7.8125 2.5 7.8125 2.5 10 5 C6.33118845 4.29445932 3.29549466 2.72264494 0 1 C0 0.67 0 0.34 0 0 Z " fill="#77D6D8" transform="translate(266,166)"/>
<path d="M0 0 C0.66 0.33 1.32 0.66 2 1 C1.42415568 3.38564077 0.77772405 5.66682784 0 8 C-0.66 8 -1.32 8 -2 8 C-1.125 2.25 -1.125 2.25 0 0 Z " fill="#71D9DC" transform="translate(121,94)"/>
<path d="M0 0 C0.99 0 1.98 0 3 0 C2.34 1.65 1.68 3.3 1 5 C0.34 5 -0.32 5 -1 5 C-0.67 3.35 -0.34 1.7 0 0 Z " fill="#0F0F0F" transform="translate(195,64)"/>
</svg>
