<svg width="233" height="45" viewBox="0 0 233 45" fill="none" xmlns="http://www.w3.org/2000/svg">
<g filter="url(#filter0_d_7_1004)">
<path d="M64.2427 30.384C62.6001 30.384 61.1494 30.1067 59.8907 29.552C58.6321 28.976 57.6401 28.1653 56.9147 27.12C56.1894 26.0533 55.8161 24.7627 55.7947 23.248H60.1147C60.1574 24.2933 60.5308 25.1787 61.2347 25.904C61.9601 26.608 62.9521 26.96 64.2107 26.96C65.2987 26.96 66.1628 26.704 66.8027 26.192C67.4427 25.6587 67.7627 24.9547 67.7627 24.08C67.7627 23.1627 67.4747 22.448 66.8987 21.936C66.3441 21.424 65.5974 21.008 64.6587 20.688C63.7201 20.368 62.7174 20.0267 61.6507 19.664C59.9227 19.0667 58.6001 18.2987 57.6827 17.36C56.7867 16.4213 56.3387 15.1733 56.3387 13.616C56.3174 12.2933 56.6267 11.1627 57.2667 10.224C57.9281 9.264 58.8241 8.528 59.9547 8.016C61.0854 7.48267 62.3867 7.216 63.8587 7.216C65.3521 7.216 66.6641 7.48267 67.7947 8.016C68.9467 8.54933 69.8428 9.296 70.4827 10.256C71.1441 11.216 71.4961 12.3573 71.5387 13.68H67.1547C67.1334 12.8907 66.8241 12.1973 66.2267 11.6C65.6507 10.9813 64.8401 10.672 63.7947 10.672C62.8987 10.6507 62.1414 10.8747 61.5227 11.344C60.9254 11.792 60.6267 12.4533 60.6267 13.328C60.6267 14.0747 60.8614 14.672 61.3307 15.12C61.8001 15.5467 62.4401 15.9093 63.2507 16.208C64.0614 16.5067 64.9894 16.8267 66.0347 17.168C67.1441 17.552 68.1574 18 69.0747 18.512C69.9921 19.024 70.7281 19.7067 71.2827 20.56C71.8374 21.392 72.1147 22.4693 72.1147 23.792C72.1147 24.9653 71.8161 26.0533 71.2188 27.056C70.6214 28.0587 69.7361 28.8693 68.5627 29.488C67.3894 30.0853 65.9494 30.384 64.2427 30.384Z" fill="white"/>
<path d="M80.9045 30.384C78.9205 30.384 77.3845 29.7653 76.2965 28.528C75.2298 27.2907 74.6965 25.4773 74.6965 23.088V14.128H78.7605V22.704C78.7605 24.0693 79.0378 25.1147 79.5925 25.84C80.1472 26.5653 81.0218 26.928 82.2165 26.928C83.3472 26.928 84.2752 26.5227 85.0005 25.712C85.7472 24.9013 86.1205 23.7707 86.1205 22.32V14.128H90.2165V30H86.6005L86.2805 27.312C85.7898 28.2507 85.0752 28.9973 84.1365 29.552C83.2192 30.1067 82.1418 30.384 80.9045 30.384Z" fill="white"/>
<path d="M100.341 30.384C98.9333 30.384 97.6959 30.16 96.6292 29.712C95.5626 29.2427 94.7092 28.6027 94.0692 27.792C93.4292 26.9813 93.0452 26.0427 92.9173 24.976H97.0452C97.1732 25.5947 97.5146 26.128 98.0693 26.576C98.6452 27.0027 99.3813 27.216 100.277 27.216C101.173 27.216 101.824 27.0347 102.229 26.672C102.656 26.3093 102.869 25.8933 102.869 25.424C102.869 24.7413 102.571 24.2827 101.973 24.048C101.376 23.792 100.544 23.5467 99.4772 23.312C98.7946 23.1627 98.1012 22.9813 97.3972 22.768C96.6932 22.5547 96.0426 22.288 95.4453 21.968C94.8693 21.6267 94.3999 21.2 94.0372 20.688C93.6746 20.1547 93.4932 19.504 93.4932 18.736C93.4932 17.328 94.0479 16.144 95.1572 15.184C96.2879 14.224 97.8666 13.744 99.8932 13.744C101.771 13.744 103.264 14.1813 104.373 15.056C105.504 15.9307 106.176 17.136 106.389 18.672H102.517C102.283 17.4987 101.397 16.912 99.8613 16.912C99.0933 16.912 98.4959 17.0613 98.0693 17.36C97.6639 17.6587 97.4613 18.032 97.4613 18.48C97.4613 18.9493 97.7706 19.3227 98.3893 19.6C99.0079 19.8773 99.8292 20.1333 100.853 20.368C101.963 20.624 102.976 20.912 103.893 21.232C104.832 21.5307 105.579 21.9893 106.133 22.608C106.688 23.2053 106.965 24.0693 106.965 25.2C106.987 26.1813 106.731 27.0667 106.197 27.856C105.664 28.6453 104.896 29.264 103.893 29.712C102.891 30.16 101.707 30.384 100.341 30.384Z" fill="white"/>
<path d="M116.526 30C114.862 30 113.528 29.5947 112.526 28.784C111.523 27.9733 111.022 26.5333 111.022 24.464V17.552H108.302V14.128H111.022L111.502 9.872H115.118V14.128H119.406V17.552H115.118V24.496C115.118 25.264 115.278 25.7973 115.598 26.096C115.939 26.3733 116.515 26.512 117.326 26.512H119.31V30H116.526Z" fill="white"/>
<path d="M127.755 30.384C126.389 30.384 125.269 30.1707 124.395 29.744C123.52 29.296 122.869 28.7093 122.442 27.984C122.016 27.2587 121.802 26.4587 121.802 25.584C121.802 24.112 122.379 22.9173 123.531 22C124.683 21.0827 126.41 20.624 128.715 20.624H132.747V20.24C132.747 19.152 132.437 18.352 131.818 17.84C131.2 17.328 130.432 17.072 129.514 17.072C128.682 17.072 127.957 17.2747 127.339 17.68C126.72 18.064 126.336 18.64 126.187 19.408H122.187C122.293 18.256 122.677 17.2533 123.339 16.4C124.021 15.5467 124.896 14.896 125.963 14.448C127.029 13.9787 128.224 13.744 129.547 13.744C131.808 13.744 133.589 14.3093 134.891 15.44C136.192 16.5707 136.842 18.1707 136.842 20.24V30H133.354L132.971 27.44C132.501 28.2933 131.84 28.9973 130.986 29.552C130.154 30.1067 129.077 30.384 127.755 30.384ZM128.683 27.184C129.856 27.184 130.762 26.8 131.402 26.032C132.064 25.264 132.48 24.3147 132.65 23.184H129.162C128.075 23.184 127.296 23.3867 126.826 23.792C126.357 24.176 126.122 24.656 126.122 25.232C126.122 25.8507 126.357 26.3307 126.826 26.672C127.296 27.0133 127.915 27.184 128.683 27.184Z" fill="white"/>
<path d="M142.319 11.664C141.573 11.664 140.954 11.44 140.463 10.992C139.994 10.544 139.759 9.97867 139.759 9.296C139.759 8.61333 139.994 8.05867 140.463 7.632C140.954 7.184 141.573 6.96 142.319 6.96C143.066 6.96 143.674 7.184 144.143 7.632C144.634 8.05867 144.879 8.61333 144.879 9.296C144.879 9.97867 144.634 10.544 144.143 10.992C143.674 11.44 143.066 11.664 142.319 11.664ZM140.271 30V14.128H144.367V30H140.271Z" fill="white"/>
<path d="M148.003 30V14.128H151.618L151.939 16.816C152.429 15.8773 153.133 15.1307 154.051 14.576C154.989 14.0213 156.088 13.744 157.346 13.744C159.309 13.744 160.835 14.3627 161.923 15.6C163.01 16.8373 163.555 18.6507 163.555 21.04V30H159.458V21.424C159.458 20.0587 159.181 19.0133 158.626 18.288C158.072 17.5627 157.208 17.2 156.035 17.2C154.883 17.2 153.933 17.6053 153.187 18.416C152.461 19.2267 152.098 20.3573 152.098 21.808V30H148.003Z" fill="white"/>
<path d="M172.303 30.384C170.938 30.384 169.818 30.1707 168.943 29.744C168.069 29.296 167.418 28.7093 166.991 27.984C166.565 27.2587 166.351 26.4587 166.351 25.584C166.351 24.112 166.927 22.9173 168.079 22C169.231 21.0827 170.959 20.624 173.263 20.624H177.295V20.24C177.295 19.152 176.986 18.352 176.367 17.84C175.749 17.328 174.981 17.072 174.063 17.072C173.231 17.072 172.506 17.2747 171.887 17.68C171.269 18.064 170.885 18.64 170.735 19.408H166.735C166.842 18.256 167.226 17.2533 167.887 16.4C168.57 15.5467 169.445 14.896 170.511 14.448C171.578 13.9787 172.773 13.744 174.095 13.744C176.357 13.744 178.138 14.3093 179.439 15.44C180.741 16.5707 181.391 18.1707 181.391 20.24V30H177.903L177.519 27.44C177.05 28.2933 176.389 28.9973 175.535 29.552C174.703 30.1067 173.626 30.384 172.303 30.384ZM173.231 27.184C174.405 27.184 175.311 26.8 175.951 26.032C176.613 25.264 177.029 24.3147 177.199 23.184H173.711C172.623 23.184 171.845 23.3867 171.375 23.792C170.906 24.176 170.671 24.656 170.671 25.232C170.671 25.8507 170.906 26.3307 171.375 26.672C171.845 27.0133 172.463 27.184 173.231 27.184Z" fill="white"/>
<path d="M194.068 30.384C192.873 30.384 191.828 30.16 190.932 29.712C190.036 29.264 189.311 28.6347 188.756 27.824L188.308 30H184.66V6.96H188.756V16.4C189.268 15.696 189.94 15.0773 190.772 14.544C191.625 14.0107 192.724 13.744 194.068 13.744C195.561 13.744 196.895 14.1067 198.068 14.832C199.241 15.5573 200.169 16.5493 200.852 17.808C201.535 19.0667 201.876 20.496 201.876 22.096C201.876 23.696 201.535 25.1253 200.852 26.384C200.169 27.6213 199.241 28.6027 198.068 29.328C196.895 30.032 195.561 30.384 194.068 30.384ZM193.204 26.8C194.505 26.8 195.583 26.3627 196.436 25.488C197.289 24.6133 197.716 23.4827 197.716 22.096C197.716 20.7093 197.289 19.568 196.436 18.672C195.583 17.776 194.505 17.328 193.204 17.328C191.881 17.328 190.793 17.776 189.94 18.672C189.108 19.5467 188.692 20.6773 188.692 22.064C188.692 23.4507 189.108 24.592 189.94 25.488C190.793 26.3627 191.881 26.8 193.204 26.8Z" fill="white"/>
<path d="M204.895 30V6.96H208.991V30H204.895Z" fill="white"/>
<path d="M220.248 30.384C218.648 30.384 217.23 30.0427 215.992 29.36C214.755 28.6773 213.784 27.7173 213.08 26.48C212.376 25.2427 212.024 23.8133 212.024 22.192C212.024 20.5493 212.366 19.088 213.048 17.808C213.752 16.528 214.712 15.536 215.928 14.832C217.166 14.1067 218.616 13.744 220.28 13.744C221.838 13.744 223.214 14.0853 224.408 14.768C225.603 15.4507 226.531 16.3893 227.192 17.584C227.875 18.7573 228.216 20.0693 228.216 21.52C228.216 21.7547 228.206 22 228.184 22.256C228.184 22.512 228.174 22.7787 228.152 23.056H216.088C216.174 24.2933 216.6 25.264 217.368 25.968C218.158 26.672 219.107 27.024 220.216 27.024C221.048 27.024 221.742 26.8427 222.296 26.48C222.872 26.096 223.299 25.6053 223.576 25.008H227.736C227.438 26.0107 226.936 26.928 226.232 27.76C225.55 28.5707 224.696 29.2107 223.672 29.68C222.67 30.1493 221.528 30.384 220.248 30.384ZM220.28 17.072C219.278 17.072 218.392 17.36 217.624 17.936C216.856 18.4907 216.366 19.344 216.152 20.496H224.056C223.992 19.4507 223.608 18.6187 222.904 18C222.2 17.3813 221.326 17.072 220.28 17.072Z" fill="white"/>
<path d="M24.4986 8.91377V1.08704L19.9557 1.63057C16.6759 1.80449 13.566 4.52935 12.4211 5.87004C10.4709 8.04413 8.57987 9.23988 7.87812 9.566C6.99169 9.91385 4.92336 10.0008 4 10.0008V17.8275C11.2687 18.3493 16.4838 13.6968 18.1828 11.3053C19.6011 9.39207 22.9843 8.91377 24.4986 8.91377Z" fill="white"/>
<path d="M44 7.82672V0C37.1302 0.217409 36.3546 1.41316 34.6925 2.28279C33.3629 2.9785 31.4054 5.18158 30.5928 6.19616C28.2881 8.54417 24.9049 8.98624 23.5014 8.91377V16.5231C29.9723 17.0449 34.7664 13.4794 36.3546 11.6314C36.4432 11.1096 38.386 9.45729 39.3463 8.69636C40.6759 8.00065 43.0028 7.82672 44 7.82672Z" fill="#2F73F2"/>
<path d="M24.4986 28.0458V20.219L19.9557 20.7626C16.6759 20.9365 13.566 23.6613 12.4211 25.002C10.4709 27.1761 8.57987 28.3719 7.87812 28.698C6.99169 29.0458 4.92336 29.1328 4 29.1328V36.9595C11.2687 37.4813 16.4838 32.8288 18.1828 30.4373C19.6011 28.5241 22.9843 28.0458 24.4986 28.0458Z" fill="white"/>
<path d="M44 26.9587V19.132C37.1302 19.3494 36.3546 20.5451 34.6925 21.4148C33.3629 22.1105 31.4054 24.3136 30.5928 25.3281C28.2881 27.6762 24.9049 28.1182 23.5014 28.0458V35.6551C29.9723 36.1769 34.7664 32.6113 36.3546 30.7634C36.4432 30.2416 38.386 28.5893 39.3463 27.8284C40.6759 27.1326 43.0028 26.9587 44 26.9587Z" fill="#2F73F2"/>
</g>
<defs>
<filter id="filter0_d_7_1004" x="0" y="0" width="232.216" height="45" filterUnits="userSpaceOnUse" color-interpolation-filters="sRGB">
<feFlood flood-opacity="0" result="BackgroundImageFix"/>
<feColorMatrix in="SourceAlpha" type="matrix" values="0 0 0 0 0 0 0 0 0 0 0 0 0 0 0 0 0 0 127 0" result="hardAlpha"/>
<feOffset dy="4"/>
<feGaussianBlur stdDeviation="2"/>
<feComposite in2="hardAlpha" operator="out"/>
<feColorMatrix type="matrix" values="0 0 0 0 0 0 0 0 0 0 0 0 0 0 0 0 0 0 0.25 0"/>
<feBlend mode="normal" in2="BackgroundImageFix" result="effect1_dropShadow_7_1004"/>
<feBlend mode="normal" in="SourceGraphic" in2="effect1_dropShadow_7_1004" result="shape"/>
</filter>
</defs>
</svg>
