<?xml version="1.0" encoding="UTF-8"?>
<svg version="1.1" xmlns="http://www.w3.org/2000/svg" width="385" height="149">
<path d="M0 0 C22.11 0 44.22 0 67 0 C72.66831683 11.33663366 72.66831683 11.33663366 74.8125 17 C75.23144531 18.093125 75.65039062 19.18625 76.08203125 20.3125 C77 23 77 23 77 25 C80.72110238 21.37327341 84.15422847 17.59868944 87.5 13.625 C87.96019531 13.08617187 88.42039062 12.54734375 88.89453125 11.9921875 C89.35214844 11.45078125 89.80976563 10.909375 90.28125 10.3515625 C90.68408203 9.87541504 91.08691406 9.39926758 91.50195312 8.90869141 C92.9989863 7.09502524 92.9989863 7.09502524 93.971591 5.31029224 C95.18233995 3.32205573 96.3599573 1.65599399 98 0 C100.91703641 -0.69669864 102.73348608 -0.89872881 105.63598633 -0.79467773 C106.38774139 -0.79569992 107.13949646 -0.79672211 107.91403198 -0.79777527 C110.38815957 -0.79291485 112.85855237 -0.73855896 115.33203125 -0.68359375 C117.05122359 -0.67053176 118.77044205 -0.66057042 120.4896698 -0.65357971 C125.00638248 -0.62690073 129.52150978 -0.55818169 134.03759766 -0.48065186 C138.64919589 -0.40893797 143.2610513 -0.37705094 147.87304688 -0.34179688 C156.91605971 -0.26680901 165.95789783 -0.14739833 175 0 C174.88325099 1.35490296 174.75606577 2.70890696 174.625 4.0625 C174.55539062 4.81660156 174.48578125 5.57070312 174.4140625 6.34765625 C173.90250577 9.62451493 172.91112591 12.81105932 172 16 C164.08 16 156.16 16 148 16 C147.77441406 17.64742187 147.54882812 19.29484375 147.31640625 20.9921875 C145.82128166 30.70588685 143.69734302 40.29107167 141.6315918 49.89648438 C140.93181237 53.15145559 140.23794757 56.40764731 139.54492188 59.6640625 C139.10190385 61.73705215 138.65855659 63.80997147 138.21484375 65.8828125 C137.90389015 67.34051559 137.90389015 67.34051559 137.58665466 68.82766724 C137.39297806 69.72645599 137.19930145 70.62524475 136.99975586 71.55126953 C136.83035995 72.34034698 136.66096405 73.12942444 136.48643494 73.94241333 C136 76 136 76 135 79 C129.72 79 124.44 79 119 79 C119.61844936 71.38784221 120.88649736 64.10742546 122.50390625 56.6484375 C122.7466478 55.50839264 122.98938934 54.36834778 123.23948669 53.1937561 C124.00877696 49.58640328 124.78551291 45.98070196 125.5625 42.375 C126.08838522 39.91547028 126.61378078 37.45583582 127.13867188 34.99609375 C128.41921414 28.99595415 129.70983259 22.99810942 131 17 C123.41 16.67 115.82 16.34 108 16 C108 14.68 108 13.36 108 12 C107.50113281 12.62003906 107.00226563 13.24007813 106.48828125 13.87890625 C101.20957605 20.38962522 95.78928015 26.75257159 90.25512695 33.04711914 C89.71718506 33.66192139 89.17924316 34.27672363 88.625 34.91015625 C88.14289063 35.45808838 87.66078125 36.00602051 87.1640625 36.57055664 C85.90207419 38.01417226 85.90207419 38.01417226 85 40 C85.80382969 42.29399456 86.6713978 44.47156785 87.640625 46.6953125 C88.06489777 47.69472366 88.06489777 47.69472366 88.4977417 48.71432495 C89.4078667 50.85441532 90.32851857 52.98977802 91.25 55.125 C92.15509969 57.23963761 93.05797375 59.35520399 93.95941162 61.47140503 C94.52114848 62.78820889 95.08531605 64.10397963 95.65240479 65.41848755 C97.57953864 69.90989925 99.27907258 74.41086021 101 79 C95.06 79 89.12 79 83 79 C82.28972656 77.29070312 81.57945312 75.58140625 80.84765625 73.8203125 C79.91930814 71.58852615 78.99092069 69.35675616 78.0625 67.125 C77.59392578 65.99707031 77.12535156 64.86914062 76.64257812 63.70703125 C75.9706543 62.09248047 75.9706543 62.09248047 75.28515625 60.4453125 C74.66459351 58.95281982 74.66459351 58.95281982 74.03149414 57.43017578 C73.39674734 55.93472734 72.72653555 54.4530711 72 53 C70.35233713 55.08190672 68.7068852 57.16550638 67.0625 59.25 C66.61326172 59.8171875 66.16402344 60.384375 65.70117188 60.96875 C65.23388672 61.56171875 64.76660156 62.1546875 64.28515625 62.765625 C63.79063965 63.37365967 63.29612305 63.98169434 62.78662109 64.6081543 C60.90388809 67.03189985 60.90388809 67.03189985 59.26428223 69.99731445 C54.06437483 78.36462132 54.06437483 78.36462132 48.56871033 80.05609131 C44.40882556 80.38845149 40.40785804 80.35440691 36.24609375 80.171875 C34.73444906 80.14945407 33.22271633 80.1323911 31.71095276 80.12042236 C27.75805983 80.0748991 23.8105768 79.9573324 19.85980225 79.82397461 C15.81808674 79.70054479 11.77548433 79.64627186 7.73242188 79.5859375 C-0.18085095 79.45776998 -8.08975015 79.25337313 -16 79 C-14.54176044 69.66026702 -12.69213851 60.41863915 -10.7421875 51.171875 C-10.46600466 49.853725 -10.19004436 48.53552834 -9.91430664 47.21728516 C-8.90388476 42.39429446 -7.88919791 37.57219807 -6.875 32.75 C-4.60625 21.9425 -2.3375 11.135 0 0 Z M50 4 C49.34 7.63 48.68 11.26 48 15 C36.78 15 25.56 15 14 15 C10.83830958 25.58520885 10.83830958 25.58520885 11 31 C20.24 31 29.48 31 39 31 C38.01 35.62 37.02 40.24 36 45 C26.43 45.33 16.86 45.66 7 46 C4.86274216 54.93248868 4.86274216 54.93248868 4 64 C20.335 64.495 20.335 64.495 37 65 C36.67 67.97 36.34 70.94 36 74 C39.6326104 70.45885821 42.99457453 66.76756042 46.25 62.875 C46.72453613 62.31095459 47.19907227 61.74690918 47.68798828 61.16577148 C51.51921423 56.60121994 55.31786323 52.01032632 59.0390625 47.35546875 C61 45 61 45 62.7734375 43.30078125 C64.475661 41.77756354 64.475661 41.77756354 66 39 C64.78183343 31.46522412 60.49053974 23.92450274 57.4375 17 C56.94314453 15.85660156 56.44878906 14.71320312 55.93945312 13.53515625 C55.46314453 12.45105469 54.98683594 11.36695313 54.49609375 10.25 C54.06482178 9.26515625 53.6335498 8.2803125 53.18920898 7.265625 C52.20823257 4.86073608 52.20823257 4.86073608 50 4 Z " fill="#FDFDFD" transform="translate(209,9)"/>
<path d="M0 0 C1.19947266 -0.01224609 2.39894531 -0.02449219 3.63476562 -0.03710938 C22.51908292 -0.0680166 22.51908292 -0.0680166 30.0625 6.1875 C34.05385527 10.41700296 33.49278339 14.50319385 33.34375 20.0546875 C32.84765524 25.58063188 31.18471422 28.13847366 27.1875 31.875 C24.5440806 33.83113035 21.93038637 35.58485762 19.0625 37.1875 C20.135 37.72375 21.2075 38.26 22.3125 38.8125 C26.10349705 41.00728776 28.07237003 43.20724006 30.0625 47.1875 C31.70084673 53.74088691 30.90676834 59.05089365 28.0625 65.1875 C23.11454759 72.60942861 16.68916218 76.93764334 8.0625 79.1875 C4.29229627 79.45557343 0.53585505 79.42028111 -3.2421875 79.3828125 C-4.32130402 79.3799826 -5.40042053 79.37715271 -6.51223755 79.37423706 C-9.94577299 79.3630766 -13.37904391 79.3379793 -16.8125 79.3125 C-19.14582956 79.30246487 -21.47916322 79.29333995 -23.8125 79.28515625 C-29.520923 79.26315079 -35.22919259 79.22971427 -40.9375 79.1875 C-40.27538956 73.7872467 -38.57377794 69.02712185 -36.69140625 63.9609375 C-36.36434692 63.06741074 -36.0372876 62.17388397 -35.70031738 61.25328064 C-34.63829647 58.35458477 -33.5691927 55.45855728 -32.5 52.5625 C-31.40445524 49.57863155 -30.31069008 46.59411518 -29.21714783 43.60951233 C-28.48958336 41.6238992 -27.76144491 39.6384963 -27.0327301 37.65330505 C-24.88919596 31.80874825 -22.76940152 25.95663736 -20.6875 20.08984375 C-20.45135483 19.42454651 -20.21520966 18.75924927 -19.97190857 18.0737915 C-18.90029757 15.05050942 -17.83329287 12.02565056 -16.76977539 8.99951172 C-16.40360107 7.96455566 -16.03742676 6.92959961 -15.66015625 5.86328125 C-15.34828369 4.97552002 -15.03641113 4.08775879 -14.71508789 3.1730957 C-12.64247245 -2.11939453 -4.85193089 0.00253365 0 0 Z M-4.9375 15.1875 C-6.25359006 18.95881688 -7.32008569 22.63831006 -8.0625 26.5625 C-8.31386719 27.87347656 -8.31386719 27.87347656 -8.5703125 29.2109375 C-8.69148438 29.86320312 -8.81265625 30.51546875 -8.9375 31.1875 C2.47329372 31.76385794 2.47329372 31.76385794 13.0625 28.1875 C15.67053451 25.2633401 16.0767633 23.91492842 16 20 C15.35447158 17.17973791 15.35447158 17.17973791 13.51953125 16.01953125 C9.97275376 14.81847623 6.5085541 14.9776083 2.8125 15.0625 C2.06742188 15.07152344 1.32234375 15.08054687 0.5546875 15.08984375 C-1.27618059 15.11331642 -3.10688238 15.14918475 -4.9375 15.1875 Z M-11.9375 46.1875 C-13.2575 52.1275 -14.5775 58.0675 -15.9375 64.1875 C-12.56163315 64.29581658 -9.18926769 64.37496727 -5.8125 64.4375 C-4.86117187 64.47101563 -3.90984375 64.50453125 -2.9296875 64.5390625 C3.09823416 64.62278363 6.46497996 64.18890723 11.0625 60.1875 C13.2189284 57.46852506 13.06174166 56.16588736 12.9375 52.625 C12.38735676 49.2037027 12.38735676 49.2037027 10.30566406 47.4909668 C7.71312047 45.98448114 6.27180002 45.83732115 3.296875 45.89453125 C2.40742188 45.90419922 1.51796875 45.91386719 0.6015625 45.92382812 C-0.77902344 45.9615332 -0.77902344 45.9615332 -2.1875 46 C-3.59128906 46.02030273 -3.59128906 46.02030273 -5.0234375 46.04101562 C-7.32837221 46.07629524 -9.63301005 46.13010034 -11.9375 46.1875 Z " fill="#FDFDFD" transform="translate(164.9375,8.8125)"/>
<path d="M0 0 C1.20970459 0.00523682 2.41940918 0.01047363 3.66577148 0.01586914 C4.97094727 0.0190918 6.27612305 0.02231445 7.62084961 0.02563477 C9.00952213 0.03399138 10.39819401 0.04245634 11.78686523 0.05102539 C13.17944179 0.05603873 14.57202005 0.06060193 15.96459961 0.06469727 C19.38456394 0.07653105 22.80444367 0.09301659 26.22436523 0.11352539 C24.17604199 8.23793311 21.54021903 16.02288971 18.59936523 23.86352539 C17.62516377 26.4783573 16.65473924 29.09457978 15.68530273 31.71118164 C15.42142761 32.42248734 15.15755249 33.13379303 14.88568115 33.86665344 C12.4823486 40.36738708 10.15180784 46.89334265 7.82592773 53.42211914 C6.67455359 56.64389397 5.52263565 59.86547401 4.3706665 63.08703613 C3.60735093 65.22721353 2.84688558 67.36840966 2.08929443 69.51062012 C1.01696965 72.54120286 -0.06578113 75.56787784 -1.15063477 78.59399414 C-1.47212494 79.51143906 -1.79361511 80.42888397 -2.12484741 81.37413025 C-2.58233871 82.64154808 -2.58233871 82.64154808 -3.04907227 83.93457031 C-3.31123535 84.67237228 -3.57339844 85.41017426 -3.84350586 86.17033386 C-4.88309147 88.33753835 -5.90457518 89.61014588 -7.77563477 91.11352539 C-10.59472656 91.45410156 -10.59472656 91.45410156 -13.97485352 91.40649414 C-15.18334961 91.39682617 -16.3918457 91.3871582 -17.63696289 91.37719727 C-19.53091797 91.33949219 -19.53091797 91.33949219 -21.46313477 91.30102539 C-23.37449219 91.28072266 -23.37449219 91.28072266 -25.32446289 91.26000977 C-28.47527534 91.22460738 -31.62524521 91.17522329 -34.77563477 91.11352539 C-33.43242338 84.47884981 -31.57383367 78.25913464 -29.28344727 71.89477539 C-28.94102997 70.93019913 -28.59861267 69.96562286 -28.24581909 68.97181702 C-27.13609403 65.85045546 -26.01864159 62.73192915 -24.90063477 59.61352539 C-24.13339221 57.46251484 -23.36646724 55.31139099 -22.59985352 53.16015625 C-20.33370554 46.80818613 -18.05592971 40.46042806 -15.77563477 34.11352539 C-15.44430542 33.19017395 -15.11297607 32.26682251 -14.77160645 31.31549072 C-12.78033968 25.76631566 -10.7815274 20.21992905 -8.77563477 14.67602539 C-8.52283752 13.97525879 -8.27004028 13.27449219 -8.00958252 12.55249023 C-7.30965169 10.61469902 -6.60528179 8.67851287 -5.90063477 6.74243164 C-5.51133789 5.67065674 -5.12204102 4.59888184 -4.72094727 3.49462891 C-3.38858164 0.13859534 -3.38858164 0.13859534 0 0 Z " fill="#FC6B42" transform="translate(44.775634765625,43.886474609375)"/>
<path d="M0 0 C9.30117534 -0.11591576 18.60210158 -0.20472589 27.90384197 -0.25906086 C32.2231824 -0.28514082 36.54202822 -0.3205087 40.86108398 -0.37719727 C45.0302751 -0.43157557 49.19899088 -0.46143259 53.36850929 -0.47438622 C54.9581634 -0.48361579 56.54779186 -0.50163957 58.13724327 -0.52865028 C60.36639725 -0.56502095 62.59359448 -0.56994245 64.82299805 -0.56762695 C66.09096725 -0.57873001 67.35893646 -0.58983307 68.66532898 -0.60127258 C72.88823396 0.16015695 74.34158162 1.70933623 77 5 C78.13705437 8.01293208 78.30374678 10.79940896 78 14 C75.20481928 19.39759036 75.20481928 19.39759036 72 21 C70.58690305 21.11774294 69.16868562 21.17690733 67.75097656 21.20532227 C66.86597977 21.22526245 65.98098297 21.24520264 65.06916809 21.26574707 C64.10274887 21.2824646 63.13632965 21.29918213 62.140625 21.31640625 C61.13565475 21.33723267 60.13068451 21.35805908 59.09526062 21.3795166 C55.81358525 21.44570388 52.53182817 21.50442271 49.25 21.5625 C47.0124498 21.60531565 44.77490097 21.64820312 42.53735352 21.69116211 C26.0233093 21.99669005 9.51667986 22.13262312 -7 22 C-6.35983027 16.86243532 -4.80299667 12.41209819 -2.9375 7.625 C-2.65583984 6.88894531 -2.37417969 6.15289062 -2.08398438 5.39453125 C-1.39433382 3.5944264 -0.69786068 1.7969379 0 0 Z " fill="#FC6842" transform="translate(53,10)"/>
<path d="M0 0 C3.63 0 7.26 0 11 0 C10.11650485 8.45631068 10.11650485 8.45631068 9.4375 11.625 C8.85861392 14.76752441 8.93750959 17.81298927 9 21 C10.65 20.67 12.3 20.34 14 20 C14.27714844 18.89140625 14.55429688 17.7828125 14.83984375 16.640625 C16.2265625 11.09375 17.61328125 5.546875 19 0 C35.5 0 52 0 69 0 C67.875 11.25 67.875 11.25 67.02734375 15.3515625 C66.85009766 16.22167969 66.67285156 17.09179688 66.49023438 17.98828125 C66.30783203 18.85839844 66.12542969 19.72851562 65.9375 20.625 C65.75123047 21.53378906 65.56496094 22.44257812 65.37304688 23.37890625 C64.91983534 25.5868599 64.46056576 27.79356867 64 30 C60.37 30 56.74 30 53 30 C53.70588974 22.94110263 54.78213386 15.98795036 56 9 C53.36 9.33 50.72 9.66 48 10 C46.68 16.6 45.36 23.2 44 30 C40.37 30 36.74 30 33 30 C33.60299164 22.76410027 35.1150587 16.00629124 37 9 C34.36 9 31.72 9 29 9 C28.76925781 9.94101563 28.53851563 10.88203125 28.30078125 11.8515625 C24.56026059 26.13355049 24.56026059 26.13355049 17.8125 30.375 C12.45935701 31.56458733 7.16462736 31.92111802 2.0625 29.75 C-0.62333657 27.47110837 -2.72101953 25.4605448 -3.3984375 21.9140625 C-3.32128663 14.37899397 -1.76855552 7.30581865 0 0 Z M57 4 C58 6 58 6 58 6 Z " fill="#62DADE" transform="translate(204,104)"/>
<path d="M0 0 C4.90881186 4.01630061 8.44321326 7.95366387 9.75 14.25 C10.64580054 23.22178697 9.18782522 29.04821362 3.5 36 C-4.54888087 42.58544798 -11.13595074 42.77768245 -21.25 42.5 C-22.50167969 42.48195312 -23.75335938 42.46390625 -25.04296875 42.4453125 C-28.11278242 42.39844512 -31.18098174 42.3328431 -34.25 42.25 C-31.80692846 33.79119315 -29.10862822 25.41633307 -26.28125 17.07910156 C-25.75681008 15.51561504 -25.24326197 13.94843616 -24.74023438 12.37792969 C-24.00441549 10.08586337 -23.23298483 7.80864985 -22.453125 5.53125 C-22.23617981 4.82923462 -22.01923462 4.12721924 -21.79571533 3.40393066 C-21.09863281 1.43945312 -21.09863281 1.43945312 -19.25 -1.75 C-12.08679631 -4.70085935 -6.64660274 -3.57893994 0 0 Z " fill="#FD7C47" transform="translate(87.25,91.75)"/>
<path d="M0 0 C0.66 0.66 1.32 1.32 2 2 C0.68 4.31 -0.64 6.62 -2 9 C-2.515625 8.835 -3.03125 8.67 -3.5625 8.5 C-6.73363876 7.84951 -9.77218334 7.9379266 -13 8 C-10.47176247 9.31468352 -7.95922857 10.42336465 -5.3125 11.5 C-2 13 -2 13 -1 15 C-0.56300781 14.00419922 -0.56300781 14.00419922 -0.1171875 12.98828125 C2.5327385 7.28010732 4.55495277 3.28757569 10 0 C16.44132737 -2.24093238 21.64555743 -2.47715558 28 0 C32.03311332 3.15634956 34.13867412 5.9277476 35 11 C34.55973569 17.74705048 33.01886436 22.42725692 28 27 C22.45782499 30.26010295 17.27613187 30.74814817 11 30 C5.72145956 28.20728815 3.26554587 25.32204601 0 21 C-0.4125 21.763125 -0.825 22.52625 -1.25 23.3125 C-3.67201007 27.03201546 -5.8117576 28.6039192 -10 30 C-16.35866888 30.43538656 -21.98864489 30.13737071 -28 28 C-27.5020163 24.26512223 -27.12508244 22.18762365 -25 19 C-23.1746875 19.5259375 -23.1746875 19.5259375 -21.3125 20.0625 C-17.87913104 20.93456352 -15.44650141 21.07703169 -12 20 C-12.60328125 19.82984375 -13.2065625 19.6596875 -13.828125 19.484375 C-22.82537068 16.75617792 -22.82537068 16.75617792 -25 13 C-25.39266678 8.47180014 -24.90900302 5.10784743 -22 1.5625 C-14.63854069 -2.27159339 -7.90006014 -2.6881112 0 0 Z M14.375 8.5625 C11.31938594 11.69852496 11 13.6690426 11 18 C11.83333333 20.16666667 11.83333333 20.16666667 14 21 C17.54578685 21.16025399 17.54578685 21.16025399 21 20 C23.61721762 17.13741823 24.02696888 15.68770638 23.875 11.8125 C23.22994813 8.69851109 23.22994813 8.69851109 20 7 C16.92050688 6.74425807 16.92050688 6.74425807 14.375 8.5625 Z " fill="#61DBDF" transform="translate(141,105)"/>
<path d="M0 0 C3.20815845 -0.08774066 6.41600462 -0.14063706 9.625 -0.1875 C10.52863281 -0.21263672 11.43226562 -0.23777344 12.36328125 -0.26367188 C17.68054011 -0.32189004 21.42803427 -0.04082228 26 3 C29.50809652 7.17179046 30.90755433 10.54570537 31 16 C30.23985473 21.13540003 29.02389482 24.53114862 24.83984375 27.75390625 C18.62257332 31.39664585 11.45379147 30.52888736 4.5 30.3125 C3.09118556 30.28737733 1.6823278 30.26457117 0.2734375 30.24414062 C-3.15215841 30.18548316 -6.5755123 30.10343481 -10 30 C-9.41054142 25.81131279 -8.4409435 22.11289424 -6.93359375 18.1640625 C-6.53076172 17.10058594 -6.12792969 16.03710938 -5.71289062 14.94140625 C-5.29201172 13.84699219 -4.87113281 12.75257812 -4.4375 11.625 C-4.01275391 10.50738281 -3.58800781 9.38976562 -3.15039062 8.23828125 C-2.10520253 5.49025861 -1.05493476 2.74429248 0 0 Z " fill="#5DDEE3" transform="translate(85,44)"/>
<path d="M0 0 C3.06362597 -0.32758091 5.94527711 -0.45785074 9 0 C11.62890625 2.40625 11.62890625 2.40625 13.5625 5.5 C14.22378906 6.5209375 14.88507813 7.541875 15.56640625 8.59375 C16.03949219 9.3878125 16.51257813 10.181875 17 11 C17.13277344 10.28972656 17.26554687 9.57945313 17.40234375 8.84765625 C17.57894531 7.92855469 17.75554687 7.00945312 17.9375 6.0625 C18.19853516 4.68771484 18.19853516 4.68771484 18.46484375 3.28515625 C19 1 19 1 20 0 C21.68608966 -0.07205511 23.37500659 -0.08386068 25.0625 -0.0625 C25.98160156 -0.05347656 26.90070313 -0.04445313 27.84765625 -0.03515625 C28.55792969 -0.02355469 29.26820313 -0.01195313 30 0 C29.35651536 6.59571757 28.32134691 13.00816521 27 19.5 C26.82210938 20.40492187 26.64421875 21.30984375 26.4609375 22.2421875 C26.28820312 23.10070312 26.11546875 23.95921875 25.9375 24.84375 C25.78152344 25.61912109 25.62554687 26.39449219 25.46484375 27.19335938 C25 29 25 29 24 30 C20.7883667 30.8545977 18.18403272 31.00171816 15 30 C12.05719127 26.64594576 10.00541531 22.97214094 8 19 C6.515 24.445 6.515 24.445 5 30 C1.7 30 -1.6 30 -5 30 C-4.40071636 22.99784384 -3.3786571 16.2497777 -1.9375 9.375 C-1.75123047 8.46621094 -1.56496094 7.55742188 -1.37304688 6.62109375 C-0.91982704 4.4130997 -0.46210307 2.20614876 0 0 Z " fill="#5EDFE3" transform="translate(310,104)"/>
<path d="M0 0 C3.17585345 3.36832942 3.92072201 5.93512779 4.4375 10.5 C3.84756226 16.30105447 1.80134839 20.49323746 -2.375 24.5625 C-8.18399458 28.24625266 -13.12710139 28.88712361 -19.9375 28.1875 C-24.61214828 26.54271635 -27.59773801 24.59705145 -29.9375 20.1875 C-30.70977346 14.5766969 -30.72976755 9.83072158 -28.25 4.6875 C-20.27666082 -3.93232614 -10.37710263 -6.40289311 0 0 Z M-16.5625 6.8125 C-19.13315595 9.02911185 -19.13315595 9.02911185 -19.9375 12.1875 C-20.14168303 15.16472959 -20.14168303 15.16472959 -18.875 17.5625 C-16.96950595 19.42856411 -16.96950595 19.42856411 -14 19.75 C-10.80183769 19.43758382 -10.80183769 19.43758382 -8.5625 17.0625 C-6.66907554 13.71259519 -6.27935675 11.97182369 -6.9375 8.1875 C-8.6484211 6.21651574 -8.6484211 6.21651574 -10.9375 5.1875 C-14.0269128 4.92432269 -14.0269128 4.92432269 -16.5625 6.8125 Z " fill="#60DDE1" transform="translate(301.9375,106.8125)"/>
<path d="M0 0 C1 3 1 3 -0.4375 6.1875 C-1.2109375 7.5796875 -1.2109375 7.5796875 -2 9 C-2.680625 8.835 -3.36125 8.67 -4.0625 8.5 C-7.4164822 7.92910941 -10.60389805 7.93340977 -14 8 C-13.31292969 8.25394531 -12.62585938 8.50789063 -11.91796875 8.76953125 C-11.01691406 9.11371094 -10.11585938 9.45789063 -9.1875 9.8125 C-8.29417969 10.14894531 -7.40085937 10.48539063 -6.48046875 10.83203125 C-4.02031674 11.99043353 -2.62585227 12.83745863 -1 15 C-0.36201128 19.94441261 -0.14141241 21.87157059 -3.1875 25.875 C-9.12906896 30.36418543 -14.75328687 30.71329987 -22 30 C-24.57816161 29.23232021 -26.61207399 28.27356054 -29 27 C-27.87548273 24.0280615 -26.77706209 21.66559313 -25 19 C-24.21753906 19.15597656 -23.43507813 19.31195313 -22.62890625 19.47265625 C-21.61699219 19.66730469 -20.60507812 19.86195312 -19.5625 20.0625 C-18.55316406 20.25972656 -17.54382813 20.45695312 -16.50390625 20.66015625 C-15.67761719 20.77230469 -14.85132813 20.88445312 -14 21 C-13.67 20.67 -13.34 20.34 -13 20 C-13.69867188 19.73445313 -14.39734375 19.46890625 -15.1171875 19.1953125 C-16.02726562 18.84210938 -16.93734375 18.48890625 -17.875 18.125 C-18.77992188 17.77695313 -19.68484375 17.42890625 -20.6171875 17.0703125 C-23 16 -23 16 -25 14 C-25.85620256 9.41255679 -25.64464963 5.97737203 -23.0625 2.0625 C-15.49081849 -3.03679571 -8.56137825 -2.0803349 0 0 Z " fill="#62DCE0" transform="translate(365,105)"/>
<path d="M0 0 C3.3 0 6.6 0 10 0 C9.4183462 7.46455715 8.4316515 14.65085565 7 22 C11.29 22 15.58 22 20 22 C19.34 24.64 18.68 27.28 18 30 C10.08 30 2.16 30 -6 30 C-2.28571429 4.57142857 -2.28571429 4.57142857 0 0 Z " fill="#60DEE2" transform="translate(180,104)"/>
<path d="M0 0 C3.89543877 -0.14553599 7.79017651 -0.23415059 11.6875 -0.3125 C13.34168945 -0.3753418 13.34168945 -0.3753418 15.02929688 -0.43945312 C23.19597592 -0.56281686 23.19597592 -0.56281686 27.203125 2.2421875 C29.77511588 6.18963438 30.44403354 9.32120218 30 14 C27.20481928 19.39759036 27.20481928 19.39759036 24 21 C22.48835608 21.08977728 20.97279821 21.11757433 19.45849609 21.11352539 C18.51767181 21.11344986 17.57684753 21.11337433 16.60751343 21.11329651 C15.58976837 21.10813522 14.57202332 21.10297394 13.5234375 21.09765625 C12.48305328 21.0962413 11.44266907 21.09482635 10.37075806 21.09336853 C7.03880979 21.08775866 3.70692805 21.07520447 0.375 21.0625 C-1.88020736 21.05748627 -4.13541578 21.05292314 -6.390625 21.04882812 C-11.92710614 21.03778603 -17.46354832 21.02103827 -23 21 C-23 20.67 -23 20.34 -23 20 C-19.10809917 19.85452284 -15.2160933 19.71228358 -11.32397461 19.57275391 C-9.3663144 19.50194644 -7.40874137 19.42874146 -5.45117188 19.35546875 C2.70349539 19.0649717 10.8403292 18.93778499 19 19 C19.33 17.02 19.66 15.04 20 13 C21.65 12.67 23.3 12.34 25 12 C25.495 12.99 25.495 12.99 26 14 C26.66 14 27.32 14 28 14 C27.41825155 8.6913151 27.41825155 8.6913151 25 4 C24.34 4.33 23.68 4.66 23 5 C19.08105021 6.17568494 15.94656806 6.31552269 12 5 C11.01 5 10.02 5 9 5 C9.33 3.68 9.66 2.36 10 1 C6.7 1 3.4 1 0 1 C0 0.67 0 0.34 0 0 Z " fill="#E6865D" transform="translate(101,10)"/>
<path d="M0 0 C2.5 0.125 2.5 0.125 3.5 1.125 C3.64115161 3.79558851 3.54247107 6.44932238 3.5 9.125 C2.51 9.125 1.52 9.125 0.5 9.125 C0.83 9.785 1.16 10.445 1.5 11.125 C1.63415472 13.7973621 1.54318541 16.44750488 1.5 19.125 C-1.47 19.125 -4.44 19.125 -7.5 19.125 C-4.62620251 0.23131013 -4.62620251 0.23131013 0 0 Z " fill="#5CE1E6" transform="translate(265.5,113.875)"/>
<path d="M0 0 C0.99 0.33 1.98 0.66 3 1 C2.67 2.98 2.34 4.96 2 7 C1.34 7 0.68 7 0 7 C0 7.66 0 8.32 0 9 C-0.66 9 -1.32 9 -2 9 C-2 9.66 -2 10.32 -2 11 C-0.68 11 0.64 11 2 11 C2.04241723 13.33294775 2.04092937 15.66702567 2 18 C1.67 18.33 1.34 18.66 1 19 C5.95 19.33 10.9 19.66 16 20 C16 20.33 16 20.66 16 21 C8.08 21 0.16 21 -8 21 C-7.19649377 16.17896262 -6.18424187 12.24473901 -4.5625 7.6875 C-4.13066406 6.45386719 -3.69882812 5.22023438 -3.25390625 3.94921875 C-2 1 -2 1 0 0 Z " fill="#F2463D" transform="translate(54,11)"/>
<path d="M0 0 C6.98629919 -0.50604984 11.20200116 -0.0333905 17 4 C17 4.99 17 5.98 17 7 C16.34 7 15.68 7 15 7 C15 7.66 15 8.32 15 9 C15.99 8.67 16.98 8.34 18 8 C18 9.32 18 10.64 18 12 C18.99 12.33 19.98 12.66 21 13 C20.01 13.495 20.01 13.495 19 14 C18.34227572 17.02934491 18.34227572 17.02934491 18 20 C17.01 20.33 16.02 20.66 15 21 C15.061875 20.236875 15.12375 19.47375 15.1875 18.6875 C15.25086449 15.99898264 15.25086449 15.99898264 13.6875 14.3125 C12.17725852 13.13786774 10.5919343 12.06128953 9 11 C8.6278958 9.67696283 8.29369827 8.34262065 8 7 C7.34 6.34 6.68 5.68 6 5 C6 4.01 6 3.02 6 2 C4.02 2.33 2.04 2.66 0 3 C0 2.01 0 1.02 0 0 Z " fill="#5DE1E5" transform="translate(155,105)"/>
<path d="M0 0 C0.66 0 1.32 0 2 0 C2 0.99 2 1.98 2 3 C2.84304687 2.98839844 3.68609375 2.97679688 4.5546875 2.96484375 C5.65039062 2.95582031 6.74609375 2.94679688 7.875 2.9375 C8.96554688 2.92589844 10.05609375 2.91429688 11.1796875 2.90234375 C14 3 14 3 16 4 C16.33 3.01 16.66 2.02 17 1 C17.99 1.33 18.98 1.66 20 2 C20.33 3.65 20.66 5.3 21 7 C17.70689856 9.95901868 15.24965881 10.47053777 10.875 10.75 C9.82054687 10.82734375 8.76609375 10.9046875 7.6796875 10.984375 C5 11 5 11 3 10 C3 9.34 3 8.68 3 8 C2.34 8 1.68 8 1 8 C0.67 5.36 0.34 2.72 0 0 Z " fill="#5CE1E6" transform="translate(148,123)"/>
<path d="M0 0 C2.97 0 5.94 0 9 0 C9 0.33 9 0.66 9 1 C6.36 1 3.72 1 1 1 C1.309375 1.8353125 1.309375 1.8353125 1.625 2.6875 C2 5 2 5 1.0625 7.1875 C-0.23381982 10.61893481 -0.41997393 13.65620173 -0.625 17.3125 C-0.73714844 19.19388672 -0.73714844 19.19388672 -0.8515625 21.11328125 C-0.90054687 22.06589844 -0.94953125 23.01851562 -1 24 C-0.01 23.01 0.98 22.02 2 21 C2.66 21.99 3.32 22.98 4 24 C4.66 23.34 5.32 22.68 6 22 C5.67 24.64 5.34 27.28 5 30 C1.7 30 -1.6 30 -5 30 C-4.40071636 22.99784384 -3.3786571 16.2497777 -1.9375 9.375 C-1.75123047 8.46621094 -1.56496094 7.55742188 -1.37304688 6.62109375 C-0.91983534 4.4131401 -0.46056576 2.20643133 0 0 Z " fill="#6BD6D9" transform="translate(310,104)"/>
<path d="M0 0 C1.65 0.33 3.3 0.66 5 1 C4.67 5.62 4.34 10.24 4 15 C2.68 14.67 1.36 14.34 0 14 C0.33 14.99 0.66 15.98 1 17 C-0.3125 18.5 -0.3125 18.5 -2 20 C-2.99 20 -3.98 20 -5 20 C-4.835 19.319375 -4.67 18.63875 -4.5 17.9375 C-3.92910941 14.5835178 -3.93340977 11.39610195 -4 8 C-3.01 7.67 -2.02 7.34 -1 7 C-1.020625 6.21625 -1.04125 5.4325 -1.0625 4.625 C-1 2 -1 2 0 0 Z " fill="#5BE1E6" transform="translate(207,106)"/>
<path d="M0 0 C11.70615034 -0.55353075 11.70615034 -0.55353075 16 3 C15.67 4.32 15.34 5.64 15 7 C8.73 7 2.46 7 -4 7 C-3.67 5.35 -3.34 3.7 -3 2 C-2.01 2 -1.02 2 0 2 C0 1.34 0 0.68 0 0 Z " fill="#5CE1E5" transform="translate(124,105)"/>
<path d="M0 0 C1.32 0.66 2.64 1.32 4 2 C3.67 2.66 3.34 3.32 3 4 C2.34 4 1.68 4 1 4 C0.8453125 5.3921875 0.8453125 5.3921875 0.6875 6.8125 C0 10 0 10 -1.0625 11.875 C-4.16284966 13.67520303 -7.50379537 13.54275757 -11 13 C-11.99 12.34 -12.98 11.68 -14 11 C-13.01 10.67 -12.02 10.34 -11 10 C-11 9.01 -11 8.02 -11 7 C-11.66 6.67 -12.32 6.34 -13 6 C-12.01 5.67 -11.02 5.34 -10 5 C-10 5.66 -10 6.32 -10 7 C-4.23518502 5.76709031 -4.23518502 5.76709031 0 2 C0 1.34 0 0.68 0 0 Z " fill="#5CE1E6" transform="translate(222,120)"/>
<path d="M0 0 C0.66 0 1.32 0 2 0 C1.29771949 4.49459524 -0.00087613 8.90610041 -2 13 C-4.40059817 14.20029908 -5.89360649 14.11459743 -8.5703125 14.09765625 C-9.46621094 14.09443359 -10.36210937 14.09121094 -11.28515625 14.08789062 C-12.22230469 14.07951172 -13.15945312 14.07113281 -14.125 14.0625 C-15.06988281 14.05798828 -16.01476563 14.05347656 -16.98828125 14.04882812 C-19.32558387 14.03702357 -21.66276061 14.02055759 -24 14 C-24.33 13.34 -24.66 12.68 -25 12 C-16.585 11.505 -16.585 11.505 -8 11 C-7.67 10.34 -7.34 9.68 -7 9 C-7.66 8.67 -8.32 8.34 -9 8 C-8.21625 7.87625 -7.4325 7.7525 -6.625 7.625 C-3.85942178 7.20882007 -3.85942178 7.20882007 -2 5 C-1.29289322 3.35008418 -0.62056011 1.68437744 0 0 Z " fill="#E18158" transform="translate(41,121)"/>
<path d="M0 0 C0.99 0.495 0.99 0.495 2 1 C2 3.64 2 6.28 2 9 C2.99 9 3.98 9 5 9 C5.33 10.98 5.66 12.96 6 15 C9.31544299 16.10514766 12.20410111 16.32107631 15.6875 16.5625 C16.86699219 16.64628906 18.04648437 16.73007813 19.26171875 16.81640625 C20.61716797 16.90728516 20.61716797 16.90728516 22 17 C22 16.34 22 15.68 22 15 C22.86625 14.87625 22.86625 14.87625 23.75 14.75 C26.6159304 13.79468987 27.9990764 12.21530827 30 10 C30 10.99 30 11.98 30 13 C24.53416045 18.15350586 19.77937481 19.42463967 12.43359375 19.25 C7.85086123 18.7792217 5.0733436 16.90386829 1.625 14 C-0.83440076 9.45956783 -0.31886875 5.05761273 0 0 Z " fill="#72D2D1" transform="translate(272,116)"/>
<path d="M0 0 C2.17999263 2.90665685 3.27601474 5.21081632 4.0625 8.75 C3.7325 9.41 3.4025 10.07 3.0625 10.75 C1.0625 9.75 1.0625 9.75 0.0625 6.75 C-0.5975 6.75 -1.2575 6.75 -1.9375 6.75 C-1.9375 6.09 -1.9375 5.43 -1.9375 4.75 C-1.2775 4.75 -0.6175 4.75 0.0625 4.75 C0.0625 3.76 0.0625 2.77 0.0625 1.75 C-0.906875 1.440625 -1.87625 1.13125 -2.875 0.8125 C-5.9375 -0.25 -5.9375 -0.25 -6.9375 -1.25 C-13.38397271 -2.12963565 -17.93676729 -1.32425696 -23.34375 2.265625 C-25.13790423 3.936651 -25.97993673 5.50930196 -26.9375 7.75 C-27.5975 7.75 -28.2575 7.75 -28.9375 7.75 C-27.59577554 3.0539644 -25.09180704 0.19997595 -20.9375 -2.25 C-13.59040489 -5.17778978 -6.35109279 -4.86466682 0 0 Z " fill="#6BD2D0" transform="translate(171.9375,107.25)"/>
<path d="M0 0 C2.25 2.6875 2.25 2.6875 2.25 4.6875 C2.91 4.6875 3.57 4.6875 4.25 4.6875 C4.25 3.0375 4.25 1.3875 4.25 -0.3125 C4.58 -0.3125 4.91 -0.3125 5.25 -0.3125 C5.25 1.9975 5.25 4.3075 5.25 6.6875 C4.26 7.0175 3.27 7.3475 2.25 7.6875 C2.25 8.3475 2.25 9.0075 2.25 9.6875 C0.27 9.6875 -1.71 9.6875 -3.75 9.6875 C-5.18088528 6.82572943 -4.34991697 4.75374227 -3.75 1.6875 C-5.07 1.3575 -6.39 1.0275 -7.75 0.6875 C-6.75 -1.3125 -6.75 -1.3125 -5 -2.25 C-2.75 -2.3125 -2.75 -2.3125 0 0 Z " fill="#5BE1E7" transform="translate(357.75,121.3125)"/>
<path d="M0 0 C4.27063587 3.70121775 5.69083214 6.94111194 6.2578125 12.55078125 C6.59363689 20.64414909 4.83996132 25.72312155 -0.4375 31.8125 C-2.87448051 33.89284921 -5.11788609 35.59789053 -8 37 C-8.66 36.67 -9.32 36.34 -10 36 C-8.87926138 35.16094435 -7.75325453 34.32892169 -6.625 33.5 C-5.99851562 33.0359375 -5.37203125 32.571875 -4.7265625 32.09375 C-3 31 -3 31 -1 31 C-0.896875 30.236875 -0.79375 29.47375 -0.6875 28.6875 C0 26 0 26 1.5234375 24.796875 C3.81468476 22.00858469 3.39498322 19.00369991 3.3125 15.5625 C3.30863281 14.24378906 3.30476563 12.92507812 3.30078125 11.56640625 C3.02753014 8.32642881 2.65291471 6.70419379 1 4 C0.63215869 2.6757713 0.28797019 1.34386088 0 0 Z " fill="#E38D5E" transform="translate(91,96)"/>
<path d="M0 0 C6.93 0 13.86 0 21 0 C21.66 1.65 22.32 3.3 23 5 C19.05432668 6.12733524 15.96704289 6.32234763 12 5 C11.01 5 10.02 5 9 5 C9.33 3.68 9.66 2.36 10 1 C6.7 1 3.4 1 0 1 C0 0.67 0 0.34 0 0 Z " fill="#F9844C" transform="translate(101,10)"/>
<path d="M0 0 C1.32 0.33 2.64 0.66 4 1 C3.01 1.33 2.02 1.66 1 2 C2.66924071 5.04134491 2.66924071 5.04134491 5 6 C4.62875 6.763125 4.2575 7.52625 3.875 8.3125 C3.58625 9.199375 3.2975 10.08625 3 11 C3.99 12.485 3.99 12.485 5 14 C4 15 4 15 0.4375 15.0625 C-0.696875 15.041875 -1.83125 15.02125 -3 15 C-2.44854729 9.76119922 -1.57077907 5.02649303 0 0 Z " fill="#FB6841" transform="translate(59,118)"/>
<path d="M0 0 C0.66 0.33 1.32 0.66 2 1 C2.33 1.99 2.66 2.98 3 4 C2.67 4.61875 2.34 5.2375 2 5.875 C0.7088601 8.61867229 1.20538314 10.13937931 2 13 C-0.31 14.65 -2.62 16.3 -5 18 C-6 16 -6 16 -5.0390625 12.55859375 C-4.57540556 11.18227876 -4.10369546 9.80865695 -3.625 8.4375 C-3.39039062 7.73947266 -3.15578125 7.04144531 -2.9140625 6.32226562 C-1.14721788 1.14721788 -1.14721788 1.14721788 0 0 Z " fill="#EE734F" transform="translate(69,89)"/>
<path d="M0 0 C0.33 0 0.66 0 1 0 C1 9.375 1 9.375 0 13 C0.66 13.33 1.32 13.66 2 14 C1.401875 14.20625 0.80375 14.4125 0.1875 14.625 C-2.81018767 16.50926082 -3.61361776 18.81132084 -5 22 C-5.66 22 -6.32 22 -7 22 C-5.0827282 14.49068545 -2.75950985 7.24196241 0 0 Z " fill="#67D9DC" transform="translate(84,46)"/>
<path d="M0 0 C1 2 1 2 0.56274414 3.78759766 C0.30614014 4.48933105 0.04953613 5.19106445 -0.21484375 5.9140625 C-0.48876953 6.67460938 -0.76269531 7.43515625 -1.04492188 8.21875 C-1.33947266 9.0128125 -1.63402344 9.806875 -1.9375 10.625 C-2.22818359 11.42679688 -2.51886719 12.22859375 -2.81835938 13.0546875 C-3.53882525 15.03892138 -4.26855138 17.01978837 -5 19 C-7.86508811 13.2935022 -7.86508811 13.2935022 -8 11 C-5.71858548 7.02864881 -2.90783477 3.53094222 0 0 Z " fill="#ED7E55" transform="translate(49,102)"/>
<path d="M0 0 C0.33 0 0.66 0 1 0 C0.35006899 5.19944809 -0.71260163 9.85040653 -2 15 C5.92 15 13.84 15 22 15 C22 15.33 22 15.66 22 16 C13.09 16 4.18 16 -5 16 C-1.625 4.75 -1.625 4.75 0 0 Z " fill="#E17152" transform="translate(58,118)"/>
<path d="M0 0 C0.66 0.33 1.32 0.66 2 1 C1.45043021 7.7973106 0.42905169 14.3310921 -1 21 C-4.63 21 -8.26 21 -12 21 C-11.67 19.68 -11.34 18.36 -11 17 C-11 17.99 -11 18.98 -11 20 C-8.03 20 -5.06 20 -2 20 C-2.33 16.7 -2.66 13.4 -3 10 C-2.01 10 -1.02 10 0 10 C-0.08378906 9.36191406 -0.16757812 8.72382812 -0.25390625 8.06640625 C-0.35574219 7.24011719 -0.45757812 6.41382812 -0.5625 5.5625 C-0.66691406 4.73878906 -0.77132813 3.91507812 -0.87890625 3.06640625 C-0.91886719 2.38449219 -0.95882813 1.70257813 -1 1 C-0.67 0.67 -0.34 0.34 0 0 Z " fill="#71D2D5" transform="translate(269,113)"/>
<path d="M0 0 C-0.309375 0.5775 -0.61875 1.155 -0.9375 1.75 C-1.92583364 3.84294184 -2.5168613 5.74535275 -3 8 C-4.32 8 -5.64 8 -7 8 C-7 7.34 -7 6.68 -7 6 C-7.99 5.34 -8.98 4.68 -10 4 C-9.25 2.0625 -9.25 2.0625 -8 0 C-5.05360248 -1.27677226 -3.00864103 -0.96706319 0 0 Z " fill="#5BE1E4" transform="translate(289,106)"/>
<path d="M0 0 C0 0.99 0 1.98 0 3 C-4.10187885 6.8088875 -8.06864495 7.15019674 -13.5 7.1875 C-14.4384375 7.20167969 -15.376875 7.21585938 -16.34375 7.23046875 C-19 7 -19 7 -23 5 C-15.08 4.505 -15.08 4.505 -7 4 C-7 3.67 -7 3.34 -7 3 C-5.35 3 -3.7 3 -2 3 C-2 2.34 -2 1.68 -2 1 C-1.34 0.67 -0.68 0.34 0 0 Z " fill="#6FD5D8" transform="translate(362,128)"/>
<path d="M0 0 C0.66 0.66 1.32 1.32 2 2 C0.68 4.31 -0.64 6.62 -2 9 C-4.475 8.01 -4.475 8.01 -7 7 C-6.34 6.67 -5.68 6.34 -5 6 C-4.01 6.33 -3.02 6.66 -2 7 C-2.33 5.35 -2.66 3.7 -3 2 C-6.00778521 0.99740493 -8.53820647 0.69685358 -11.6875 0.4375 C-12.68136719 0.35371094 -13.67523438 0.26992187 -14.69921875 0.18359375 C-15.83810547 0.09271484 -15.83810547 0.09271484 -17 0 C-17 -0.33 -17 -0.66 -17 -1 C-11.03892399 -2.29588609 -5.84164233 -1.82618069 0 0 Z " fill="#71D1D2" transform="translate(141,105)"/>
<path d="M0 0 C0.33 0 0.66 0 1 0 C1.37571374 6.51237153 1.37571374 6.51237153 -0.46875 8.90625 C-2.3331097 11.45547652 -2.48204212 13.12704016 -2.6875 16.25 C-2.75324219 17.14203125 -2.81898437 18.0340625 -2.88671875 18.953125 C-2.92410156 19.62859375 -2.96148438 20.3040625 -3 21 C-4.32 21 -5.64 21 -7 21 C-5.180206 13.74839665 -2.93841629 6.87619244 0 0 Z " fill="#ED8155" transform="translate(24,93)"/>
<path d="M0 0 C2.83336529 0.30630976 4.56126519 0.62394159 6.75 2.5 C8.60946161 6.21892322 9.15502778 9.8511613 9 14 C7.5625 17.0625 7.5625 17.0625 6 19 C5.67 18.01 5.34 17.02 5 16 C5.33 15.67 5.66 15.34 6 15 C6.46331437 9.12353969 6.46331437 9.12353969 4 4 C1.94996045 2.80767387 1.94996045 2.80767387 0 2 C0 1.34 0 0.68 0 0 Z " fill="#E49061" transform="translate(122,10)"/>
<path d="M0 0 C0.33 0.66 0.66 1.32 1 2 C0.01 3.485 0.01 3.485 -1 5 C-1.39387788 7.32387947 -1.73486085 9.65793749 -2 12 C-2.66 11.67 -3.32 11.34 -4 11 C-4.99 11.33 -5.98 11.66 -7 12 C-7.4375 9.375 -7.4375 9.375 -7 6 C-4.9050512 3.66877878 -2.53926173 1.82671379 0 0 Z " fill="#58E3E7" transform="translate(334,118)"/>
<path d="M0 0 C3.3 0 6.6 0 10 0 C9 9.57142857 9 9.57142857 8 14 C7.67 14 7.34 14 7 14 C7 12.02 7 10.04 7 8 C6.34 8 5.68 8 5 8 C5 7.34 5 6.68 5 6 C5.66 5.67 6.32 5.34 7 5 C7.65213292 2.97536745 7.65213292 2.97536745 8 1 C5.69 1 3.38 1 1 1 C0.34 2.32 -0.32 3.64 -1 5 C-0.67 3.35 -0.34 1.7 0 0 Z " fill="#71D3D4" transform="translate(330,104)"/>
<path d="M0 0 C1.94188761 6.36661722 -1.40315909 12.21612707 -4 18 C-2.68 18.66 -1.36 19.32 0 20 C-1.98 20 -3.96 20 -6 20 C-4.63125844 13.04223041 -2.5466871 6.61396893 0 0 Z " fill="#E1885E" transform="translate(16,115)"/>
<path d="M0 0 C0.66 0.66 1.32 1.32 2 2 C0 3 0 3 -2.375 2.375 C-5.00239319 1.76247551 -5.00239319 1.76247551 -7.25 3 C-9.74076651 5.8465903 -9.79770379 8.29123613 -10 12 C-9.67 12.66 -9.34 13.32 -9 14 C-9.99 13.67 -10.98 13.34 -12 13 C-12 10.03 -12 7.06 -12 4 C-11.34 4 -10.68 4 -10 4 C-10 3.01 -10 2.02 -10 1 C-6.47940432 -0.17353189 -3.693507 -0.20146402 0 0 Z " fill="#6AD2D1" transform="translate(163,111)"/>
<path d="M0 0 C0.5625 1.9375 0.5625 1.9375 1 4 C0.67 4.33 0.34 4.66 0 5 C4.95 5.33 9.9 5.66 15 6 C15 6.33 15 6.66 15 7 C8.73 7 2.46 7 -4 7 C-4 5.68 -4 4.36 -4 3 C-3.34 3 -2.68 3 -2 3 C-2 2.34 -2 1.68 -2 1 C-1.34 0.67 -0.68 0.34 0 0 Z " fill="#E85043" transform="translate(55,25)"/>
<path d="M0 0 C0.99 0.495 0.99 0.495 2 1 C2 3.64 2 6.28 2 9 C2.99 9 3.98 9 5 9 C5.33 10.98 5.66 12.96 6 15 C4.125 14.6875 4.125 14.6875 2 14 C-0.28062828 10.57905758 -0.21925007 9.31812778 -0.125 5.3125 C-0.10695313 4.31863281 -0.08890625 3.32476562 -0.0703125 2.30078125 C-0.04710937 1.54152344 -0.02390625 0.78226562 0 0 Z " fill="#67D6D8" transform="translate(272,116)"/>
<path d="M0 0 C2.35953094 2.35953094 2.49141413 3.77895617 3 7 C2.37609375 7.07089844 1.7521875 7.14179687 1.109375 7.21484375 C-1.19229321 7.80004532 -1.19229321 7.80004532 -2.046875 10.06640625 C-2.27890625 10.89011719 -2.5109375 11.71382812 -2.75 12.5625 C-2.99234375 13.38878906 -3.2346875 14.21507813 -3.484375 15.06640625 C-3.65453125 15.70449219 -3.8246875 16.34257813 -4 17 C-5.3274855 13.01754349 -3.99907829 10.55210457 -2.5625 6.8125 C-2.19801758 5.83120117 -2.19801758 5.83120117 -1.82617188 4.83007812 C-1.2256707 3.21696714 -0.61390797 1.6080565 0 0 Z " fill="#EE674E" transform="translate(34,64)"/>
<path d="M0 0 C3.3 0 6.6 0 10 0 C10 1.98 10 3.96 10 6 C9.67 6 9.34 6 9 6 C9 4.35 9 2.7 9 1 C6.36 1 3.72 1 1 1 C1.061875 2.0725 1.12375 3.145 1.1875 4.25 C0.98784187 8.24316254 0.46031743 9.08119822 -2 12 C-1.85904936 10.3745692 -1.71207913 8.74965949 -1.5625 7.125 C-1.48128906 6.22007813 -1.40007812 5.31515625 -1.31640625 4.3828125 C-1 2 -1 2 0 0 Z " fill="#6CCED2" transform="translate(180,104)"/>
<path d="M0 0 C5.2741376 -0.6592672 8.09539559 0.93071484 12.36328125 3.7109375 C14 5 14 5 15 7 C11.64566891 6.05066101 8.30753495 5.10251165 5 4 C5 3.34 5 2.68 5 2 C3.35 1.67 1.7 1.34 0 1 C0 0.67 0 0.34 0 0 Z " fill="#E9855B" transform="translate(76,89)"/>
<path d="M0 0 C1.32 0 2.64 0 4 0 C2.33333333 3.33333333 0.66666667 6.66666667 -1 10 C-2.36118461 7.75804887 -3.06138028 6.52173238 -2.75 3.875 C-2 2 -2 2 0 0 Z " fill="#FB4432" transform="translate(52,22)"/>
<path d="M0 0 C0.33 0.66 0.66 1.32 1 2 C1.66 2 2.32 2 3 2 C3 2.66 3 3.32 3 4 C7.62 4 12.24 4 17 4 C12.75018994 6.83320671 8.99102956 6.53392409 4 6 C0.375 4.5 0.375 4.5 -2 3 C-1.34 2.67 -0.68 2.34 0 2 C0 1.34 0 0.68 0 0 Z " fill="#6FD0D1" transform="translate(148,129)"/>
<path d="M0 0 C2.31 0 4.62 0 7 0 C6.67 1.65 6.34 3.3 6 5 C4.02 5.66 2.04 6.32 0 7 C0.185625 6.21625 0.37125 5.4325 0.5625 4.625 C1.25962266 2.02910225 1.25962266 2.02910225 0 0 Z " fill="#5CE1E6" transform="translate(331,105)"/>
<path d="M0 0 C2.8992226 0.46761655 3.86675182 0.86675182 6 3 C5.625 5.125 5.625 5.125 5 7 C3.35 6.67 1.7 6.34 0 6 C-0.38218767 4.34385343 -0.71395102 2.67542976 -1 1 C-0.67 0.67 -0.34 0.34 0 0 Z " fill="#5FE1EB" transform="translate(119,114)"/>
<path d="M0 0 C1.65 0 3.3 0 5 0 C4.67 3.3 4.34 6.6 4 10 C0.48283697 6.48283697 0.45323837 4.80432667 0 0 Z " fill="#FA4B38" transform="translate(64,45)"/>
<path d="M0 0 C1.32 0 2.64 0 4 0 C3.67 1.98 3.34 3.96 3 6 C1.35 6.33 -0.3 6.66 -2 7 C-1.125 1.125 -1.125 1.125 0 0 Z " fill="#FE8845" transform="translate(122,22)"/>
<path d="M0 0 C0.66 0 1.32 0 2 0 C2.042721 1.66611905 2.04063832 3.33382885 2 5 C1 6 1 6 -1.06640625 6.09765625 C-1.89011719 6.08605469 -2.71382813 6.07445312 -3.5625 6.0625 C-4.38878906 6.05347656 -5.21507812 6.04445312 -6.06640625 6.03515625 C-6.70449219 6.02355469 -7.34257812 6.01195312 -8 6 C-8.33 5.01 -8.66 4.02 -9 3 C-8.34 3 -7.68 3 -7 3 C-7 3.66 -7 4.32 -7 5 C-6.401875 4.649375 -5.80375 4.29875 -5.1875 3.9375 C-3 3 -3 3 0 4 C0 2.68 0 1.36 0 0 Z " fill="#6FD6D5" transform="translate(333,128)"/>
<path d="M0 0 C0.33 0 0.66 0 1 0 C1.50610724 6.07328688 0.04157942 9.77228537 -3 15 C-4.43294255 12.13411489 -3.56870553 10.09628564 -3 7 C-3 6.01 -3 5.02 -3 4 C-2.34 4 -1.68 4 -1 4 C-0.67 2.68 -0.34 1.36 0 0 Z " fill="#71D7D7" transform="translate(142,115)"/>
<path d="M0 0 C0 0.33 0 0.66 0 1 C-2.06172613 1.33808686 -4.1244203 1.67027361 -6.1875 2 C-7.91033203 2.2784375 -7.91033203 2.2784375 -9.66796875 2.5625 C-12.50415393 2.93489477 -15.14719564 3.08596021 -18 3 C-17 1 -17 1 -15.21484375 0.33203125 C-9.75266401 -0.91405778 -5.51576461 -1.00286629 0 0 Z " fill="#70CFD4" transform="translate(362,104)"/>
<path d="M0 0 C0.33 0 0.66 0 1 0 C1 9 1 9 -1.5 11.6875 C-2.325 12.450625 -3.15 13.21375 -4 14 C-3.21824485 9.15311808 -1.60155722 4.6233633 0 0 Z " fill="#69D3D2" transform="translate(84,46)"/>
<path d="M0 0 C0.66 0 1.32 0 2 0 C1.67 3.3 1.34 6.6 1 10 C-0.32 10.33 -1.64 10.66 -3 11 C-2.44894091 7.0507432 -1.61064629 3.65079826 0 0 Z " fill="#DB4A45" transform="translate(49,21)"/>
<path d="M0 0 C2.64 0 5.28 0 8 0 C8.33 1.65 8.66 3.3 9 5 C6 4 6 4 4 2 C3.67 2.66 3.34 3.32 3 4 C2.01 2.68 1.02 1.36 0 0 Z " fill="#65DCE1" transform="translate(312,105)"/>
<path d="M0 0 C1.26823485 3.65393537 0.75715321 6.49070026 0.0625 10.25 C-0.13214844 11.32765625 -0.32679688 12.4053125 -0.52734375 13.515625 C-0.68332031 14.33546875 -0.83929688 15.1553125 -1 16 C-1.33 16 -1.66 16 -2 16 C-2.05402274 13.89611431 -2.09280256 11.79183286 -2.125 9.6875 C-2.14820313 8.51574219 -2.17140625 7.34398438 -2.1953125 6.13671875 C-2 3 -2 3 0 0 Z " fill="#6FCFD0" transform="translate(213,109)"/>
<path d="M0 0 C1.31534494 3.65857532 0.65468309 6.08026481 -0.4375 9.75 C-0.86869141 11.22726563 -0.86869141 11.22726563 -1.30859375 12.734375 C-1.53675781 13.48203125 -1.76492187 14.2296875 -2 15 C-3.00322648 11.99032056 -3.03098357 10.5759723 -2.6875 7.5 C-2.60886719 6.7265625 -2.53023437 5.953125 -2.44921875 5.15625 C-2 3 -2 3 0 0 Z " fill="#6BD1D5" transform="translate(231,112)"/>
<path d="M0 0 C0.33 0 0.66 0 1 0 C2.34516765 6.35897436 2.34516765 6.35897436 0.6875 9.4375 C-1 11 -1 11 -3 11 C-2.01 7.37 -1.02 3.74 0 0 Z " fill="#E67050" transform="translate(62,107)"/>
<path d="M0 0 C1.23593891 3.70781672 0.5678132 4.67510253 -0.9375 8.1875 C-1.31777344 9.08855469 -1.69804688 9.98960938 -2.08984375 10.91796875 C-2.54037109 11.94857422 -2.54037109 11.94857422 -3 13 C-4.07999887 9.7600034 -3.92129428 8.61636465 -3.1875 5.375 C-3.01605469 4.57835938 -2.84460937 3.78171875 -2.66796875 2.9609375 C-2 1 -2 1 0 0 Z " fill="#E6704F" transform="translate(54,88)"/>
<path d="M0 0 C-0.33 2.97 -0.66 5.94 -1 9 C-2.32 7.68 -3.64 6.36 -5 5 C-2.74193548 0 -2.74193548 0 0 0 Z " fill="#5BD9DC" transform="translate(188,116)"/>
<path d="M0 0 C0.33 0 0.66 0 1 0 C1 2.31 1 4.62 1 7 C2.32 7.66 3.64 8.32 5 9 C2.92446352 9.5534764 1.15634036 10 -1 10 C-0.67 6.7 -0.34 3.4 0 0 Z " fill="#67D5D6" transform="translate(177,116)"/>
<path d="M0 0 C0.99 0.33 1.98 0.66 3 1 C3.33 3.31 3.66 5.62 4 8 C3.01 7.67 2.02 7.34 1 7 C0.67 6.01 0.34 5.02 0 4 C-0.66 4 -1.32 4 -2 4 C-2 3.34 -2 2.68 -2 2 C-1.34 2 -0.68 2 0 2 C0 1.34 0 0.68 0 0 Z " fill="#69D6DA" transform="translate(172,110)"/>
<path d="M0 0 C0.33 0 0.66 0 1 0 C1.93402724 5.41735797 2.20808081 8.80451575 0 14 C-0.33 14 -0.66 14 -1 14 C-1.027193 12.41676312 -1.04648306 10.83338938 -1.0625 9.25 C-1.07410156 8.36828125 -1.08570313 7.4865625 -1.09765625 6.578125 C-1.00826198 4.2181162 -0.66912821 2.25501476 0 0 Z " fill="#6DCECC" transform="translate(202,114)"/>
<path d="M0 0 C0.33 0 0.66 0 1 0 C1 1.98 1 3.96 1 6 C1.99 5.67 2.98 5.34 4 5 C4.33 5.99 4.66 6.98 5 8 C3.35 8.33 1.7 8.66 0 9 C0 6.03 0 3.06 0 0 Z " fill="#64DDDE" transform="translate(306,124)"/>
<path d="M0 0 C0.66 0 1.32 0 2 0 C2 0.99 2 1.98 2 3 C2.66 3.33 3.32 3.66 4 4 C3.67 4.99 3.34 5.98 3 7 C1.68 6.67 0.36 6.34 -1 6 C-0.67 4.02 -0.34 2.04 0 0 Z " fill="#FB8C4C" transform="translate(13,127)"/>
<path d="M0 0 C0.66 0 1.32 0 2 0 C1.32829194 3.8063457 0.27253436 7.35206816 -1 11 C-1.33 11 -1.66 11 -2 11 C-1.85892253 9.54119891 -1.71197585 8.08296449 -1.5625 6.625 C-1.48128906 5.81289062 -1.40007813 5.00078125 -1.31640625 4.1640625 C-1 2 -1 2 0 0 Z " fill="#E9875D" transform="translate(41,121)"/>
<path d="M0 0 C0.33 0 0.66 0 1 0 C1.125 6.625 1.125 6.625 0 10 C-0.99 10.33 -1.98 10.66 -3 11 C-2.01 7.37 -1.02 3.74 0 0 Z " fill="#E45F46" transform="translate(38,53)"/>
<path d="M0 0 C0.33 0 0.66 0 1 0 C1 1.98 1 3.96 1 6 C-0.65 6.66 -2.3 7.32 -4 8 C-4 6.02 -4 4.04 -4 2 C-2.515 2.99 -2.515 2.99 -1 4 C-0.67 2.68 -0.34 1.36 0 0 Z " fill="#65D5D4" transform="translate(328,111)"/>
<path d="M0 0 C0.99 0 1.98 0 3 0 C2.01 3.3 1.02 6.6 0 10 C-0.33 10 -0.66 10 -1 10 C-0.67 6.7 -0.34 3.4 0 0 Z " fill="#E6644D" transform="translate(59,69)"/>
<path d="M0 0 C2.31 0.33 4.62 0.66 7 1 C4.82575883 3.50037734 3.26954202 4.43628586 0 5 C0 3.35 0 1.7 0 0 Z " fill="#69D8D7" transform="translate(105,68)"/>
<path d="M0 0 C3.68754757 0.49831724 5.60490662 1.10067643 8 4 C7.67 4.66 7.34 5.32 7 6 C3.535 4.02 3.535 4.02 0 2 C0 1.34 0 0.68 0 0 Z " fill="#6DD7D7" transform="translate(105,45)"/>
<path d="M0 0 C2.97 0.495 2.97 0.495 6 1 C5.34 2.32 4.68 3.64 4 5 C3.01 5 2.02 5 1 5 C0.67 3.35 0.34 1.7 0 0 Z " fill="#FC8A47" transform="translate(16,114)"/>
<path d="M0 0 C0.66 0.66 1.32 1.32 2 2 C0.02 4.97 0.02 4.97 -2 8 C-2.66 7.67 -3.32 7.34 -4 7 C-3.67 6.01 -3.34 5.02 -3 4 C-2.34 4 -1.68 4 -1 4 C-0.67 2.68 -0.34 1.36 0 0 Z " fill="#FD5B3F" transform="translate(39,59)"/>
<path d="M0 0 C1.32 0.33 2.64 0.66 4 1 C4 1.66 4 2.32 4 3 C2 4.625 2 4.625 0 6 C-0.66 5.67 -1.32 5.34 -2 5 C-1.34 3.35 -0.68 1.7 0 0 Z " fill="#EF503D" transform="translate(41,45)"/>
</svg>
