<svg width="21" height="21" viewBox="0 0 21 21" fill="none" xmlns="http://www.w3.org/2000/svg">
<path fill-rule="evenodd" clip-rule="evenodd" d="M20.0936 0.360297C20.073 0.335652 20.0512 0.311845 20.028 0.28898C20.0072 0.268436 19.9856 0.248935 19.9633 0.230494C19.7996 0.0948186 19.6022 0.0190472 19.4009 0.00318001C19.3409 -0.0015876 19.2802 -0.00101857 19.2197 0.00505064C19.131 0.0138882 19.0433 0.0343879 18.9591 0.0665497L0.981227 6.47122C0.95515 6.4805 0.929477 6.49086 0.904273 6.50225C0.634456 6.62424 0.405811 6.82008 0.245512 7.06651C0.0852128 7.31293 0 7.59958 0 7.89239C0 8.18519 0.0852128 8.47184 0.245512 8.71827C0.401979 8.9588 0.623564 9.15114 0.884995 9.27364L7.57552 12.5739L10.9208 19.1744C11.045 19.4323 11.2399 19.6509 11.4837 19.8053C11.7335 19.9634 12.0241 20.0475 12.3209 20.0475C12.6177 20.0475 12.9082 19.9634 13.158 19.8053C13.4078 19.6471 13.6063 19.4216 13.73 19.1554C13.7415 19.1305 13.752 19.1052 13.7614 19.0795L20.2549 1.33942C20.2761 1.28488 20.2921 1.22886 20.3031 1.17208C20.3252 1.05818 20.3265 0.942477 20.3082 0.830149C20.281 0.661808 20.2094 0.499093 20.0936 0.360297ZM15.4431 3.41695L2.69263 7.95932L8.12337 10.6382L15.4431 3.41695ZM9.53761 12.0333L16.8574 4.81199L12.253 17.3911L9.53761 12.0333Z" fill="#2F73F2"/>
</svg>
